<?xml version="1.0" standalone="no"?>
<!DOCTYPE svg PUBLIC "-//W3C//DTD SVG 20010904//EN"
 "http://www.w3.org/TR/2001/REC-SVG-20010904/DTD/svg10.dtd">
<svg version="1.0" xmlns="http://www.w3.org/2000/svg"
 width="225.000000pt" height="225.000000pt" viewBox="0 0 225.000000 225.000000"
 preserveAspectRatio="xMidYMid meet">

<g transform="translate(0.000000,225.000000) scale(0.100000,-0.100000)"
fill="#000000" stroke="none">
<path d="M832 2133 c-49 -17 -144 -100 -161 -140 -8 -20 -26 -34 -63 -48 -33
-13 -62 -34 -82 -58 l-31 -39 0 -141 0 -140 218 -1 c204 -1 220 -2 233 -20 11
-16 14 -66 14 -243 0 -210 -1 -224 -20 -243 -24 -24 -43 -25 -64 -4 -14 13
-16 47 -16 215 l0 199 -219 0 c-261 0 -251 -5 -251 120 l-1 75 -30 -35 c-70
-80 -101 -193 -80 -290 11 -51 11 -52 -23 -91 -72 -84 -88 -248 -35 -354 l25
-50 108 -3 107 -3 -3 78 -3 78 -70 3 c-75 3 -95 13 -95 46 0 37 19 46 97 46
l73 0 0 113 c0 75 4 117 12 125 15 15 251 17 279 2 20 -11 25 -45 9 -70 -7
-12 -32 -15 -107 -16 l-98 -1 -3 -238 c-1 -155 -6 -243 -13 -252 -8 -9 -42
-13 -121 -13 l-110 0 6 -27 c9 -34 59 -106 92 -132 24 -18 40 -21 140 -21
l114 0 0 68 c0 37 5 74 10 82 8 12 44 16 200 18 l190 3 0 55 0 54 -190 0
c-177 0 -190 1 -200 19 -14 28 -13 244 2 259 16 16 53 15 66 -1 6 -6 12 -50
14 -97 l3 -85 153 -3 152 -3 0 431 0 430 -159 0 -158 0 -5 -45 c-6 -53 -22
-75 -54 -75 -32 0 -44 28 -44 105 0 96 7 105 85 105 l65 0 0 64 c0 68 14 96
49 96 31 0 41 -22 41 -92 l0 -68 90 0 90 0 0 98 c0 107 -9 131 -60 157 -36 19
-112 18 -168 -2z"/>
<path d="M1235 2136 c-16 -7 -39 -23 -50 -36 -19 -21 -20 -38 -23 -471 l-3
-449 40 0 c34 0 44 6 74 41 44 51 80 52 85 3 6 -61 -69 -122 -152 -126 l-46
-1 0 -294 0 -293 33 0 c41 0 92 -31 117 -72 26 -42 25 -63 -2 -82 -24 -17 -58
-6 -58 19 0 23 -38 55 -65 55 l-25 0 0 -102 c0 -113 18 -172 61 -202 28 -19
123 -22 182 -4 51 15 123 83 132 123 11 51 14 55 35 55 60 0 140 71 161 141
12 37 11 41 -16 69 -15 16 -41 34 -57 39 l-30 11 7 -39 c5 -33 3 -41 -16 -54
-31 -22 -56 -6 -69 43 -12 45 -43 70 -98 79 -31 5 -38 11 -40 33 -6 49 56 59
129 22 31 -15 49 -3 49 34 0 64 -49 92 -113 63 -77 -35 -110 22 -42 73 19 15
42 40 50 56 17 34 20 102 4 131 -25 48 26 88 65 50 18 -19 21 -33 21 -104 0
-45 -3 -89 -8 -97 -5 -11 2 -20 26 -33 45 -24 77 -83 77 -140 0 -41 3 -46 31
-58 18 -7 44 -23 60 -36 l28 -24 46 42 c67 62 110 154 82 177 -7 6 -31 17 -53
24 -31 10 -39 18 -39 37 0 45 46 51 127 17 36 -16 86 144 73 232 -9 60 -40
139 -71 180 -20 25 -32 32 -59 32 -32 0 -35 -3 -46 -42 -13 -50 -76 -118 -109
-118 -14 0 -38 16 -61 41 -38 41 -39 42 -91 36 -56 -7 -78 3 -78 34 0 57 137
67 205 15 48 -37 58 -24 50 61 -5 56 -3 63 16 74 17 9 29 7 59 -6 20 -9 48
-15 61 -13 23 3 24 6 23 78 -1 111 -49 187 -147 237 -37 19 -39 21 -41 76 -3
65 -37 126 -89 157 -37 23 -67 26 -67 7 0 -24 -58 -96 -99 -123 -39 -26 -39
-26 -25 -59 8 -19 14 -54 14 -79 0 -34 4 -46 18 -50 34 -11 75 -62 67 -85 -10
-33 -40 -35 -84 -5 -43 28 -66 28 -128 3 -26 -10 -34 -10 -47 0 -9 8 -16 22
-16 31 0 20 44 60 66 60 22 0 44 30 44 62 0 22 -10 40 -35 64 -51 48 -44 104
12 104 13 0 42 9 64 21 46 23 78 81 79 138 0 87 -174 161 -275 117z"/>
<path d="M752 571 c0 -94 -3 -98 -76 -106 -34 -4 -91 -5 -125 -3 l-63 4 6 -35
c3 -19 18 -51 34 -70 l29 -36 130 -3 131 -3 4 71 c4 84 22 110 65 94 l28 -9 3
-110 c4 -140 -1 -145 -124 -145 -46 0 -84 -4 -84 -8 0 -18 68 -72 109 -87 49
-17 137 -20 175 -5 14 5 35 24 46 42 18 30 20 51 20 251 l0 217 -154 0 -153 0
-1 -59z"/>
</g>
</svg>
