<?xml version="1.0" encoding="UTF-8" standalone="no"?>
<svg
   xmlns:dc="http://purl.org/dc/elements/1.1/"
   xmlns:cc="http://creativecommons.org/ns#"
   xmlns:rdf="http://www.w3.org/1999/02/22-rdf-syntax-ns#"
   xmlns:svg="http://www.w3.org/2000/svg"
   xmlns="http://www.w3.org/2000/svg"
   xmlns:sodipodi="http://sodipodi.sourceforge.net/DTD/sodipodi-0.dtd"
   xmlns:inkscape="http://www.inkscape.org/namespaces/inkscape"
   inkscape:version="1.0 (4035a4f, 2020-05-01)"
   sodipodi:docname="LOGO1.svg"
   id="svg5416"
   preserveAspectRatio="xMidYMid meet"
   viewBox="0 0 225.000000 225.000000"
   height="225.000000pt"
   width="225.000000pt"
   version="1.0">
  <metadata
     id="metadata5422">
    <rdf:RDF>
      <cc:Work
         rdf:about="">
        <dc:format>image/svg+xml</dc:format>
        <dc:type
           rdf:resource="http://purl.org/dc/dcmitype/StillImage" />
        <dc:title></dc:title>
      </cc:Work>
    </rdf:RDF>
  </metadata>
  <defs
     id="defs5420">
    <clipPath
       clipPathUnits="userSpaceOnUse"
       id="clipPath4451">
      <path
         id="path4453"
         style="fill:#ff0000;fill-opacity:1;fill-rule:nonzero;stroke:none;stroke-width:0.264583"
         d="M 13.306681,76.784459 V 152.26667 H 47.371786 V 76.784459 Z m 14.002764,25.819611 c 0.04951,0.005 0.09947,0.008 0.149344,0.008 0.0033,-0.004 0.0054,-0.004 0.02376,-0.005 0.0364,0.005 0.03458,0.0104 0.01913,0.0801 7.94e-4,1e-4 0.0062,-0.005 0.0052,-0.003 -7.93e-4,0.002 -0.004,0.003 -0.0052,0.004 -0.0016,0.007 -7.94e-4,0.006 -0.0026,0.0139 -0.0013,0.006 -0.01016,0.003 -0.01757,0.002 -0.0019,0.001 -0.0033,0.002 -0.0052,0.004 0.0068,0.002 0.01368,0.003 0.02016,0.006 0.06506,0.026 0.08699,0.0417 0.150378,0.078 0.0016,0.007 0.003,0.0148 0.0047,0.0222 0.006,0.001 0.01206,0.003 0.01807,0.004 0.0026,5.3e-4 0.0052,0.001 0.0078,0.002 8e-5,-5.3e-4 -7.6e-5,-10e-4 0,-0.002 1.03e-4,-5.3e-4 0.0028,0.002 0.0036,0.003 0.0021,5.3e-4 0.0045,0.001 0.0067,0.002 v -5.3e-4 c 7.93e-4,-0.002 0.0068,2.6e-4 0.0052,0.001 -2.65e-4,1.9e-4 -7.94e-4,-1e-5 -0.0011,5.3e-4 7.93e-4,2.1e-4 0.0019,-2e-5 0.0026,5.3e-4 -5.29e-4,-8e-4 2.65e-4,-5.3e-4 -5.29e-4,-0.002 0.01376,0.003 0.02141,0.005 0.02635,0.007 5.29e-4,1.2e-4 0.0011,-1e-5 0.0016,5.3e-4 0.003,10e-4 0.01027,-0.001 0.0093,0.002 -0.0039,0.0119 -0.0032,0.0111 -0.0057,0.0202 0.0089,0.002 0.01799,0.004 0.02687,0.006 0.0016,2.4e-4 0.003,7.9e-4 0.0047,0.001 0.0043,-2.1e-4 0.0086,10e-4 0.01241,0.004 0.0038,0.001 0.0079,0.001 0.01138,0.003 0.0104,0.006 0.03176,0.0111 0.02791,0.0222 -0.0055,0.0156 -0.0086,0.0162 -0.01291,0.0258 2.56e-4,8e-4 0.0013,0.004 0.0016,0.004 0.0013,0.005 5.29e-4,0.005 0.0011,0.009 0.0093,1.2e-4 0.0168,0.005 0.01963,0.0212 0.0024,0.0128 -0.0032,0.0203 -0.0067,0.0294 0.03363,0.0321 0.06728,0.0641 0.107487,0.1018 0.0043,10e-4 0.0089,0.002 0.01241,0.005 0.0331,0.0258 0.06411,0.053 0.09612,0.0801 0.0046,-2.4e-4 0.0098,-0.004 0.01394,-0.001 0.02929,0.0158 0.05582,0.0359 0.08423,0.0532 0.0049,0.003 0.10663,0.0593 0.121441,0.0744 0.0895,0.0915 0.03271,0.0968 0.08682,0.0863 0.07263,0.0605 0.04009,0.0336 0.09767,0.077 0.20602,0.15538 0.160673,0.34612 0.0181,0.38499 0.01191,0.041 -0.02669,0.0786 -0.09043,0.046 -0.02846,-0.0145 -0.08536,-0.0416 -0.116271,-0.0615 -0.0073,-0.005 -0.01598,-0.008 -0.02066,-0.0155 -0.01371,-0.0213 -0.01429,-0.0223 -0.01963,-0.031 -0.0037,-0.003 -0.0071,-0.003 -0.01085,-0.006 -0.067,-0.0515 -0.0629,-0.0495 -0.11162,-0.0915 -0.0069,-0.004 -0.01617,-0.009 -0.01707,-0.0104 -0.0034,-0.002 -0.007,-0.004 -0.01035,-0.006 -0.0047,-0.003 -0.0088,-0.008 -0.01344,-0.0108 -0.0016,-0.001 -0.0035,-0.002 -0.0052,-0.003 -0.0052,-0.004 -0.01029,-0.007 -0.01551,-0.0104 -0.01786,-0.0116 -0.01151,-0.005 -0.0279,-0.0186 -0.0081,-0.006 -0.01632,-0.0125 -0.02532,-0.0176 -0.0011,-2.3e-4 -0.0021,-5.3e-4 -0.0031,-0.001 -0.0021,-0.001 -0.02408,-0.0135 -0.02739,-0.0155 -0.0047,-0.003 -0.01524,-0.009 -0.01963,-0.0119 -0.0043,-0.004 -0.0081,-0.007 -0.01241,-0.0108 -0.0011,-0.001 0.0032,0.004 0.0021,0.003 -0.0032,-0.001 -0.0059,-0.003 -0.0088,-0.005 -0.0042,-0.003 -0.0082,-0.005 -0.01241,-0.008 -0.01042,-0.008 -0.01714,-0.0103 -0.03049,-0.0171 -0.0067,-0.004 -0.01304,-0.007 -0.01963,-0.0108 -0.01736,-0.0109 -0.03576,-0.0204 -0.05478,-0.0284 -7.93e-4,0 -0.01349,-0.004 -0.01497,-0.004 0.0016,0.001 0.0062,0.002 0.0047,0.002 -0.0036,0 -0.0078,-7.9e-4 -0.01138,-0.001 -0.0031,-2.4e-4 -0.0062,7e-5 -0.0093,-5.2e-4 -0.0063,-8e-4 -0.01307,-0.003 -0.01963,-0.004 -0.0044,2.6e-4 -0.008,5.3e-4 -0.01241,5.3e-4 -0.01434,-0.001 -0.02866,-0.004 -0.04289,-0.005 -0.03376,0 -0.06714,0.003 -0.100769,0.006 -0.01709,0.002 -0.04527,0.005 -0.06304,0.008 -2.62e-4,2.6e-4 -0.0016,6e-5 -0.0021,5.3e-4 -0.0074,0.005 -0.02093,0.0105 -0.02376,0.0114 -0.0071,0.002 -0.02777,0.007 -0.03617,0.009 -0.0028,10e-4 -0.01712,0.003 -0.02222,0.004 -0.0013,0 -0.0021,5.3e-4 -0.0031,0.001 -0.0061,0.001 -0.01251,0.002 -0.0186,0.003 -0.01299,0.002 -0.02564,0.005 -0.03876,0.007 -0.0031,2.6e-4 -0.0062,1.3e-4 -0.0093,5.3e-4 -0.0041,10e-4 -0.0082,-0.001 -0.01241,0.002 -0.0043,2.6e-4 -0.0086,5.3e-4 -0.01291,0.001 l -5.29e-4,5.3e-4 c -0.0021,0.001 -0.004,8e-4 -0.0062,0.002 -0.0021,0.001 -0.0042,0.002 -0.0062,0.003 -0.0141,0.006 -0.01508,0.005 -0.03049,0.0108 -0.01408,0.007 -0.03045,0.009 -0.04393,0.017 -0.0021,0.002 -0.0041,0.004 -0.0062,0.005 -0.0046,0.003 -0.0088,0.005 -0.01344,0.008 -0.0091,0.007 -0.01939,0.012 -0.02739,0.0202 -0.0046,0.005 -0.005,0.006 -0.0093,0.0119 -0.0035,0.005 -0.0072,0.008 -0.01085,0.0134 -0.02574,0.0343 0.0091,-0.012 -0.01757,0.0222 -0.0081,0.01 0.0059,-0.005 -0.0093,0.0119 -0.0068,0.008 -0.0085,0.009 -0.0155,0.016 -0.01368,0.0131 -0.02988,0.0225 -0.04651,0.0315 7.94e-4,-1.6e-4 0.0019,-5.3e-4 0.0026,-5.3e-4 2.43e-4,3e-5 1.46e-4,8e-4 0,10e-4 -0.0011,0.001 -0.0019,0.003 -0.0031,0.004 -0.0065,0.007 -0.01315,0.0142 -0.02016,0.0212 -0.0066,0.007 -0.01413,0.0121 -0.01963,0.0202 -0.0011,8e-4 -0.0024,0.003 -0.0026,0.003 v 5.3e-4 l 0.0026,5.3e-4 c 0.0049,0.005 -0.006,0.0126 -0.0093,0.0186 -0.0047,0.009 -0.0094,0.0184 -0.01394,0.0274 -0.0032,0.006 -0.0059,0.0126 -0.0088,0.0186 -0.0028,0.006 -0.0013,0.006 -0.0031,0.0124 -0.004,0.0128 -0.0073,0.0239 -0.0093,0.0372 0.006,-0.0269 -0.0036,-0.0412 -0.01757,-0.0486 0.0028,0.003 0.0061,0.004 0.0093,0.0114 0.01741,0.032 0.02673,0.0763 -0.05116,0.0863 -0.03097,0.004 -0.03751,-0.0124 -0.03979,-0.031 0.03353,0.0666 0.04004,-0.0398 0.05995,-0.0682 -0.02866,-7.9e-4 -0.06114,0.0147 -0.0646,0.0434 3.7e-5,-0.004 -7.94e-4,-0.008 -5.29e-4,-0.0108 0.0013,-0.006 0.0016,-0.0126 0.0031,-0.0186 0.0035,-0.0151 0.0051,-0.0179 0.0093,-0.031 0.0055,-0.0172 0.01077,-0.034 0.02016,-0.0496 2.4e-5,-4e-5 0.0024,-0.006 0.0031,-0.007 -0.0085,5.3e-4 -0.0177,0.003 -0.02585,0.002 -0.153527,0.14278 -0.362347,0.005 -0.272333,-0.28991 0.02516,-0.0823 0.06234,-0.15704 0.117822,-0.22324 0.03667,-0.0437 0.04437,-0.0416 0.08268,-0.0765 0.0011,-0.001 -0.004,7.9e-4 -0.0057,10e-4 0.05482,-0.0424 0.101986,-0.0924 0.168465,-0.11783 0.01468,-0.006 0.02688,-0.005 0.03979,-0.008 0.03146,-0.0322 0.06914,-0.0547 0.110072,-0.0739 -0.0191,-0.005 -0.04067,-0.011 -0.04341,-0.0155 -0.0019,-5.3e-4 -0.0013,2.6e-4 -0.0031,-5.3e-4 -0.0055,-0.002 0.0037,-0.0105 0.0057,-0.0155 0.01585,-0.0429 0.014,-0.0336 0.03256,-0.0775 0.0062,-0.0146 0.01249,-0.0283 0.0186,-0.0429 0.03088,-0.0341 0.0021,-0.004 0.05116,-0.0434 0.02986,-0.0242 0.05949,-0.0508 0.09147,-0.0734 -0.08864,-0.0107 -0.07551,-0.10106 0.01291,-0.0899 z m -0.0088,0.091 v 0.002 c 0.0011,-7.9e-4 0.0021,-10e-4 0.0031,-0.002 -0.0013,-1.3e-4 -0.0019,1.4e-4 -0.0031,0 z m 0.375171,0.13591 c -0.0049,0.003 -0.0096,0.006 -0.01447,0.008 0.0045,5.3e-4 0.0089,-0.001 0.01344,0.002 5.29e-4,-0.003 5.29e-4,-0.007 0.0011,-0.01 z m -0.632518,0.93225 c -5.29e-4,5.2e-4 -0.0011,7.9e-4 -0.0016,0.002 h 5.3e-4 c 1.85e-4,-5.3e-4 5.29e-4,-5.3e-4 0.0011,-0.001 z m -8.560202,1.61126 v 5.3e-4 c 0.03323,5.3e-4 0.03285,0.0787 0.120406,0.2558 0.02301,0.0278 0.03879,0.0456 0.05788,0.0662 0.01802,-0.0649 0.0251,-0.0403 0.01705,0.017 0.09769,0.0996 0.126777,0.12222 0.06976,0.16329 7.94e-4,0.001 0.0013,0.002 0.0021,0.003 0,0 -0.01892,0.0127 -0.03462,0.0227 h -5.3e-4 l -5.29e-4,5.3e-4 c -0.0063,0.004 -0.0077,0.005 -0.01395,0.009 -0.01809,0.0117 -0.03617,0.0234 -0.05426,0.0351 7.15e-4,-0.005 6.09e-4,-0.002 0.001,-0.007 -0.02205,0.0112 -0.0435,0.0201 -0.0646,0.0279 -0.0056,0.0188 -0.0037,0.0141 -0.0098,0.0341 -6.09e-4,0.002 -0.0043,-0.001 -0.0062,0 -0.02379,0.012 -0.04777,0.0229 -0.07028,0.0372 -0.375734,0.23848 0.02698,-0.007 -0.165881,0.11007 -0.346927,0.23904 0.186457,-0.12657 -0.168465,0.11162 -0.0033,0.002 -0.0061,0.006 -0.0093,0.009 -0.0143,0.0987 -0.08366,0.20333 -0.229443,0.27906 0.02421,0.0214 0.04049,0.0483 0.05168,0.078 0.04367,0.0206 0.09088,0.052 0.14211,0.0961 0.186587,0.16079 -0.04228,0.41509 -0.14056,0.51986 -0.08452,0.0857 -0.172267,0.16482 -0.263033,0.24133 -0.02975,0.0584 -0.0729,0.11812 -0.14056,0.17622 -0.149955,0.12877 -0.307433,0.25074 -0.47904,0.34985 -0.134486,0.0777 -0.286204,0.12447 -0.429948,0.18086 -0.120449,0.0408 -0.238986,0.087 -0.359668,0.12713 -0.120981,0.0402 -0.299397,0.11207 -0.434599,0.0729 -0.0061,0.005 -0.01012,0.0121 -0.01654,0.0171 -0.04862,0.0354 -0.116307,0.0332 -0.176217,0.0362 -0.162759,0.008 -0.373576,-0.0922 -0.518315,-0.15658 -0.367642,-0.16368 -0.352149,-0.48228 -0.125057,-0.56482 -0.0329,-0.0556 -0.04362,-0.11155 -0.03927,-0.16433 -0.07974,-0.0134 -0.159001,-0.0295 -0.238745,-0.0429 -0.0052,-8e-4 -0.01016,-0.002 -0.0155,-0.002 5.56e-4,-5.3e-4 4.76e-4,-5.3e-4 0.0016,-0.002 v -5.3e-4 c -0.0026,0.002 -0.0081,0.001 -0.01395,5.3e-4 -0.006,-7.9e-4 -0.01097,10e-4 -0.01654,-0.002 -0.0031,-10e-4 -0.0035,-10e-4 -0.0057,-0.002 -0.02012,-0.005 -0.03907,-0.0108 -0.09043,-0.0305 0.0061,-0.0297 0.01701,-0.0597 0.02532,-0.0894 -0.03852,0.0107 -0.08197,0.0153 -0.130224,0.0124 -0.0083,0.005 -0.01515,0.0135 -0.02377,0.0186 -0.04476,0.0266 -0.09436,-0.0239 -0.143144,-0.0553 -0.0077,-0.003 -0.01487,-0.004 -0.02274,-0.007 -0.01129,-0.004 -0.0223,-0.009 -0.03359,-0.0134 -0.185002,-0.0796 -0.156118,-0.0747 -0.02894,-0.37413 -0.05189,-0.0313 -0.0922,-0.0606 -0.19327,-0.13643 -0.447627,-0.33601 -0.112,-0.80591 0.335897,-0.47026 0.148213,0.11108 0.1221,0.10472 0.241846,0.16072 0.04404,0.01 0.08754,0.0223 0.131258,0.0336 0.177997,0.0701 0.363835,0.11705 0.54622,0.17415 0.09954,0.0313 0.109933,0.0355 0.129708,0.0393 0.05663,-0.0139 0.07721,-0.009 0.186035,-0.0238 0.0073,-5.3e-4 0.01254,-0.009 0.01964,-0.0109 0.02482,-0.007 0.05025,-0.0116 0.07545,-0.0176 0.255038,-0.0389 -0.125758,0.0158 0.179834,-0.0134 0.0027,0 -0.0011,-0.007 0.0016,-0.008 0.01542,-0.007 0.03228,-0.008 0.04858,-0.0124 0.08214,-0.0179 0.06991,-0.0127 0.167948,-0.0165 0.0026,-0.003 0.0039,-0.008 0.0078,-0.009 0.02978,-0.007 0.06126,-0.0105 0.09095,-0.0181 0.0048,-0.002 0.006,-0.009 0.01033,-0.0114 0.02957,-0.0163 0.06187,-0.027 0.09147,-0.0439 0.305004,-0.0927 -0.0436,0.01 0.23306,-0.062 0.0084,-0.002 0.01474,-0.009 0.02274,-0.0124 0.01729,-0.007 0.03604,-0.0116 0.05323,-0.0186 0.01007,-0.004 -0.02103,0.007 -0.03152,0.0103 0.18193,-0.13234 0.400699,-0.21016 0.617533,-0.26406 -0.0676,-0.008 0.128536,-0.12645 0.157096,-0.14315 0.03731,-0.0132 0.07483,-0.0248 0.111621,-0.0393 0.0039,-0.002 -0.0156,0.003 -0.0124,0 0.01144,-0.01 0.02637,-0.0132 0.03876,-0.0222 0.08585,-0.0591 -0.02334,0.0107 0.04858,-0.046 0.02657,-0.021 0.05511,-0.0393 0.08268,-0.0589 0.01163,-0.007 0.04006,-0.0291 0.03462,-0.0217 0.02109,-0.0202 0.04149,-0.0413 0.06356,-0.0605 0.0762,-0.0661 0.169968,-0.11345 0.252698,-0.17105 0.09453,-0.0573 0.181429,-0.12399 0.279569,-0.1757 0.01201,-0.006 0.03208,-0.0212 0.04806,-0.031 6.08e-4,-0.002 0.0025,-0.005 0.0031,-0.007 0.01806,-0.0118 0.03567,-0.0237 0.05374,-0.0351 0.0046,-0.003 0.0094,-0.006 0.01395,-0.009 l 5.3e-4,-5.3e-4 h 5.29e-4 c 0.0079,-0.005 0.0159,-0.0106 0.02377,-0.0155 0.0037,-0.002 0.0086,-0.0106 0.01085,-0.007 7.41e-4,10e-4 0.0013,0.002 0.0021,0.003 0.01529,-0.009 0.03703,-0.0239 0.04547,-0.0238 z m -3.84266,2.01435 c 0.0039,-0.001 0.0066,-0.003 0.01033,-0.005 -0.0031,-2.5e-4 -0.0057,2.7e-4 -0.0088,-0.002 -5.82e-4,0.002 -3.44e-4,0.004 -0.0016,0.006 z m 4.037997,-1.67483 c -0.0062,-0.006 -0.01037,-0.0102 -0.01705,-0.017 -0.0018,0.006 -0.0062,0.0213 -0.0083,0.0289 0.0054,0.009 0.01382,0.0212 0.01964,0.031 0.002,-0.0137 0.0043,-0.0331 0.0057,-0.0429 z m -3.212724,1.05833 c -0.0022,1e-4 -0.0049,8e-4 -0.0072,0.001 0.0094,0.002 0.01006,0.002 0.03514,0.006 -0.0038,-0.006 -0.01434,-0.008 -0.02791,-0.007 z m 2.64635,0.0568 c -0.0041,-10e-4 -0.01,0.001 -0.01809,0.006 -0.17955,0.1255 -0.246855,0.20908 -0.271818,0.26975 -0.01051,-0.0185 -0.02397,-0.0426 -0.03824,-0.0708 -0.003,0.002 -0.0047,0.005 -0.0078,0.007 -0.02429,0.0189 -0.0485,0.038 -0.07286,0.0568 0.03667,0.029 0.07213,0.0528 0.104904,0.0651 -7.68e-4,-0.0158 0.0048,-0.0352 0.01395,-0.0574 0.01627,0.0287 0.02836,0.0556 0.02791,0.0692 v 5.3e-4 c 0.0896,0.0169 0.164644,-0.0234 0.225309,-0.10232 0.0054,-0.0691 0.06532,-0.23378 0.03669,-0.2434 z m -0.261999,0.34571 c -0.0136,-0.003 -0.02756,-0.007 -0.04186,-0.0119 9.26e-4,0.017 0.0034,0.0314 0.0088,0.0424 0.01556,-0.009 0.03257,-0.0197 0.03307,-0.0305 z m -3.121257,0.21756 v 5.3e-4 c 0.0086,0.0473 0.01875,0.0978 0.0186,0.11265 0.0073,-0.0358 0.0092,-0.0726 0.01292,-0.10903 -0.01052,-10e-4 -0.021,-0.002 -0.03152,-0.004 z m 0.01809,0.11627 c -6.61e-4,0.003 -0.0032,0.002 -0.0047,0.004 v 5.3e-4 c 7.14e-4,-8e-4 0.0039,0.001 0.0041,0 1.73e-4,-0.002 3.97e-4,-0.003 5.29e-4,-0.005 z m 0.727088,0.51108 v 10e-4 c -0.02418,0.0281 -0.03774,0.0474 -0.0098,0.0336 0.01323,-0.007 0.02341,-0.0177 0.03566,-0.0258 -0.0062,-0.002 -0.01998,-0.006 -0.02584,-0.009 z m 4.402315,4.25194 v 5.3e-4 5.2e-4 5.3e-4 0.001 10e-4 5.3e-4 5.3e-4 c 0.139217,-0.0196 0.310278,0.0968 0.381372,0.36742 0.02266,0.0863 0.01979,0.1173 0.06356,0.1819 0.0052,0.008 0.01435,0.0256 0.02015,0.0186 0.0062,-0.008 -0.02285,-0.0302 -0.01395,-0.0259 0.01864,0.01 0.03383,0.0257 0.04599,0.0429 0.02845,0.0402 0.04953,0.0846 0.07441,0.12713 -0.009,-0.0213 -0.0465,-0.0759 -0.02687,-0.0636 0.02921,0.0182 0.03777,0.0574 0.05995,0.0837 0.03852,0.003 0.0727,0.006 0.135909,0.0119 0.02395,0.002 0.07076,0.0333 0.09922,0.0217 -0.0027,-0.001 -0.0097,-5.3e-4 -0.0078,-0.003 0.0149,-0.0161 0.147833,-0.0104 0.213941,-0.009 0.103285,-0.0446 0.259292,-0.0474 0.361218,-0.0486 0.0057,5.3e-4 0.0113,2.6e-4 0.01705,0.002 0.02947,-0.0165 0.06745,-0.0123 0.100253,-0.0217 0.01174,-0.003 0.02099,-0.012 0.03256,-0.016 0.117861,-0.0396 0.07099,-0.006 0.113171,-0.0398 0.01476,-0.005 0.02982,-0.008 0.04444,-0.0124 0.0063,-0.005 0.0086,-0.008 0.01395,-0.0114 0.09886,-0.034 0.206165,-0.0604 0.306958,-0.0925 0.299473,-0.11935 0.177848,-0.21377 0.167948,0.39946 -0.009,0.55965 0.264145,-1.05771 0.291455,-0.49868 0.0082,0.16775 0.03725,0.33534 0.02481,0.50281 -0.0019,0.0252 -0.04278,0.0284 -0.06511,0.0403 -0.110885,0.0588 -0.12974,0.0616 -0.250114,0.10904 -0.04411,0.0131 -0.08763,0.0292 -0.132292,0.0403 -0.02959,0.007 -0.0746,0.0377 -0.09767,0.031 -0.02089,0.0166 -0.02888,0.0218 -0.06511,0.0181 -0.142091,0.0588 -0.349733,0.13661 -0.502295,0.1266 -0.03836,-0.001 -0.0764,0.004 -0.114722,0.002 -0.0046,0 -0.0075,-0.008 -0.01188,-0.007 -0.107828,0.027 -0.142057,0.0622 -0.232027,0.0522 -0.08344,-0.008 -0.164827,0.009 -0.248047,0.0103 -0.09616,-0.01 -0.08978,-0.005 -0.182934,-0.031 -0.01232,-0.003 -0.03626,-0.007 -0.05323,-0.0119 -0.0636,-0.004 -0.127308,-0.008 -0.189653,-0.0207 -0.02212,-0.004 -0.03748,-0.0255 -0.05529,-0.0393 -0.09129,-0.0709 -0.167094,-0.15258 -0.230994,-0.24547 v -5.3e-4 c 0.0018,0.002 0.0099,0.006 0.0078,0.004 -0.0043,-0.004 -0.0085,-0.008 -0.01292,-0.0124 v 5.3e-4 c 0.0011,0.002 0.0021,0.003 0.0031,0.005 -0.0051,-0.007 -0.01105,-0.0123 -0.0155,-0.0191 -0.02607,-0.0226 -0.05325,-0.044 -0.07545,-0.0703 -0.108171,-0.12804 -0.153323,-0.2947 -0.186035,-0.45475 -0.05599,-0.2742 0.05147,-0.42952 0.190686,-0.44907 z m 0.750341,1.24902 c -0.01454,0.007 -0.0283,0.0165 -0.04237,0.0248 0.0036,-5.3e-4 0.0073,2.6e-4 0.01085,-5.3e-4 0.01281,-0.003 0.0432,-0.0304 0.03152,-0.0243 z m 7.151502,14.67765 v 5.3e-4 0.001 5.3e-4 5.3e-4 5.3e-4 0.002 c 0.08401,0.001 0.169556,0.006 0.253214,0.01 0.04029,0.002 0.08562,-0.0121 0.120923,0.004 0.0032,-0.002 0.0063,-0.004 0.0098,-0.005 0.03289,-0.011 0.066,-0.005 0.09974,-0.007 0.03751,-0.001 0.07667,-0.005 0.114205,-0.002 0.02389,0.002 0.01818,0.004 0.04186,0.007 0.01302,0.002 0.02572,0.003 0.03876,0.005 0.07927,0.001 0.158843,0.008 0.237712,-0.004 0.01908,-0.001 0.03819,-0.004 0.05736,-0.005 0.07392,-0.003 0.148249,0.003 0.222208,5.3e-4 0.09572,-0.003 0.192391,-0.008 0.287321,0.008 0.05771,0.003 0.06319,0.003 0.125058,0.008 0.01445,0.001 0.02841,0.004 0.04289,0.004 0.02037,10e-4 0.0406,-0.003 0.06098,-0.003 0.01236,0 0.02487,4e-5 0.03721,5.3e-4 0.04789,0.004 0.09572,0.008 0.143661,0.0124 0.0319,0.002 0.06368,0.003 0.0956,0.005 0.05112,0.003 0.101782,0.007 0.152961,0.002 0.03344,-0.001 0.0536,-0.003 0.08682,-0.001 0.0448,0.002 0.07968,0.008 0.125056,0.0119 0.106653,0.0102 0.0426,0.002 0.130741,0.015 0.08701,0.01 -0.03541,-0.003 0.07855,0.005 0.02355,0.002 0.04678,0.008 0.07028,0.01 0.0554,0.005 0.111149,0.005 0.166399,0.0124 0.02125,0.001 0.04236,0.003 0.06356,0.005 0.007,0.001 0.0141,0.004 0.02119,0.004 0.01683,0.001 0.03378,1.1e-4 0.05064,5.3e-4 0.06072,0.001 0.121161,0.004 0.181901,0.003 0.03002,0 0.05991,0.001 0.08992,-0.002 0.02643,-0.001 0.05938,-0.0201 0.07958,-0.003 h 5.3e-4 c -1.22e-4,-0.001 1.27e-4,-2.7e-4 0,-0.002 0.0054,-0.001 0.01061,-0.003 0.01601,-0.004 h 5.29e-4 c 0.01289,-0.008 0.02506,-0.0129 0.03049,-0.002 0.0011,0.002 0.0011,0.003 0.0021,0.005 0.0016,3e-5 0.0035,-6e-5 0.0052,0 0.02122,0.001 0.04777,-0.01 0.06356,0.004 0.01291,0.0116 0.02096,0.0266 0.02842,0.0413 0.01498,-0.0358 0.0114,-0.0186 0.0036,0.006 -7.94e-4,-0.002 -0.0026,-0.004 -0.0036,-0.006 -0.0097,0.0234 -0.01971,0.0504 -0.02635,0.0558 -0.01648,0.0135 -0.0413,10e-4 -0.06356,-0.002 0.0055,-0.004 0.01061,-0.008 0.01394,-0.0155 -0.0057,0.005 -0.01,0.0104 -0.02429,0.0134 -0.0024,5.3e-4 -0.0048,-0.002 -0.0072,-0.002 -0.0027,7.9e-4 -0.0056,0.001 -0.0083,0.002 0.0011,5.3e-4 0.0019,2.2e-4 0.0026,5.3e-4 -0.004,-3e-5 -0.0081,-2e-4 -0.01085,0 -0.0056,2.5e-4 -0.01042,8e-5 -0.01291,-5.3e-4 -0.02998,0.005 -0.06478,0.005 -0.0832,0.006 -0.031,0.001 -0.06199,5.3e-4 -0.09302,0.002 -0.06232,0 -0.124773,-0.002 -0.187069,-0.003 -0.01659,-2.5e-4 -0.03307,5.3e-4 -0.04961,-5.3e-4 -0.01238,-0.001 -0.02487,-0.005 -0.03721,-0.006 -0.01812,-0.002 -0.03608,-0.003 -0.05426,-0.004 -0.05475,-0.007 -0.109937,-0.007 -0.164846,-0.0124 -0.02593,-0.002 -0.05161,-0.008 -0.07751,-0.0104 -0.1309,-0.008 0.07547,0.0105 -0.07545,-0.004 -0.09398,-0.014 -0.02479,-0.005 -0.129191,-0.015 -0.04457,-0.004 -0.08016,-0.009 -0.124023,-0.0119 -0.02627,-0.002 -0.04855,2.6e-4 -0.07493,0.001 -0.05473,0.006 -0.109127,0.001 -0.163814,-0.002 -0.03159,-0.001 -0.06301,-0.003 -0.09457,-0.005 -0.04891,-0.003 -0.0979,-0.009 -0.146759,-0.0129 -0.01069,-2.3e-4 -0.02135,-5.3e-4 -0.03204,-5.3e-4 -0.03011,0 -0.01215,0.004 -0.05064,0.003 -0.01905,-10e-4 -0.03835,-0.003 -0.05736,-0.004 -0.09271,-0.007 -0.04131,-0.004 -0.122473,-0.008 -0.09216,-0.016 -0.186135,-0.01 -0.279054,-0.008 -0.07507,0.002 -0.15027,-0.004 -0.225308,-0.001 -0.01588,0.001 -0.03173,0.003 -0.04754,0.005 -0.08254,0.013 -0.165613,0.006 -0.248563,0.005 -0.01643,-0.001 -0.03273,-0.003 -0.04909,-0.005 -0.01508,-0.002 -0.02797,-0.006 -0.04289,-0.007 -0.01651,-0.001 -0.03308,0.002 -0.04961,0.002 -0.01651,2.5e-4 -0.03309,5.3e-4 -0.04961,0.001 -0.02302,0.005 -0.04768,-0.003 -0.0708,0 -7.94e-4,0.001 -0.0024,0.003 -0.0031,0.004 -7.93e-4,-1.8e-4 -0.01029,-0.002 0.0021,-0.004 2.65e-4,-4e-5 7.94e-4,4e-5 0.0011,0 0.01079,-0.0144 0.03689,-0.0413 0.02273,-0.0367 -0.02347,0.007 -0.03134,0.0446 -0.05529,0.0496 -0.04383,0.0101 -0.0895,-0.004 -0.13436,-0.006 -0.08163,-0.003 -0.166402,-0.009 -0.248563,-0.009 -0.07505,0.005 -0.15022,0.004 -0.225309,0.003 -0.03052,8e-5 -0.06094,8e-5 -0.09147,0 -0.05209,0.015 -0.106262,0.0131 -0.159681,0.0103 -0.06329,-0.003 -0.125238,0.0184 -0.188619,0.0114 -0.01294,-10e-4 -0.03591,-0.003 -0.04703,-0.002 -0.01516,0.001 -0.03037,0.004 -0.04548,0.005 -0.04572,0.005 -0.09154,0.009 -0.137459,0.009 v -0.0434 c -0.0013,0.0161 -0.0035,0.0317 -0.01241,0.045 -0.01098,0.0159 -0.03896,0.004 -0.05839,0.005 -0.04366,0.003 -0.04425,0.003 -0.08062,0.003 -0.0735,-0.005 -0.147068,-0.004 -0.220657,-0.003 -0.01233,0.002 -0.02495,0.003 -0.03721,0.005 -0.04601,0.008 -0.04393,0.0121 -0.08992,0.0181 -0.01278,0.002 -0.02594,0.002 -0.03876,0.003 -0.008,0 -0.01577,0.002 -0.02377,0.003 -0.01106,10e-4 -0.02201,0.002 -0.03307,0.003 -0.01515,2.6e-4 -0.03036,5.3e-4 -0.04547,5.3e-4 -0.0145,5e-5 -0.02892,-0.002 -0.04341,-5.3e-4 -0.06466,0.002 -0.128963,0.0109 -0.192753,0.0212 -0.01046,0.001 -0.02108,-1.1e-4 -0.03152,0.002 -0.04289,0.004 -0.0361,0.007 -0.08837,0.0124 -0.06966,0.008 -0.139816,0.0141 -0.209806,0.0181 -0.04106,0.006 -0.08202,0.01 -0.123507,0.01 -0.01309,0 -0.02619,-5.3e-4 -0.03927,-5.3e-4 -0.03325,10e-4 -0.06657,0.006 -0.09974,0.008 -0.06266,-0.002 -0.122645,0.0171 -0.184485,0.0233 -0.13297,0.013 0.01928,-0.006 -0.07131,0.006 -0.09447,0.0254 -0.190878,0.0411 -0.286288,0.0625 -0.03619,0.008 -0.07399,0.009 -0.110071,0.0171 -0.02088,0.005 -0.03653,0.0111 -0.05684,0.0181 -0.0079,0.002 -0.04437,0.0103 -0.06046,0.0103 -0.02135,0.007 -0.04661,0.006 -0.0677,0.006 -0.0028,0.001 -0.03234,0.007 -0.03514,0.008 -0.0011,2.2e-4 0.0031,-2.4e-4 0.0031,5.2e-4 0,0.002 -0.0018,0.002 -0.0031,0.003 -0.02988,0.015 -0.02205,0.0106 -0.05271,0.0186 -0.03623,0.009 -0.0715,0.0198 -0.105937,0.0341 -0.0047,0.002 -0.0095,0.004 -0.01395,0.007 -0.0025,0.002 -0.0047,0.004 -0.0067,0.006 -0.08727,-0.007 -0.05964,0.0105 -0.09664,-0.0181 -0.0178,-0.0138 -0.02643,-0.0284 -0.03101,-0.0424 -0.0052,7.9e-4 -0.01038,0.002 -0.0155,0.003 -0.0272,0.008 -0.05314,0.0222 -0.0801,0.03 -0.01192,0.003 -0.02404,0.005 -0.03617,0.008 -0.05248,0.015 0.02872,-0.008 -0.03617,0.008 -0.001,2.3e-4 0.0035,6e-5 0.0026,5.3e-4 -0.0067,0.002 -0.01387,0.003 -0.02067,0.006 -0.0064,0.003 -0.01167,0.008 -0.01757,0.0108 -0.03721,0.0181 -0.07646,0.0321 -0.116272,0.0434 -0.01575,0.004 -0.03169,0.007 -0.04754,0.0114 -0.04674,0.012 0.0029,0.002 -0.03927,0.0103 l -5.29e-4,-5.3e-4 c -0.0046,0.001 -0.0063,0.003 -0.0093,0.004 -0.0176,0.008 -0.03591,0.0144 -0.05426,0.0207 -2.47e-4,2.4e-4 -0.0011,0.003 -0.0016,0.003 -0.01365,0.0134 -0.05233,0.022 -0.07183,0.0289 -6.35e-4,0 -10e-5,0.002 -5.29e-4,0.002 0.0014,-2.4e-4 0.0051,-0.002 0.0041,-5.3e-4 -0.03776,0.032 -0.0815,0.0553 -0.125574,0.0775 -0.007,0.004 -0.01689,0.0168 -0.02119,0.0103 -0.0088,-0.0132 -0.01211,-0.0292 -0.01705,-0.0444 -0.01515,0.0106 -0.02961,0.0226 -0.04444,0.0336 -0.02711,0.0205 0.02802,-0.0164 -0.02325,0.0186 l -0.0093,0.006 c 0.001,0.0254 -0.0035,0.0414 -0.0186,0.0114 -0.0035,0.002 -0.0072,0.004 -0.01085,0.006 -0.0061,0.002 -0.0152,0.0105 -0.0186,0.005 -0.01455,-0.0243 -0.0181,-0.0307 -0.02532,-0.0424 -0.0058,0.004 -0.01135,0.008 -0.01705,0.0119 -0.01545,0.008 -0.03058,0.0168 -0.04651,0.0238 -0.01457,0.006 -0.0301,0.0105 -0.04496,0.0155 -0.01709,0.006 -0.04827,0.0209 -0.06305,0.0269 -0.05619,0.0231 -0.02313,0.008 -0.06821,0.031 -0.03591,0.0185 -0.06966,0.0406 -0.10387,0.062 -0.03139,0.0212 -0.06162,0.0432 -0.09457,0.062 -0.0052,0.003 -0.01028,0.006 -0.0155,0.009 -0.04885,0.0289 -0.08926,0.0701 -0.137977,0.0992 -0.01382,0.008 -0.02902,0.0147 -0.04341,0.0217 -0.01627,0.007 -0.03218,0.0152 -0.04858,0.0222 -0.0027,10e-4 -0.0017,10e-4 -0.0041,0.002 -0.02435,0.0148 -0.04869,0.0297 -0.07338,0.0439 -0.03982,0.0239 -0.08175,0.044 -0.121956,0.0672 -0.01748,0.0101 -0.03446,0.021 -0.05168,0.0315 -0.08195,0.051 -0.170535,0.0895 -0.255799,0.13436 -0.0019,0.001 -0.0052,0.004 -0.0057,0.005 -3.17e-4,-2.6e-4 -7.94e-4,-7.9e-4 -0.001,-0.001 -8.73e-4,5.3e-4 -0.0017,0.001 -0.0026,0.002 -0.0081,0.008 -0.0171,0.0144 -0.02584,0.0217 -0.02297,0.0186 -0.04609,0.0369 -0.06925,0.0553 -0.0068,0.006 -0.01516,0.0127 -0.02326,0.0191 -0.02085,0.0365 -0.04998,0.0685 -0.07855,0.0987 -0.05579,0.059 -0.112484,0.11685 -0.170015,0.17415 -0.0088,0.007 -0.02009,0.0148 -0.03204,0.0217 -0.0019,0.004 -0.06399,0.0624 -0.06976,0.0682 -0.01776,0.0184 -0.0355,0.0352 -0.05633,0.0501 -0.0051,0.003 -0.0103,0.007 -0.0155,0.0103 -0.0013,0.001 -0.0028,0.001 -0.0041,0.002 -0.0053,0.007 -0.01435,0.01 -0.02119,0.015 0.01099,0.007 0.01669,0.0266 0.02429,0.0672 0.0046,-0.003 0.009,-0.006 0.01343,-0.009 0.0031,-0.002 0.01022,-0.011 0.0088,-0.007 0.0034,-0.003 0.007,-0.006 0.01033,-0.0103 0.0035,-0.003 0.0065,-0.006 0.01034,-0.008 0.0047,-0.003 0.0096,-0.005 0.01447,-0.007 -0.0058,0.007 -0.01578,0.0135 -0.01344,0.0222 0.0063,0.0224 0.02479,0.0393 0.03721,0.0589 0.005,0.007 0.0078,0.0104 0.01034,0.0124 -0.0026,0.004 -0.0051,0.007 -0.0083,0.0103 -0.004,0.004 -0.0093,0.007 -0.01395,0.0103 -0.02671,0.0186 -0.05556,0.0326 -0.08113,0.0527 -0.02639,0.027 -0.03313,0.0369 -0.06408,0.061 -0.01295,0.0101 -0.02072,0.0166 -0.02946,0.0227 0.0033,0.0321 -0.0194,0.0351 -0.04547,0.0522 -0.02199,0.0322 -0.04732,0.0711 -0.06046,0.092 -0.0029,0.005 -0.04523,0.0709 -0.0708,0.11162 -0.0012,0.003 -0.0019,0.005 -0.0031,0.008 5.82e-4,5.3e-4 0.0015,8e-5 0.0021,0.002 0.0013,0.001 -9.52e-4,0.003 -0.001,0.005 0.02622,0.0105 0.03227,0.0246 0.01137,0.047 -0.0075,0.008 -0.0151,0.0159 -0.02274,0.0238 -0.0043,0.005 -0.0079,0.0111 -0.01499,0.0155 -0.0035,0.004 -0.0068,0.007 -0.01033,0.0108 -8.2e-4,0.002 -0.0017,0.005 -0.0026,0.007 -0.002,0.006 -0.0044,0.0116 -0.0062,0.0176 -3.17e-4,0.006 0.0027,0.0128 -0.0021,0.0191 -0.0064,0.0242 -0.0096,0.0487 -0.01912,0.0718 -0.0072,0.0175 -0.01858,0.0354 -0.02842,0.0532 0.0042,-0.003 0.0071,-0.006 0.0124,-0.009 0.006,-0.003 0.0085,-7.9e-4 0.01292,-0.006 0.0058,-0.008 0.0097,-0.0168 0.0155,-0.0248 0.0043,-0.006 0.01,-0.011 0.01499,-0.016 0.02087,-0.0185 0.02181,-0.0206 0.04599,-0.0367 0.0032,-0.002 0.007,-0.004 0.01034,-0.006 0.0012,-0.0134 9.26e-4,-0.0239 0.0098,-0.0377 0.01568,-0.024 0.01715,-0.0223 0.03669,-0.0367 0.05528,-0.0406 0.01045,-0.01 0.07906,-0.0553 v 0.002 c 0.08125,-0.0541 0.134963,0.0316 0.05374,0.0858 -0.06755,0.0455 -0.02122,0.0124 -0.07235,0.0501 -0.0027,0.002 -0.0055,0.004 -0.0083,0.006 -0.0039,0.0389 -3.97e-4,0.0354 -0.03721,0.0682 -0.0062,0.006 -0.01429,0.007 -0.02119,0.0124 -0.01277,0.008 -0.01796,0.0141 -0.02894,0.0243 -0.0027,0.003 -0.0061,0.006 -0.0083,0.009 -9.26e-4,0.001 -8.47e-4,0.003 -10e-4,0.005 -0.0065,0.008 -0.01214,0.0167 -0.01964,0.0238 -0.01412,0.0127 -0.03511,0.0226 -0.05064,0.0341 -0.0066,0.005 -0.0124,0.011 -0.0186,0.016 -0.03677,0.0344 -0.07293,0.0713 -0.114205,0.10026 -0.02049,0.0129 -0.04136,0.0245 -0.0615,0.0382 -0.0041,0.003 -0.0071,0.007 -0.01137,0.009 -0.0097,0.004 -0.01995,0.008 -0.02997,0.0124 -0.0037,0 -0.0076,2.2e-4 -0.01137,5.3e-4 0.0027,10e-4 -0.0051,0.002 -0.0078,0.003 -0.02011,0.004 -0.03865,0.005 -0.05891,0.004 -0.01575,-0.0159 -0.03243,-0.0301 -0.04703,-0.047 -0.003,-0.004 -0.0032,-0.009 -0.0047,-0.0129 -0.0038,-0.0106 -0.0082,-0.0207 -0.01137,-0.0315 -0.01105,-0.0378 -0.01285,-0.0567 -0.01085,-0.0951 0.0011,-0.007 0.0022,-0.0142 0.0031,-0.0222 0.0032,-0.0111 6.09e-4,-0.0224 0.0021,-0.0336 0.0042,-0.0358 0.0079,-0.0369 0.0155,-0.0754 0.0026,-0.0132 0.0041,-0.0265 0.0062,-0.0398 0.0091,-0.043 0.01947,-0.0872 0.03307,-0.12971 -3.18e-4,-7.9e-4 -8.2e-4,-0.002 -10e-4,-0.003 6.88e-4,2.6e-4 0.0014,7.9e-4 0.0021,0.001 0.006,-0.0184 0.01549,-0.035 0.02325,-0.0527 -0.0095,-0.005 -0.01893,-0.0107 -0.02842,-0.016 -0.02426,0.0232 -0.01545,0.0188 0.0026,0.0672 -0.01051,-0.005 -0.0218,-0.009 -0.03152,-0.016 -0.0089,-0.006 0.0038,-0.0212 0.0072,-0.0315 0.01998,-0.0599 0.05587,-0.11155 0.08837,-0.16485 0.01467,-0.0272 0.02708,-0.0525 0.04703,-0.077 0.006,-0.007 0.01375,-0.013 0.02015,-0.0202 0.02551,-0.0275 0.03372,-0.0393 0.05788,-0.0703 0.01539,-0.0193 0.05034,-0.0631 0.06511,-0.0827 0.01291,-0.0171 0.02425,-0.035 0.03772,-0.0517 0.04242,-0.0525 0.09274,-0.0974 0.145727,-0.13901 0.01434,-0.0142 0.02924,-0.0281 0.04289,-0.0429 0.0262,-0.0284 0.05481,-0.0692 0.0832,-0.0956 0.01341,-0.0125 0.02883,-0.0221 0.04393,-0.0325 0.0039,-0.003 0.0087,-0.004 0.01292,-0.006 0.0071,-0.004 0.01377,-0.008 0.02067,-0.0124 0.01559,-0.0103 0.04819,-0.0313 0.06098,-0.0424 0.01544,-0.0134 0.02933,-0.0285 0.04393,-0.0429 0.03274,-0.0322 0.06629,-0.0641 0.09715,-0.0982 0.0059,-0.007 0.01147,-0.0142 0.01757,-0.0212 0.004,-0.005 0.0087,-0.008 0.0124,-0.0129 0.0086,-0.0111 0.01559,-0.0235 0.02429,-0.0346 0.0298,-0.0382 0.07038,-0.0662 0.10697,-0.0972 0.02189,-0.0173 0.06196,-0.048 0.09612,-0.0739 0.0033,-0.004 0.0074,-0.008 0.01137,-0.0124 0.0075,-0.007 0.01517,-0.0147 0.02326,-0.0217 0.01322,-0.0111 0.02863,-0.0194 0.04237,-0.03 -0.0038,-0.0168 -0.0015,-0.0368 0.01912,-0.0589 0.0261,-0.028 0.05542,-0.0519 0.08372,-0.0775 0.006,-0.005 0.01137,-0.0115 0.01757,-0.0165 0.01789,-0.0148 0.03528,-0.0255 0.05478,-0.0382 0.08288,-0.0527 0.174274,-0.0898 0.264584,-0.12764 0.10993,-0.0576 -0.03236,0.0167 0.07183,-0.0367 0.01054,-0.005 0.02087,-0.0115 0.03152,-0.0165 0.02272,-0.0111 0.05749,-0.0255 0.0801,-0.0362 0.01165,-0.006 0.02311,-0.0116 0.03462,-0.0176 0.01559,-0.007 0.03115,-0.0142 0.04703,-0.0202 0.04529,-0.0175 0.08357,-0.0279 0.129191,-0.0444 0.04,-0.0146 0.04691,-0.0196 0.08475,-0.0362 0.01585,-0.007 0.03213,-0.0136 0.04806,-0.0207 0.01329,-0.006 0.02782,-0.009 0.04134,-0.0134 0.01974,-0.009 0.03813,-0.0172 0.05994,-0.0248 0.0075,-0.002 0.01575,-0.003 0.02325,-0.006 0.0083,-0.003 0.01577,-0.007 0.02377,-0.0103 0.05344,-0.0351 0.100805,-0.0818 0.162264,-0.10335 0.02577,-0.009 0.05102,-0.0205 0.077,-0.0295 0.0091,-0.003 0.01871,-0.004 0.02791,-0.007 0.01671,-0.005 0.03166,-0.0147 0.04806,-0.0207 0.0086,-0.003 0.01797,-0.004 0.02687,-0.006 0.05701,-0.01 0.03966,-0.008 0.09715,-0.0119 0.0118,0 0.06263,-0.002 0.07752,-0.006 0.0067,-0.002 0.05908,-0.0283 0.05943,-0.0284 v -0.002 c 0.01859,-0.009 0.03601,-0.0152 0.05168,-0.0181 h 5.29e-4 c 0.0046,-0.003 0.0055,-0.007 0.01137,-0.009 0.03017,-0.0125 0.06212,-0.0237 0.09353,-0.0362 0.01439,-0.0101 0.029,-0.0198 0.04858,-0.0274 0.012,-0.005 0.03115,-0.006 0.05013,-0.01 0.04084,-0.0122 0.08208,-0.0231 0.123506,-0.0331 0.106444,-0.0258 0.162315,-0.037 0.271818,-0.046 0.01119,-7.9e-4 0.0224,-2.4e-4 0.03359,-5.3e-4 0.0106,-0.002 0.02696,-0.007 0.03514,-0.008 0.02949,-0.006 0.05966,-0.007 0.0894,-0.0109 0.02406,-7.9e-4 0.04824,-0.003 0.07235,-0.004 0.0261,-0.004 0.05236,-0.008 0.07855,-0.0103 0.02523,-0.003 0.05019,-0.005 0.07545,-0.008 0.05047,-0.003 0.101876,-0.008 0.152446,-0.009 0.01757,-5.3e-4 0.03513,0 0.05271,0 h 0.160713 v -0.002 c 0.04744,0 0.06641,0.0263 0.06201,0.0506 0.03303,-0.006 0.06588,-0.0103 0.09974,-0.009 0.0073,-0.001 0.10187,-0.008 0.11007,-0.008 0.01149,0 0.02313,0.001 0.03462,0.001 0.04005,0 0.07971,-0.005 0.119372,-0.0108 0.06732,-0.004 0.134528,-0.009 0.201538,-0.0176 0.06072,-0.008 0.04638,-0.008 0.09715,-0.0124 0.007,-5.3e-4 0.01419,-2.7e-4 0.02119,-5.3e-4 0.09573,-0.0156 0.192366,-0.0237 0.289388,-0.0217 0.09824,-0.008 -0.04806,0.004 0.05788,-0.006 0.0095,-0.001 0.01892,-2.6e-4 0.02842,-0.002 0.0438,-0.006 0.04872,-0.0101 0.0956,-0.0181 0.01609,-0.003 0.03239,-0.004 0.04858,-0.006 0.07338,0 0.146852,-0.002 0.220141,0.003 0.03296,0 0.03161,-2.6e-4 0.07286,-0.003 0.01802,-0.002 0.04009,-0.017 0.05374,-0.005 0.01151,0.01 0.0186,0.0233 0.02532,0.0372 v -0.0362 c -1.7e-4,-0.001 -1.56e-4,-0.002 -5.29e-4,-0.003 h 5.29e-4 c 0.0013,-2.5e-4 0.0038,-0.002 0.0036,-10e-4 0.08032,-0.001 0.16001,-0.0175 0.240295,-0.0109 0.0093,0.004 0.04666,-0.002 0.04806,-0.002 0.04416,-0.004 0.08824,-0.0147 0.132808,-0.0108 0.01992,0.002 0.03995,0.004 0.05995,0.003 0.0278,-0.001 0.03127,-0.002 0.05891,-0.007 0.01188,-0.002 0.02379,-0.004 0.03566,-0.006 0.03073,7e-5 0.06127,-5.3e-4 0.09198,-5.3e-4 0.07484,0 0.149476,7.9e-4 0.224277,-0.003 z m -0.892969,0.061 c -1.82e-4,0.007 -1.32e-4,0.0144 -5.29e-4,0.0217 0.0024,0.005 0.0047,0.009 0.0067,0.015 -0.0019,-0.0121 -0.0045,-0.0245 -0.0062,-0.0367 z m 4.595069,0.0465 c 0.0038,-0.004 0.0077,-5.3e-4 0.01138,0.0119 0.04359,0.009 0.08769,0.0158 0.131773,0.0222 0.04222,0.006 0.08426,0.012 0.126609,0.0171 0.120779,0.0141 0.242112,0.0224 0.362767,0.0377 v -0.002 c 0.09684,0.0122 0.09199,0.11245 -0.0052,0.10025 -0.122282,-0.0154 -0.245539,-0.0234 -0.367935,-0.0377 -0.04353,-0.005 -0.08683,-0.0121 -0.130225,-0.0181 -0.03893,-0.005 -0.0772,-0.0124 -0.115755,-0.0196 -0.02635,0.0151 -0.06722,7e-5 -0.09974,5.3e-4 -0.02574,1.8e-4 -0.11375,-0.005 -0.159681,-0.009 0.0013,-8e-5 -0.0013,-0.0242 -0.0026,-0.0992 -0.02262,0.004 -0.01188,0.002 0.05684,0.006 0.03454,0.002 0.0693,0.003 0.10387,0.005 0.02283,10e-4 0.05319,-0.0126 0.06873,0.003 0.0048,0.005 0.0054,0.0135 0.0073,0.0227 0.0039,-0.0226 0.008,-0.0362 0.01188,-0.0408 z m -0.364318,0.004 c 0.0046,0.0101 0.0089,0.0203 0.01085,0.0284 0.0052,0.006 0.0105,0.0116 0.01394,0.0176 5.29e-4,-0.006 0.0042,-0.0154 0.0036,-0.0176 -0.0029,-0.0108 -0.01355,-0.0189 -0.02016,-0.0279 -0.0028,-5.3e-4 -0.0055,2.6e-4 -0.0083,-5.3e-4 z m 0.0987,0.046 c 0.01297,0.0279 0.0177,0.0518 0.01913,0.0532 -0.004,-5.3e-4 -0.01074,4e-5 -0.01394,-5.3e-4 -0.0072,-10e-4 -0.01368,-0.004 -0.02066,-0.006 0.01945,-0.0585 0.01185,-0.0359 0.01551,-0.0465 z m 0.265102,0.061 c 0.0011,-1.5e-4 0.0011,0.002 0.0026,0.001 l 5.29e-4,-5.3e-4 c -0.0011,-2e-4 -0.0021,-1.6e-4 -0.0031,-5.3e-4 z m -7.373711,0.11059 c -0.01323,0.005 -0.02676,0.01 -0.04031,0.0155 0.0025,0.002 0.0047,0.003 0.0072,0.005 0.0047,-5.3e-4 0.0131,-10e-4 0.01499,-0.002 v 5.2e-4 c 0.005,-7.9e-4 0.01011,-0.002 0.01499,-0.003 0.0025,-7.9e-4 0.0048,-0.002 0.0072,-0.003 -0.0012,-0.005 -0.0029,-0.009 -0.0041,-0.0129 z m -1.625224,0.65319 c -0.0038,0.002 -0.0076,0.004 -0.01137,0.007 0.0038,-0.002 0.0075,-0.004 0.01137,-0.006 z m -0.01137,0.007 c -0.01369,0.007 -0.02721,0.0144 -0.04083,0.0217 0.0035,-0.001 0.0068,-0.003 0.01034,-0.004 0.01041,-0.006 0.02044,-0.0121 0.03049,-0.0181 z m -0.745691,0.88935 c 0.0031,5.3e-4 0.0079,0.006 0.01499,0.0155 0.01422,0.0199 0.03589,0.0364 0.04289,0.0599 0.0074,0.0248 -0.02971,0.04 -0.04651,0.0517 -7.14e-4,10e-4 -0.0015,0.003 -0.0031,0.002 v -5.3e-4 -5.2e-4 c 6.88e-4,-5.3e-4 0.0023,-0.001 0.0031,-0.002 3.97e-4,-7.9e-4 1.58e-4,-0.002 5.29e-4,-0.003 3.18e-4,-2.6e-4 8.47e-4,-7.9e-4 0.001,-0.001 v -5.2e-4 h -5.29e-4 v -0.001 c -0.0018,-0.0316 -0.02731,-0.12195 -0.0124,-0.11886 z m -0.256832,0.73897 c -0.0023,0.002 -0.0046,0.003 -0.0067,0.005 -0.0013,0.001 0.0035,-0.002 0.0052,-0.002 0.0018,-2.6e-4 0.0015,-0.003 0.0016,-0.003 z m -0.426847,0.20981 c -0.0049,0.007 -0.0096,0.0137 -0.0155,0.0248 0.0014,0.004 0.0022,0.008 0.0036,0.0124 0.0093,-0.002 0.0186,-0.003 0.02791,-0.005 0.0063,-0.004 0.01274,-0.008 0.01912,-0.0119 -0.01131,-0.007 -0.02336,-0.014 -0.03514,-0.0207 z m -0.02481,0.0388 c -2.55e-4,5.3e-4 -1.87e-4,5.3e-4 -5.29e-4,0.001 6.88e-4,-1e-4 0.0014,-1.6e-4 0.0021,-5.2e-4 -5.03e-4,-2.2e-4 -0.0011,-1.6e-4 -0.0016,-5.3e-4 z" />
    </clipPath>
  </defs>
  <sodipodi:namedview
     inkscape:current-layer="svg5416"
     inkscape:window-maximized="0"
     inkscape:window-y="0"
     inkscape:window-x="1440"
     inkscape:cy="150"
     inkscape:cx="150"
     inkscape:zoom="2.23"
     showgrid="false"
     id="namedview5418"
     inkscape:window-height="1080"
     inkscape:window-width="1920"
     inkscape:pageshadow="2"
     inkscape:pageopacity="0"
     guidetolerance="10"
     gridtolerance="10"
     objecttolerance="10"
     borderopacity="1"
     bordercolor="#666666"
     pagecolor="#ffffff" />
  <path
     d="m 83.37681,13.820744 c -4.89999,1.7 -14.4,9.999998 -16.09999,13.999998 -0.8,2.000001 -2.6,3.400002 -6.3,4.800002 -3.30001,1.299999 -6.2,3.399999 -8.20001,5.799999 l -3.09999,3.9 v 14.099998 14 l 21.80001,0.100007 c 20.39998,0.100006 21.99999,0.199984 23.29999,1.999998 1.09999,1.600001 1.44601,6.60007 1.4,24.299996 -0.0632,24.282108 0.55962,24.473698 -1.68443,24.426228 -4.35753,-0.0921 1.95668,-0.0632 -7.40987,-0.0419 -0.2007,-1.93116 -0.9057,-4.3844 -0.9057,-21.18438 V 80.120626 H 64.27683 c -26.1,0 -25.10002,0.500003 -25.10002,-11.999998 l -0.10007,-7.499999 -3.00002,3.499999 c -6.99998,8 -10.09998,19.300006 -7.99999,28.999996 1.10001,5.100008 1.10001,5.19999 -2.3,9.099996 -7.2,8.4 -8.79999,24.80001 -3.5,35.4 l 2.49999,5 10.8,0.29999 10.70002,0.30002 -0.30002,-7.80001 -0.29999,-7.80001 -7.00001,-0.29999 c -9.4042,-0.3952 -9.59519,0.12813 -9.49998,-4.6 0.0879,-4.36559 0.091,-4.60001 9.69999,-4.60001 h 7.30001 v -11.29998 c 0,-7.50001 -0.21685,-12.705244 0.91437,-12.690416 1.78563,0.02265 24.43351,-0.271845 28.18562,-0.0085 0.38143,10.906686 -0.35632,4.214347 0.13833,7.380806 0.15704,1.48564 1.94139,1.4048 -9.9383,1.21919 l -9.80002,0.10006 -0.29999,23.8 c -0.10006,15.49998 -0.60001,24.3 -1.3,25.2 -0.79999,0.9 -4.20001,1.3 -12.09999,1.3 H 30.97683 l 0.59998,2.7 c 0.9,3.39998 5.9,10.59998 9.20001,13.2 2.39998,1.8 4,2.1 14,2.1 h 11.39999 v -6.80001 c 0,-3.70001 0.5,-7.40001 1,-8.20001 0.8,-1.19998 4.4,-1.59998 20.00001,-1.8 l 18.99999,-0.29998 v -5.50001 -5.4 H 87.17682 c -17.70001,0 -19,-0.10006 -20.00001,-1.90001 -1.4,-2.79997 -1.3,-24.39997 0.19984,-25.89999 1.60002,-1.60001 5.3,-1.50001 6.6,0.10007 0.6,0.6 1.20001,5 1.4,9.69999 l 0.30002,8.50002 15.3,0.29999 15.19999,0.29999 V 91.120726 48.120742 h -15.90001 -15.8 l 0.19559,3.80448 c -0.59998,5.3 0.58207,5.761208 -7.48656,5.413448 -3.19702,-0.137792 -3.00894,-0.01786 -3.00894,-7.717929 0,-9.599999 0.69998,-10.499999 8.49999,-10.499999 h 6.49999 v -6.4 c 0,-6.799998 -1.03431,-8.20897 2.46569,-8.20897 7.62088,0 6.53431,0.808971 6.53431,7.80897 v 6.8 h 9 9 v -9.799999 c 0,-10.7 -0.9,-13.1 -5.99998,-15.7 -3.6,-1.9 -11.2,-1.8 -16.80001,0.200012 z"
     id="path78-4"
     style="fill:#ff0000;fill-opacity:1;fill-rule:nonzero;stroke-width:0.0999997"
     sodipodi:nodetypes="cccccccccsscscscccccsccccccsscssccccccscccscscccccscsccccccccccssscssscccscc" />
  <path
     d="m 75.37682,170.02073 c 0,9.4 -0.29999,9.79999 -7.6,10.60002 -3.40001,0.4 -9.1,0.49997 -12.49999,0.29998 l -6.3,-0.39999 0.59998,3.49999 c 0.30002,1.90001 1.8,5.10002 3.40001,6.99999 l 2.89999,3.6 13,0.30002 13.1,0.29999 0.4,-7.1 c 0.39999,-8.39998 2.19999,-11.00001 6.50001,-9.39999 l 2.8,0.9 0.3,10.99998 c 0.39999,14.00001 -0.10007,14.50001 -12.39999,14.50001 -4.60001,0 -8.40002,0.4 -8.40002,0.79999 0,1.8 6.8,7.2 10.90001,8.70001 4.89999,1.7 13.69998,2.00002 17.49999,0.5 1.40001,-0.5 3.5,-2.4 4.60001,-4.2 1.8,-3 1.99999,-5.09998 1.99999,-25.1 v -21.7 h -15.39999 -15.3 z"
     id="path82-0"
     style="fill:#ff0000;fill-opacity:0.905882;stroke-width:0.0999997" />
  <path
     style="opacity:1;fill:#ff0000;fill-opacity:1;stroke:#012d00;stroke-width:0;stroke-miterlimit:4;stroke-dasharray:none;stroke-dashoffset:0;stroke-opacity:1"
     d="m 13.902021,143.0654 c -0.185459,-2.19069 0.393393,-2.42347 1.082694,-2.55553 0.162581,-0.0311 0.694669,-0.13009 1.182417,-0.21986 1.138145,-0.20947 1.487805,-0.47878 2.244643,-1.72879 0.466667,-0.77076 0.757391,-1.08469 1.182418,-1.27683 0.722664,-0.32668 1.756161,-0.34627 1.875398,-0.0355 0.133446,0.34775 -0.339711,1.42594 -1.586796,3.61587 -1.721712,3.02339 -1.931516,4.01661 -0.955124,4.52152 0.977521,0.5055 2.603836,-0.13645 4.282066,-1.69023 1.651728,-1.52925 1.768333,-1.81443 1.912276,-4.67692 0.133755,-2.65986 0.289351,-3.24932 0.989256,-3.7477 0.24438,-0.17401 1.434936,-0.74067 2.645678,-1.25922 3.630998,-1.55516 3.762366,-2.12704 3.762366,-2.73476 0,-0.43604 0.05992,-0.68139 -1.003475,-1.24145 -0.778515,-0.41003 -0.722804,-0.49555 -3.277854,-0.30678 l -1.769568,0.13073 -1.416718,0.47296 c -0.408228,0.13629 -0.839943,0.65907 -1.652857,1.28597 -1.469324,1.13311 -3.435586,1.11513 -3.647501,1.11618 -0.213726,0.001 -0.367911,-0.40824 0.137335,-1.46252 1.461278,-3.04917 2.678358,-3.46684 8.398247,-3.71999 4.246367,-0.18793 5.60138,-0.39845 6.571491,-1.02097 2.20894,-1.41747 3.222598,-5.12453 2.183423,-7.98499 -0.229235,-0.63099 -0.537588,-1.04635 -1.37791,-1.85607 -1.218443,-1.17407 -1.253395,-1.34605 -0.447201,-2.20052 0.387879,-0.4111 0.602715,-0.50438 1.365244,-0.5928 1.002538,-0.11625 1.747065,-0.48843 1.862855,-0.93122 0.115326,-0.441 -0.230309,-1.28236 -0.880671,-2.14376 -1.022207,-1.3539 -1.296771,-2.10754 -0.88945,-2.44144 0.101616,-0.0833 0.460587,-0.22519 0.797716,-0.31531 0.992312,-0.26526 1.043594,-0.78375 0.200303,-2.02518 -0.324972,-0.47839 -0.591016,-0.91388 -0.591209,-0.96774 -1.48e-4,-0.0539 0.322824,-0.48618 0.717815,-0.96071 0.760733,-0.91392 1.203264,-1.66215 1.203264,-2.03446 0,-0.1241 -0.167582,-0.33544 -0.372404,-0.46964 -1.147646,-0.75197 -4.189187,0.84828 -4.671401,2.45777 -1.945309,3.37422 1.293113,5.76728 0.690458,7.55065 -0.567868,1.45483 -5.028804,1.63008 -4.613204,3.12216 0.786673,2.82429 3.712291,5.86281 2.704782,7.53591 -0.878739,1.04432 -1.555183,2.70458 -5.866013,2.91092 -3.131947,0.14991 -4.734325,0.45422 -5.172617,0.98233 -0.10491,0.12641 -0.667679,0.55954 -1.250599,0.96251 -1.134541,0.7843 -1.861322,1.65685 -2.231731,2.67933 -0.12659,0.34945 -0.321604,1.61135 -0.433361,2.80423 -0.222223,2.37196 -0.524912,3.3061 -1.23027,3.79678 -3.661461,2.69886 -2.157138,-2.34412 -2.246231,-4.79041 -0.05861,-1.4886 -0.033,-1.70024 0.289626,-2.39346 v 0 l 0.04461,-2.79153 c 0.03239,-2.02704 -0.305628,-2.04193 -0.03079,-2.85351 0.318781,-1.36036 2.086626,2.93436 2.740924,1.69982 1.600504,-5.0104 -5.008175,-7.29519 -1.030001,-11.50734 0.540573,-0.54058 1.016839,-0.64216 1.633008,-0.34833 1.053685,0.50246 1.239679,1.27542 0.924338,3.84141 -0.145613,1.18488 -0.134212,1.47911 0.08701,2.24535 0.776647,2.69004 1.726173,3.11114 4.506325,3.73123 0.907073,0.20232 1.667382,0.27517 3.674202,-0.77517 0.790778,-2.15967 -0.07432,-2.58946 -0.828754,-2.54958 -1.375169,0.0677 -1.785191,0.0388 -2.190588,-0.15451 -2.600112,-1.57087 0.0884,-2.42648 0.886962,-2.60428 1.356344,-0.14176 1.756648,-0.44567 1.964852,-1.49168 0.367569,-1.84667 -0.475463,-2.75442 -1.771469,-3.24541 -0.749233,0.0105 -3.618797,-1.55849 -3.739108,-1.468 -2.134301,-0.44382 -2.027378,-1.6604 -0.284838,-2.39194 0.271476,-0.11343 0.869323,-0.21851 1.328544,-0.23352 0.771658,-0.0252 0.87643,0.0124 1.382083,0.49678 0.66358,0.63559 1.35499,1.00003 1.89725,1.00003 4.042565,1.03204 4.868556,-0.98493 3.669796,-2.51629 -0.362677,-0.24953 -0.76051,-0.64919 -0.884073,-0.88813 -0.123561,-0.23894 -0.430088,-0.66842 -0.681167,-0.95438 -0.367176,-0.41819 -0.436502,-0.59935 -0.354272,-0.92576 l 0.102235,-0.40583 0.252304,0.31086 c 0.564682,0.69572 1.239824,0.82031 1.848911,0.34121 0.548725,-0.43163 0.846362,-1.07562 0.884907,-1.91463 0.0389,-0.84676 0.311959,-1.20474 1.301869,-1.70673 0.851953,-0.43204 1.155755,-0.84571 1.155755,-1.573736 0,-0.473739 -0.07435,-0.605827 -0.480356,-0.853374 -0.621948,-0.379208 -1.300726,-0.373025 -1.795748,0.01635 -0.574702,0.452056 -1.037312,0.277323 -1.573689,-0.5944 -0.496435,-0.806807 -0.555168,-1.342171 -1.608345,-1.793614 -0.509455,-0.236131 -1.833,-0.248126 -1.833,-0.248126 -0.480948,1.369537 -0.553926,1.010491 -0.377362,2.465437 0.13266,1.09465 0.562739,1.668233 -1.002118,2.246443 -3.777278,1.3957 -4.614431,1.78293 -6.84475,4.62311 -0.478766,0.60969 -1.232079,1.05437 -1.363998,1.24522 l -0.239852,0.34699 -0.165929,-0.31004 c -0.09126,-0.17052 -0.296613,-0.31004 -0.456334,-0.31004 -0.767575,0 -0.06767,-1.80517 1.336619,-3.44738 0.948351,-1.10903 1.725327,-1.75229 2.82357,-2.33764 1.651725,-0.880362 2.643918,-1.976542 2.643918,-2.92102 0,-1.624734 -1.678718,-2.088962 -3.791958,-1.048617 -0.838439,0.412763 -1.684232,1.160772 -1.86362,1.648161 -0.05977,0.162398 -0.11594,0.158231 -0.304876,-0.02262 -0.148188,-0.141849 -0.243605,-0.529574 -0.264917,-1.076471 -0.03149,-0.807992 -0.0056,-0.878424 0.472538,-1.287012 0.497377,-0.425001 1.374256,-1.132504 3.205316,-1.62896 0.570801,-0.154763 1.080907,-0.04564 1.330219,-0.295 0.254767,-0.254821 0.705152,-0.473501 1.217298,-0.591051 1.501756,-0.344683 2.357032,-0.729337 2.450599,-1.102137 0.103492,-0.412351 -0.25396,-1.155682 -0.709014,-1.474415 -0.513559,-0.359709 -1.070576,-0.284837 -3.781795,0.508336 -2.42289,0.708824 -3.813768,0.912495 -4.26615,0.624711 -0.130035,-0.08272 -0.935956,-1.956192 -0.935956,-2.175756 0,-0.0208 0.199536,-0.07774 0.443408,-0.126511 0.606703,-0.12134 0.605107,-0.653378 -0.0032,-1.056785 -0.61154,-0.405575 -0.780545,-1.136817 -0.699855,-3.028101 0.06135,-1.437875 0.118277,-1.680554 0.763262,-3.253499 1.101521,-2.686317 2.006513,-4.323826 2.526297,-4.57114 0.695992,-0.33115 2.584347,-0.391494 3.146944,-0.100563 1.018484,0.526679 1.025467,1.323316 0.02806,3.201223 -1.665372,3.135532 -2.082265,4.076909 -2.166376,4.891862 -0.09716,0.94134 0.127053,1.49954 0.844939,2.103599 0.529949,0.445924 0.834329,0.47276 1.87086,0.164942 0.912548,-0.270997 1.026478,-0.400297 1.309233,-1.485863 0.320283,-1.229654 0.87907,-2.167745 1.833562,-3.078176 0.912384,-0.870265 1.795981,-1.37364 3.247893,-1.850276 1.767395,-0.580208 5.799936,-0.363178 7.880133,0.424103 1.51477,0.765732 4.80508,3.969665 4.150266,5.469705 -0.472983,0.441608 -1.897993,1.282099 -2.574611,0.999389 -0.41909,-0.175106 -0.97436,-1.01142 -1.222837,-1.49128 -0.834826,-1.612215 -1.603856,-1.673085 -2.593376,-2.08878 -1.179865,-0.495659 -3.153393,-0.400545 -4.894414,0.525676 -0.896019,0.476681 -1.331216,0.876242 -1.657721,1.465181 -0.463149,0.808333 -0.393473,1.215872 -0.115819,1.721188 1.024542,1.162495 2.884439,3.06236 3.910857,3.058662 0.452401,-0.02845 0.960319,-0.306231 1.598653,-0.629292 0.649536,-0.32873 1.758572,-0.721606 2.559341,-0.906648 1.001762,-0.312489 1.300298,-0.434764 2.012239,0.248192 0.716393,0.687226 1.299366,1.848162 1.301358,2.591533 l 0.0016,0.538774 -2.512854,0.848249 c -2.303934,0.777724 -2.538301,0.88942 -2.818916,1.343464 -0.563639,0.911987 -0.06697,1.321057 1.710613,1.408885 0.69981,0.03458 0.942113,-0.07481 4.567695,-2.062163 2.738388,-1.501055 3.967404,-2.098677 4.31591,-2.098677 1.008565,0 1.976245,0.312071 2.500326,0.806344 0.463994,0.4376 0.513927,0.562438 0.512104,1.28034 -0.0027,1.057492 -0.124529,1.460571 -0.441513,1.460571 -0.143688,0 -0.808488,0.273902 -1.477333,0.608666 -1.316501,0.658932 -2.860421,2.031728 -3.276047,2.912937 -0.221223,0.46904 -0.212646,0.54043 0.186486,1.55192 0.455531,1.15442 0.531366,1.83684 0.243801,2.19387 -0.101614,0.12616 -0.500682,0.44136 -0.886815,0.70046 -0.855096,0.57376 -0.889106,0.87912 -0.184753,1.65876 0.284519,0.31492 0.517308,0.70691 0.517308,0.87108 0,0.16416 -0.271942,0.5935 -0.604314,0.95408 -0.698288,0.75755 -0.701929,0.6452 0.104669,3.22966 0.497581,1.59431 0.604475,2.24675 0.383456,2.34046 -0.06391,0.0271 -0.267968,0.26543 -0.453472,0.52963 -0.185505,0.26419 -0.427485,0.48036 -0.537734,0.48036 -0.158509,0 -0.140941,0.16931 0.08397,0.80922 0.419754,1.19427 0.363133,2.35908 -0.2326,4.78526 -0.284361,1.15809 -0.6169,3.00647 -0.738976,4.10751 -0.448945,4.04924 -0.730393,4.68611 -4.177853,9.45384 -4.312129,5.96355 -5.190622,7.2686 -5.866582,8.71511 -1.528503,3.27091 -3.547065,5.19284 -7.370921,7.01809 -2.264842,1.08108 -4.788744,1.86433 -6.362015,1.97434 -3.564682,0.2969 -1.512353,-5.58083 -1.693079,-8.35393 z"
     id="path3468"
     clip-path="url(#clipPath4451)"
     sodipodi:nodetypes="ccssssssssscssscsscsssssssssssscsscccscsssssccscscccssssccccscccccccssscsssssssscccssscssssssssscssssssssscsssssssssssccsssscccsccccssssssssssssssssssssssssssccc"
     transform="matrix(3.1434344,0,0,2.9491636,71.0989,-228.36444)" />
  <path
     style="opacity:1;fill:#ff0000;fill-opacity:1;stroke:#012d00;stroke-width:0.030168;stroke-miterlimit:4;stroke-dasharray:none;stroke-dashoffset:0;stroke-opacity:1"
     d="m 136.97224,158.22468 c -0.0869,-0.16242 -0.0837,-0.35878 0.0113,-0.70262 0.0727,-0.26249 0.1317,-0.55321 0.13125,-0.64596 -0.002,-0.25313 0.8173,-1.27927 1.45496,-1.82395 0.94271,-0.80524 1.92378,-1.67834 2.31679,-2.06184 0.20512,-0.20013 0.78692,-0.54306 1.29286,-0.76201 1.8987,-0.82168 3.11481,-1.31054 3.26012,-1.31054 0.0825,0 0.50277,-0.12331 0.93384,-0.27383 0.99104,-0.34622 2.50856,-0.55083 3.62118,-0.48821 0.47402,0.0255 1.69657,-0.017 2.71679,-0.0981 2.19335,-0.1732 2.81054,-0.18538 2.81054,-0.0556 0,0.0527 -0.61973,0.12813 -1.37717,0.16725 -2.44524,0.12642 -3.93441,0.28672 -5.27767,0.56783 -0.72315,0.15137 -1.41578,0.2486 -1.53916,0.21657 -0.20548,-0.0536 -1.60408,0.33758 -1.86772,0.52256 -0.0618,0.0434 -0.39751,0.14032 -0.74595,0.21515 -0.34844,0.0748 -0.93023,0.31502 -1.29285,0.5336 -0.36263,0.21855 -1.13992,0.64766 -1.72733,0.95349 -1.28262,0.66779 -2.88222,2.07485 -2.57737,2.26711 0.14891,0.0938 0.0966,0.19163 -0.33765,0.63035 -0.43989,0.44447 -1.03922,1.5872 -0.83245,1.5872 0.0352,0 0.24049,-0.15477 0.45611,-0.34421 0.21561,-0.18935 0.41789,-0.3183 0.44952,-0.28666 0.10653,0.10658 -1.43608,1.41783 -1.66792,1.41783 -0.0504,0 -0.14588,-0.10149 -0.21218,-0.22536 z m 0.44993,-0.11196 c 0,-0.0618 -0.0476,-0.11254 -0.10579,-0.11254 -0.0582,0 -0.13705,0.0508 -0.17526,0.11254 -0.0382,0.0618 0.009,0.11253 0.10578,0.11253 0.0964,0 0.17527,-0.0507 0.17527,-0.11253 z"
     id="path4573" />
  <path
     style="opacity:1;fill:#ff0000;fill-opacity:1;stroke:#012d00;stroke-width:0.030168;stroke-miterlimit:4;stroke-dasharray:none;stroke-dashoffset:0;stroke-opacity:1"
     d="m 156.84298,150.05634 c 0.0774,-0.0312 0.20381,-0.0312 0.28092,0 0.0774,0.0312 0.0142,0.0567 -0.1406,0.0567 -0.15449,0 -0.21782,-0.0255 -0.1406,-0.0567 z"
     id="path4575" />
  <path
     style="opacity:1;fill:#ff0000;fill-opacity:1;stroke:#012d00;stroke-width:0.00718296;stroke-miterlimit:4;stroke-dasharray:none;stroke-dashoffset:0;stroke-opacity:1"
     d="m 167.27959,150.2877 c -0.10318,-0.0113 -0.38013,-0.0363 -0.61566,-0.0541 -0.23556,-0.017 -0.50658,-0.0439 -0.60228,-0.0578 -0.0958,-0.0142 -0.50524,-0.036 -0.91008,-0.0496 -0.97753,-0.0326 -1.90557,-0.0762 -2.23509,-0.10545 -0.14712,-0.0142 -0.58088,-0.017 -0.96364,-0.006 -0.98433,0.0226 -2.18156,0.0142 -2.18156,-0.017 0,-0.0113 0.0142,-0.0346 0.032,-0.0521 0.0675,-0.0675 -0.0425,-0.0323 -0.11452,0.0368 l -0.072,0.0688 -0.61214,-0.0255 c -0.3367,-0.0142 -0.61934,-0.0226 -0.62807,-0.017 -0.008,0.006 -0.34601,0.0113 -0.7495,0.0113 -0.40345,0.002 -0.79982,0.0142 -0.88079,0.0255 -0.081,0.0113 -0.36498,0.0301 -0.63113,0.0394 l -0.48391,0.017 -0.003,-0.1355 c -0.002,-0.0884 0.008,-0.1355 0.0289,-0.13606 0.0175,-3.1e-4 0.2849,-0.0142 0.59406,-0.029 0.30917,-0.0142 0.69462,-0.0346 0.85656,-0.0428 0.64471,-0.032 5.90679,0.002 6.61156,0.0428 0.29444,0.017 0.87262,0.0417 1.28483,0.055 0.41225,0.0142 0.93621,0.0436 1.16439,0.0675 0.22819,0.0226 0.5474,0.0561 0.70938,0.0714 0.40296,0.0383 1.8428,0.055 1.92885,0.0226 0.0621,-0.0226 0.0717,-0.017 0.10716,0.0677 0.0226,0.0516 0.051,0.0936 0.0655,0.0936 0.0368,0 0.0328,-0.0899 -0.006,-0.12841 -0.0255,-0.0255 -0.017,-0.032 0.0354,-0.032 0.0371,0 0.0947,0.0289 0.12785,0.0641 0.0575,0.0612 0.0584,0.068 0.017,0.14712 -0.0337,0.0652 -0.0604,0.0831 -0.12416,0.0831 -0.0553,0 -0.0751,-0.0113 -0.0618,-0.0314 0.0142,-0.0226 0.006,-0.0255 -0.032,-0.008 -0.0683,0.0298 -1.41919,0.0419 -1.65727,0.0142 z"
     id="path4579" />
  <path
     style="opacity:1;fill:#ff0000;fill-opacity:1;stroke:#012d00;stroke-width:0.00718296;stroke-miterlimit:4;stroke-dasharray:none;stroke-dashoffset:0;stroke-opacity:1"
     d="m 171.99066,150.56797 c -0.0142,-0.006 -0.24974,-0.0306 -0.52195,-0.0545 -0.27241,-0.0226 -0.66988,-0.0675 -0.88335,-0.0961 -0.21346,-0.0289 -0.56277,-0.0584 -0.77625,-0.0655 -0.52367,-0.017 -0.50859,-0.0142 -0.50859,-0.15959 v -0.12019 l 0.33545,0.003 c 0.27638,0.003 0.33997,0.0113 0.36094,0.047 0.0226,0.0371 0.0283,0.0349 0.0422,-0.017 0.0113,-0.0451 0.0283,-0.0539 0.0607,-0.0366 0.0539,0.0284 0.75702,0.12415 1.19489,0.1627 0.82857,0.0734 0.95026,0.10036 0.95026,0.21175 0,0.0284 -0.017,0.0629 -0.036,0.0797 -0.04,0.0332 -0.1766,0.0607 -0.21826,0.0439 z"
     id="path4581" />
  <path
     style="opacity:1;fill:#ff0000;fill-opacity:1;stroke:#012d00;stroke-width:0.20126;stroke-miterlimit:4;stroke-dasharray:none;stroke-dashoffset:0;stroke-opacity:1"
     id="path4609"
     d="m 144.44989,151.61752 c 0.0711,-0.0255 0.14281,-0.0491 0.21334,-0.076 0.0676,-0.0255 0.58058,-0.23385 0.63156,-0.2537 0.26796,-0.1046 0.5307,-0.19814 0.80594,-0.28035 0.13017,-0.0303 0.16056,-0.0226 0.0885,-0.032 0.0133,0.006 0.0958,-0.18086 0.0827,-0.18681 v 0 c -0.18448,-0.0341 -0.0891,-0.0283 -0.2863,-0.0142 -0.0776,0.017 -0.15599,0.0289 -0.23267,0.0487 -0.50611,0.13238 -0.98943,0.35267 -1.43528,0.62403 -0.0122,0.008 0.12024,0.17971 0.13229,0.17036 z" />
  <path
     style="opacity:1;fill:#ff0000;fill-opacity:1;stroke:#012d00;stroke-width:0;stroke-miterlimit:4;stroke-dasharray:none;stroke-dashoffset:0;stroke-opacity:1"
     id="path4611"
     d="m 146.16899,151.03415 c -0.0524,0.006 -0.10528,0.008 -0.15705,0.0199 -0.20974,0.0411 -0.50233,0.12841 -0.68923,0.19389 -0.34065,0.11934 -0.69878,0.271 -1.0242,0.42642 -0.14289,0.0683 -0.28164,0.14485 -0.42247,0.21713 -0.0196,0.0142 0.17929,0.28874 0.19871,0.27468 v 0 c 0.59802,-0.26532 0.29227,-0.12785 0.93499,-0.42114 0.17923,-0.0816 0.65996,-0.30368 0.8653,-0.38903 0.14235,-0.0593 0.23637,-0.0884 0.37378,-0.13408 0.0134,-0.006 -0.0666,-0.19332 -0.0798,-0.18765 z" />
  <path
     style="opacity:1;fill:#ff0000;fill-opacity:1;stroke:#012d00;stroke-width:0;stroke-miterlimit:4;stroke-dasharray:none;stroke-dashoffset:0;stroke-opacity:1"
     id="path4613"
     d="m 146.29772,150.77977 c -0.81397,0.17631 -0.38109,0.0694 -1.29582,0.33148 -0.0264,0.0142 0.18434,0.38608 0.21059,0.3712 v 0 c 0.8686,-0.31941 0.4639,-0.16611 1.21523,-0.45717 0.0173,-0.008 -0.11265,-0.25455 -0.13,-0.24549 z" />
  <path
     style="opacity:1;fill:#ff0000;fill-opacity:1;stroke:#012d00;stroke-width:0;stroke-miterlimit:4;stroke-dasharray:none;stroke-dashoffset:0;stroke-opacity:1"
     id="path4615"
     d="m 144.86393,151.44745 c 0.17138,-0.0371 0.34318,-0.0726 0.51413,-0.1117 0.46323,-0.10601 1.09243,-0.25908 1.54631,-0.37932 0.24573,-0.0652 0.49071,-0.13323 0.73474,-0.20439 0.16954,-0.0496 0.35511,-0.0658 0.50582,-0.15789 0.0435,-0.0255 -0.0915,-0.0451 -0.13731,-0.0674 -0.87594,0.0346 -0.31728,-0.0315 -1.40375,0.27156 -0.22918,0.0637 -0.45841,0.12841 -0.69023,0.1817 -0.0746,0.017 -0.15103,0.0283 -0.22745,0.0301 -0.015,5.9e-4 0.0269,-0.0142 0.0393,-0.0226 0.045,-0.0323 0.0883,-0.0669 0.13244,-0.10035 -0.0116,-0.0647 0.0226,-0.16271 -0.0353,-0.1936 -0.28616,-0.15336 -0.61084,-0.0573 -0.89931,-0.0113 -0.0175,0.003 -0.064,-0.006 -0.0526,0.008 0.0704,0.0833 0.0947,0.0533 0.15661,0.0226 -0.13433,-2.8e-4 -0.27516,-0.0422 -0.40299,-7.5e-4 -0.13827,0.0448 -0.24349,0.15902 -0.35919,0.2469 -0.10848,0.0825 -0.20724,0.17688 -0.31257,0.26334 -0.10964,0.0899 -0.22407,0.17404 -0.33222,0.2656 -0.0858,0.0728 -0.26076,0.11565 -0.24942,0.22763 0.0116,0.11395 0.19395,0.12132 0.29094,0.18226 0.22004,-0.0604 0.43698,-0.13294 0.65059,-0.21316 0.13535,-0.051 0.29263,-0.10035 0.41163,-0.19077 0.0164,-0.0113 0.0218,-0.0352 0.0329,-0.0524 0.0979,-0.0505 0.19937,-0.095 0.29375,-0.15165 0.10981,-0.0661 0.22601,-0.12728 0.3177,-0.21685 0.0758,-0.0739 0.0438,-0.24464 -0.0472,-0.29144 -0.0577,-0.0298 -0.13046,2.6e-4 -0.19437,0.0113 -0.10551,0.0199 -0.2079,0.0521 -0.31186,0.0779 -0.035,0.0199 -0.0668,0.0454 -0.10517,0.0556 -0.0747,0.0199 -0.15318,0.0199 -0.22946,0.0326 -0.16693,0.0284 -0.31978,0.0541 -0.48242,0.0958 -0.0746,0.0199 -0.1825,-0.003 -0.22244,0.0632 -0.0406,0.0672 0.0293,0.15421 0.044,0.23131 0.29443,0.0635 0.59437,0.13691 0.89899,0.12727 0.0613,-0.002 0.16988,0.0199 0.17949,-0.04 0.0122,-0.0768 -0.19928,-0.12869 -0.14403,-0.1834 0.0588,-0.0584 0.15097,0.0677 0.22646,0.10176 -0.54629,-0.39876 -0.005,0.0314 0.21452,-0.0199 0.10664,-0.0255 -0.17285,-0.13551 -0.26836,-0.18908 -0.0164,-0.008 -0.0372,0.006 -0.0558,0.008 -0.0486,0.008 -0.0986,0.008 -0.14572,0.0226 -0.1613,0.0491 -0.31847,0.11055 -0.4777,0.16582 -0.25393,0.38673 -0.14516,0.1304 -0.20636,0.55007 -0.013,0.0901 -0.11093,0.19955 -0.0512,0.26844 0.11937,0.13747 0.32757,0.1593 0.49136,0.23867 0.021,0.008 0.14561,-0.28871 0.12458,-0.29753 v 0 c -0.11361,0.0312 -0.24112,0.1562 -0.34081,0.0933 -0.0816,-0.0513 0.0247,-0.19134 0.032,-0.28755 0.004,-0.0502 -0.0207,-0.10602 0.002,-0.15108 0.0299,-0.0596 0.0959,-0.0924 0.14389,-0.13862 0.12552,-0.0771 0.24644,-0.16214 0.37658,-0.23131 0.036,-0.0199 0.078,-0.0255 0.11829,-0.0312 0.0346,-0.006 0.0913,0.0283 0.10505,-0.006 0.037,-0.0867 0.11027,-0.30106 0.0178,-0.28233 -0.27938,0.0567 -0.21376,0.6219 -0.23547,0.12246 0.011,0.0785 0.0819,0.1732 0.0334,0.23585 -0.0455,0.059 0.005,-0.16526 -0.0471,-0.21799 -0.0404,-0.0405 -0.28218,0.0445 -0.32028,0.0363 -0.53625,-0.11735 0.27216,-0.18652 -0.52439,-0.0468 -0.0241,0.0494 -0.11682,0.11622 -0.0719,0.14768 0.0576,0.0403 0.13428,-0.0419 0.2031,-0.0561 0.0721,-0.0142 0.1465,-0.017 0.21875,-0.0298 0.092,-0.017 0.18292,-0.0405 0.27349,-0.0647 0.32802,-0.0868 0.11225,-0.0561 0.37047,-0.0814 0.34148,-0.16383 0.25885,-0.0255 0.25843,-0.15901 -1.4e-4,-0.0419 0.0244,-0.0907 0.001,-0.12615 -0.013,-0.0198 -0.049,0.008 -0.0689,0.0199 -0.26507,0.178 -0.31396,0.23923 -0.53665,0.44735 -0.0116,-7.5e-4 -0.0238,-0.006 -0.0351,-0.003 -0.19341,0.0596 -0.18474,0.0882 -0.39126,0.17801 -0.0506,0.0226 -0.10321,0.0405 -0.15708,0.0527 -0.38958,0.0884 0.008,-0.0726 -0.45922,0.15675 0.006,0.0765 -0.0588,0.22309 0.0175,0.22961 0.11213,0.008 0.17983,-0.13522 0.2677,-0.2058 0.11089,-0.0887 0.21835,-0.1817 0.32842,-0.27128 0.1037,-0.0845 0.21014,-0.16554 0.31288,-0.25143 0.10953,-0.0913 0.25129,-0.15704 0.32377,-0.27977 0.0584,-0.0989 0.0286,-0.22762 0.043,-0.34163 -0.0841,0.0828 -0.2384,0.18397 -0.0878,0.34813 0.0631,0.0688 0.17904,0.068 0.27224,0.0647 0.46072,-0.017 0.29556,-0.0456 0.55697,-0.23046 0.008,-0.006 0.0161,0.008 0.0241,0.0113 -0.0616,0.12331 -0.2871,0.4043 -0.0314,0.54493 0.14613,0.0802 0.33024,0.0743 0.49651,0.0615 0.47718,-0.0371 1.17057,-0.27241 1.57209,-0.50461 0.19431,-0.11254 0.34563,-0.28662 0.51846,-0.42993 -0.0664,-0.0527 -0.11466,-0.15109 -0.19911,-0.15818 -0.17127,-0.0142 -1.23667,0.26731 -1.29086,0.28177 -0.67653,0.18198 -1.35693,0.37749 -1.98715,0.68917 -0.0147,0.008 0.11925,0.216 0.13385,0.20665 z" />
  <path
     style="opacity:1;fill:#ff0000;fill-opacity:1;stroke:#012d00;stroke-width:0;stroke-miterlimit:4;stroke-dasharray:none;stroke-dashoffset:0;stroke-opacity:1"
     id="path4617"
     d="m 157.40056,149.60192 c -0.0944,-0.003 -0.18879,-0.0113 -0.28347,-0.0113 -0.13635,0.002 -0.27213,0.0113 -0.40824,0.0199 -0.83421,0.0368 -0.22989,0.006 -1.10857,0.0593 -0.73187,0.0448 -0.52093,0.0323 -1.26606,0.0683 -0.57658,0.0142 -0.75979,0.008 -1.32461,0.0575 -0.17935,0.0142 -0.35794,0.0386 -0.53674,0.0592 -0.31902,0.0371 -0.55024,0.0635 -0.86204,0.12047 -0.10811,0.0199 -0.21509,0.0454 -0.32262,0.0677 -0.037,0.006 -0.46672,0.0794 -0.52503,0.0859 -0.11965,0.0142 -0.39641,0.0226 -0.51305,0.0284 -0.0975,0.003 -0.19499,0.008 -0.29254,0.006 -0.12685,-7.4e-4 -0.25359,-0.008 -0.38039,-0.0113 -0.50153,-0.0142 -1.00396,0.0371 -1.49107,0.15987 -0.17544,0.0443 -0.34812,0.0995 -0.5187,0.1596 -0.3843,0.13578 -0.7036,0.28857 -1.07553,0.45549 -0.17967,0.0865 -0.36016,0.1715 -0.53898,0.25966 -0.16469,0.0813 -0.32731,0.16667 -0.49143,0.24917 -0.1516,0.0762 -0.30475,0.1491 -0.45573,0.22648 -0.20778,0.10658 -0.54558,0.28426 -0.74658,0.41618 -0.0863,0.0567 -0.16538,0.1236 -0.24804,0.18567 -0.0352,0.0292 0.37662,0.52671 0.4118,0.49757 v 0 c 0.38647,-0.16214 0.17844,-0.0739 0.62373,-0.26532 0.65375,-0.2761 1.31254,-0.54338 1.93945,-0.87797 0.33242,-0.16413 0.61655,-0.31706 0.965,-0.44253 0.27249,-0.0981 0.63559,-0.18708 0.92145,-0.23414 0.30022,-0.0494 0.60646,-0.0564 0.90526,-0.11707 0.12252,-0.0142 0.24475,-0.0332 0.36753,-0.0465 0.0969,-0.0113 0.19417,-0.017 0.29127,-0.0255 0.36079,-0.0303 0.72142,-0.0592 1.08259,-0.0845 0.39644,-0.0142 0.79217,-0.0255 1.18895,-0.0199 0.18451,0.002 0.36893,0.0113 0.55344,0.0113 0.69343,7.4e-4 0.63844,-0.008 1.34577,-0.059 0.52599,-0.0439 0.75707,-0.0575 1.27665,-0.12302 0.4776,-0.0604 0.6414,-0.0842 1.09716,-0.19871 0.12898,-0.0323 0.25739,-0.0669 0.38294,-0.11027 0.0862,-0.0298 0.16724,-0.0728 0.25087,-0.10942 0.0323,-0.0142 -0.18199,-0.47157 -0.2143,-0.4564 z" />
  <path
     style="opacity:1;fill:#ff0000;fill-opacity:1;stroke:#012d00;stroke-width:0;stroke-miterlimit:4;stroke-dasharray:none;stroke-dashoffset:0;stroke-opacity:1"
     id="path4619"
     d="m 151.74927,149.7375 c -0.18717,-0.0425 -0.37223,-0.0958 -0.56154,-0.12728 -0.55553,-0.0927 -1.18129,-0.14059 -1.74115,-0.1525 -0.70191,-0.0142 -1.37821,-0.0142 -2.0727,0.078 -0.25124,0.0331 -0.49828,0.0924 -0.74742,0.1389 -0.1933,0.0655 -0.39169,0.11735 -0.5799,0.19616 -0.29528,0.12359 -0.51378,0.28091 -0.77569,0.45624 -0.10565,0.0706 -0.21218,0.14002 -0.3158,0.21372 -0.0978,0.0694 -0.19143,0.14457 -0.28818,0.21544 -0.10704,0.0782 -0.21549,0.15477 -0.32322,0.23216 -0.42665,0.28865 -0.85821,0.57146 -1.27429,0.87545 -0.11052,0.0808 -0.21716,0.16667 -0.32576,0.25001 -0.039,0.0349 0.45531,0.58638 0.4943,0.55142 v 0 c 0.1309,-0.0703 0.26617,-0.13322 0.39273,-0.21146 0.44524,-0.27439 0.84187,-0.61552 1.2235,-0.97075 0.30291,-0.24888 0.25273,-0.22195 0.56762,-0.42846 0.18805,-0.1233 0.37849,-0.25086 0.59486,-0.32193 0.31067,-0.10176 0.62088,-0.11537 0.94445,-0.15137 0.23746,-0.0142 0.47467,-0.0332 0.71241,-0.04 0.27904,-0.008 0.55832,-0.003 0.83749,-0.006 1.02383,-0.006 2.05615,0.006 3.06514,-0.1956 0.0426,0.0113 0.21577,-0.5904 0.17314,-0.60264 z" />
  <path
     style="opacity:1;fill:#ff0000;fill-opacity:1;stroke:#012d00;stroke-width:0;stroke-miterlimit:4;stroke-dasharray:none;stroke-dashoffset:0;stroke-opacity:1"
     id="path4621"
     d="m 143.00323,151.17617 c -0.20103,0.0731 -0.40944,0.12812 -0.6031,0.21911 -1.78986,0.83891 -3.30655,2.22812 -4.46643,3.81456 -0.27607,0.3776 -0.49508,0.79376 -0.74262,1.19063 -0.16098,0.38861 -0.51134,0.98275 -0.42977,1.47306 0.0226,0.13606 0.0778,0.30993 0.20707,0.35781 0.65918,0.24435 1.07318,-0.32113 1.44609,-0.72 0.0893,-0.12557 0.18635,-0.24604 0.26796,-0.37669 0.0908,-0.1457 0.19377,-0.34214 0.21855,-0.52127 0.007,-0.0462 0.0313,-0.11877 -0.0105,-0.13974 -0.138,-0.0688 -0.35725,-0.21288 -0.4535,-0.0921 -0.0931,0.1165 0.14201,0.2622 0.21302,0.39339 0.26811,0.18085 0.56341,0.34495 0.8933,0.37302 0.047,0.003 0.13731,0.0199 0.1387,-0.0283 0.0139,-0.47804 -0.0717,-0.40833 -0.36026,-0.42174 -0.0392,0.017 0.20894,0.57249 0.24818,0.55491 v 0 c 0.0823,-0.0363 0.20378,-0.0303 0.24693,-0.10914 0.0272,-0.0499 0.20029,-0.46023 0.008,-0.55601 -0.0697,-0.0346 -0.1484,-0.047 -0.22202,-0.0726 -0.51751,-0.17801 -0.0863,-0.0431 -0.59732,-0.19644 -0.0491,0.0672 -0.0647,0.19134 -0.14714,0.20098 -0.15132,0.017 -0.29151,-0.0887 -0.43763,-0.13181 -0.0127,-0.003 -0.0277,-0.017 -0.0387,-0.008 -0.0617,0.0428 -0.33846,0.35751 -0.33915,0.35828 -0.0932,0.10658 -0.18371,0.21514 -0.27556,0.32286 -0.0984,0.11877 -0.19833,0.23641 -0.29523,0.35634 -0.0807,0.10007 -0.2285,0.17547 -0.23751,0.30371 -0.008,0.11026 0.13734,0.17348 0.19737,0.26645 0.0278,0.0428 0.0188,0.16044 0.0647,0.13862 0.41099,-0.19418 0.45592,-0.90839 0.92437,-1.00262 1.38244,-1.60339 0.38964,-0.44623 1.90557,-2.23044 0.34259,-0.40323 0.6729,-0.81728 1.02906,-1.20858 1.14689,-1.26008 0.63363,-0.5803 1.6496,-1.65296 0.14473,-0.15279 0.27213,-0.32114 0.40818,-0.4817 0.0263,-0.0289 -0.3839,-0.40272 -0.41033,-0.37371 z" />
  <path
     style="opacity:1;fill:#ff0000;fill-opacity:1;stroke:#012d00;stroke-width:0;stroke-miterlimit:4;stroke-dasharray:none;stroke-dashoffset:0;stroke-opacity:1"
     id="path4623"
     d="m 136.87905,158.88079 c 0.0684,-0.006 0.1379,-0.006 0.20514,-0.0199 0.37469,-0.0796 0.79015,-0.29603 1.08044,-0.5404 0.11759,-0.0989 0.25305,-0.19445 0.3181,-0.33378 0.0576,-0.12331 0.0187,-0.27156 0.0281,-0.40734 0.12657,-0.1678 -0.56606,-0.57186 -0.68029,-0.34475 -0.0773,0.15364 -0.009,0.38656 0.11832,0.50262 0.0791,0.0723 0.79433,0.0658 0.90321,-0.006 0.13723,-0.0899 0.18911,-0.26788 0.28367,-0.40204 -7.5e-4,-0.16271 0.04,-0.33104 -0.003,-0.48767 -0.0716,-0.25796 -0.30782,-0.45908 -0.54705,-0.5501 -0.0721,-0.0283 -0.1618,-0.0485 -0.231,-0.0142 -0.12979,0.0637 -0.27487,0.15222 -0.32461,0.28814 -0.0336,0.0918 0.0809,0.17802 0.12132,0.26702 -0.007,0.10772 -0.0579,0.2126 -0.0955,0.31139 -0.0378,0.0995 -0.0988,0.27751 -0.16441,0.36859 -0.0275,0.0383 -0.0684,0.0644 -0.10261,0.0967 -0.0322,0.017 -0.0862,0.087 -0.0964,0.0521 -0.0119,-0.0408 0.0828,-0.0542 0.0833,-0.0967 5.5e-4,-0.0476 -0.0607,-0.0745 -0.0809,-0.11793 -0.035,-0.0748 -0.0599,-0.15392 -0.0833,-0.233 -0.0731,-0.24634 -0.0761,-0.31513 -0.11537,-0.56214 -0.008,-0.068 0.006,-0.14173 -0.0215,-0.20438 -0.14553,-0.32819 -0.32303,-0.35092 -0.70795,-0.16724 -0.11072,0.053 -0.16302,0.18538 -0.22524,0.29115 -0.18278,0.31078 -0.17223,0.43971 -0.23814,0.79656 0.0125,0.35773 -0.013,0.46247 0.10267,0.79282 0.0498,0.1423 0.14786,0.32414 0.2776,0.41735 0.0607,0.0436 0.12946,0.10034 0.20398,0.0935 0.12418,-0.0113 0.23046,-0.0952 0.34566,-0.14287 0.0244,-0.0615 0.0571,-0.12019 0.073,-0.18453 0.0187,-0.0757 0.0139,-0.21062 -0.0187,-0.28443 -0.0215,-0.0488 -0.0961,-0.18482 -0.0894,-0.1321 0.0469,0.36998 0.30238,0.0142 0.43713,-0.0822 0.19329,-0.1749 0.3919,-0.34432 0.57984,-0.52507 0.2395,-0.23045 0.46278,-0.47718 0.70207,-0.70775 1.31333,-1.26532 0.43892,-0.35016 1.72647,-1.63216 0.60515,-0.60256 0.61461,-0.63009 1.11011,-1.19766 0.0637,-0.093 0.14208,-0.17745 0.19125,-0.27894 0.0127,-0.0255 0.008,-0.0677 -0.0139,-0.087 -0.12424,-0.10714 -0.25455,-0.21656 -0.40736,-0.27637 -0.0368,-0.0142 -0.087,0.0451 -0.0833,0.0845 0.0119,0.12472 0.0134,0.29713 0.12466,0.35478 0.14687,0.076 0.33003,-0.0226 0.49503,-0.0337 0.15582,-0.0496 0.31321,-0.0947 0.46749,-0.14882 0.21257,-0.0748 0.4189,-0.16696 0.63268,-0.2384 0.63376,-0.21146 1.16904,-0.33979 1.81961,-0.51082 0.0727,-0.0411 -0.51021,-1.06937 -0.58291,-1.02816 v 0 c -0.32849,0.12727 -0.66477,0.23613 -0.98546,0.38199 -0.4704,0.21402 -0.92295,0.49176 -1.34383,0.79181 -0.11611,0.0828 -0.22379,0.17688 -0.33572,0.26503 0.32279,0.46979 -0.22895,-0.37969 0.13045,0.45372 0.0142,0.0326 0.0783,-0.0533 0.0636,-0.0859 -0.0687,-0.15194 -0.16325,-0.29784 -0.28741,-0.40893 -0.14548,-0.13011 -0.52316,0.24775 -0.57009,0.13408 -0.21098,0.12444 -0.43189,0.23358 -0.63291,0.37355 -0.63107,0.43963 -1.18104,0.93246 -1.70195,1.5006 -0.27686,0.30198 -0.53071,0.62479 -0.77941,0.95035 -0.20143,0.26363 -0.39204,0.53609 -0.56999,0.81618 -0.13564,0.21345 -0.24638,0.44186 -0.36958,0.6628 -0.29249,0.68887 -0.10755,0.12415 -0.19097,0.74903 -0.003,0.0199 -0.0108,-0.0403 -0.0199,-0.0587 -0.005,-0.0113 0.006,0.0226 0.007,0.0334 0.008,0.0701 -0.0153,0.044 0.0224,0.0737 0.0809,-0.008 0.16186,-0.017 0.24281,-0.0255 0.0187,0.0226 0.0272,0.0612 0.0558,0.0666 0.0218,0.006 -0.0207,-0.0397 -0.0269,-0.0612 -0.0173,-0.0596 -0.0326,-0.11963 -0.0435,-0.18057 -0.0475,-0.26419 -0.0408,-0.32185 -0.0549,-0.6005 0.009,-0.10743 0.008,-0.21627 0.0266,-0.3226 0.017,-0.0972 0.0521,-0.19021 0.0792,-0.28508 0.0185,-0.0643 0.0951,-0.13692 0.0578,-0.19276 -0.0578,-0.0862 -0.19491,-0.0771 -0.27924,-0.13748 -0.0218,-0.017 -0.0145,-0.10375 -0.0212,-0.0779 -0.0244,0.0899 -0.0218,0.18482 -0.0327,0.27722 0.0241,0.31964 0.009,0.45888 0.14768,0.76613 0.0947,0.20947 0.30976,0.55771 0.56535,0.6256 0.38669,0.10262 0.45923,0.006 0.70724,-0.15477 0.0597,-0.0688 0.12791,-0.13153 0.17916,-0.20693 0.0968,-0.14258 0.15434,-0.31209 0.19397,-0.47786 0.0398,-0.16668 0.073,-0.35661 0.033,-0.52812 -0.019,-0.0814 -0.0684,-0.15279 -0.10256,-0.22905 -0.1503,0.20466 0.0193,-10e-4 -0.37989,0.26419 -0.009,0.006 0.0204,0.008 0.0309,0.0113 0.0485,0.0142 0.10117,0.0199 0.14613,0.0428 0.0983,0.0513 0.15517,0.12954 0.22558,0.20977 -0.004,0.017 0.004,0.0414 -0.0108,0.047 -0.105,0.0405 -0.22201,0.0434 -0.32728,0.0833 -0.044,0.017 -0.0948,0.0405 -0.11361,0.0839 -0.0649,0.14881 -0.0466,0.32967 -0.12793,0.47029 -0.0361,0.0626 -0.37037,-0.11509 -0.0744,-0.20353 -0.13529,0.0845 0.0391,-0.0255 -0.30143,0.26901 -0.18752,0.16271 -0.38853,0.3244 -0.59408,0.46491 -0.0661,0.0451 -0.13666,0.0836 -0.20446,0.12615 -0.0346,0.0226 -0.0686,0.0448 -0.10293,0.0672 -0.0309,0.0113 0.1211,0.44716 0.15195,0.43642 z" />
  <path
     style="opacity:1;fill:#ff0000;fill-opacity:1;stroke:#012d00;stroke-width:0;stroke-miterlimit:4;stroke-dasharray:none;stroke-dashoffset:0;stroke-opacity:1"
     id="path4625"
     d="m 146.64473,150.56777 c -0.25223,-0.0323 -0.50906,-0.0317 -0.76235,-0.0113 -0.0694,0.006 -0.14193,0.002 -0.20727,0.0255 -0.0233,0.008 0.058,0.003 0.0704,0.0255 0.0616,0.10772 0.0938,0.22989 0.14066,0.34484 0.28125,0.0403 0.11295,0.0255 0.50649,0.0142 0.0443,-0.0199 -0.23564,-0.6459 -0.27989,-0.62612 v 0 c -0.44426,0.16442 -0.25075,0.059 -0.59095,0.29696 0.0105,0.14684 -0.0475,0.31669 0.0317,0.44093 0.0526,0.0825 0.19052,0.0468 0.28754,0.0598 0.0683,0.008 0.13782,0.006 0.20679,0.006 0.24905,0.002 0.50022,-0.002 0.74484,-0.0545 0.0369,-0.0113 -0.111,-0.53271 -0.14793,-0.52225 z" />
  <path
     style="opacity:1;fill:#ff0000;fill-opacity:1;stroke:#012d00;stroke-width:0;stroke-miterlimit:4;stroke-dasharray:none;stroke-dashoffset:0;stroke-opacity:1"
     id="path4627"
     d="m 157.58966,150.23793 c 0.22705,0.0456 0.45206,0.10176 0.6809,0.13663 0.43979,0.0672 1.87443,0.20721 2.22408,0.24831 1.6001,0.1868 2.42277,0.32698 4.10227,0.47339 0.88186,0.0768 1.76627,0.12075 2.64943,0.18113 1.95061,0.0408 2.80738,0.10772 4.68955,-0.0226 0.4832,-0.0334 0.96613,-0.0859 1.44303,-0.17065 0.24152,-0.043 0.5334,-0.036 0.70527,-0.21118 0.22422,-0.22847 -0.37038,-0.7067 -0.42345,-0.76045 -0.16242,-0.0328 -0.32275,-0.0808 -0.48761,-0.0984 -0.44603,-0.0476 -0.79373,-0.0695 -1.21663,0.0487 -0.27241,0.0763 -0.2435,0.3079 -0.0632,0.57512 0.0507,0.0751 0.17688,0.0391 0.26532,0.0587 0.0425,-0.0113 -0.11877,-0.61426 -0.16157,-0.60284 v 0 c -0.0901,0.0226 -0.2177,-0.0113 -0.26986,0.0652 -0.11112,0.16243 -0.24123,0.5154 0.008,0.63225 0.39528,0.18567 0.75228,0.1559 1.1916,0.13804 0.31183,-0.0142 0.62206,-0.0516 0.93308,-0.0777 0.19474,-0.11764 0.46609,-0.15874 0.58464,-0.35308 0.26958,-0.44178 -0.45542,-0.72289 -0.64267,-0.78676 -0.42511,-0.14485 -0.86542,-0.24661 -1.30765,-0.32522 -1.79859,-0.31946 -2.70507,-0.30594 -4.59476,-0.41184 -0.90726,0.008 -1.815,-0.008 -2.72177,0.0226 -1.6799,0.0559 -2.69833,0.18283 -4.31782,0.30095 -0.85855,0.0626 -1.49708,0.0743 -2.33472,0.16327 -0.24746,0.0255 -0.49291,0.0688 -0.73938,0.10319 -0.0476,-0.0142 -0.24293,0.65956 -0.19531,0.67339 z" />
</svg>
