<?xml version="1.0" encoding="UTF-8" standalone="no"?>
<svg
   xmlns:dc="http://purl.org/dc/elements/1.1/"
   xmlns:cc="http://creativecommons.org/ns#"
   xmlns:rdf="http://www.w3.org/1999/02/22-rdf-syntax-ns#"
   xmlns:svg="http://www.w3.org/2000/svg"
   xmlns="http://www.w3.org/2000/svg"
   xmlns:sodipodi="http://sodipodi.sourceforge.net/DTD/sodipodi-0.dtd"
   xmlns:inkscape="http://www.inkscape.org/namespaces/inkscape"
   sodipodi:docname="LOGO.svg"
   inkscape:version="1.0 (4035a4f, 2020-05-01)"
   id="svg3311"
   version="1.1"
   viewBox="0 0 210 297"
   height="297mm"
   width="210mm">
  <defs
     id="defs3305">
    <clipPath
       id="clipPath3392"
       clipPathUnits="userSpaceOnUse">
      <path
         d="m 105.54911,99.900362 v 20.516578 c 0.36733,-1.01007 1.18617,-1.55894 1.98541,-1.54255 0.9482,0.0195 1.86412,0.83038 1.9513,2.59675 0.0605,1.22532 0.53834,2.38749 0.66818,3.60029 0.0307,0.286 0.0831,0.57864 0.0336,0.86197 -0.13823,0.79073 -0.31189,1.10809 -0.59635,1.7017 -0.0893,0.14299 -0.18374,0.28227 -0.27595,0.42323 0.20009,2.49756 0.34261,4.994 0.21756,7.49825 -0.0246,1.8678 0.11557,3.73765 -0.44494,5.55108 -0.0992,0.32097 -0.24162,0.62691 -0.37207,0.9369 0.0713,0.13779 0.14393,0.27976 0.21704,0.42684 1.02051,-0.16464 0.97193,0.42383 0.59531,1.22267 0.0155,0.0315 0.0774,0.1598 0.0863,0.17673 0.0304,0.0576 0.0658,0.11242 0.10231,0.1664 1.9e-4,-0.003 -2.1e-4,-0.006 0,-0.008 0.0241,-0.31762 0.69222,0.67095 0.43099,0.85317 -0.004,0.003 -0.007,0.005 -0.0109,0.008 0.001,0.059 -0.0374,0.0827 -0.12144,0.0863 -0.0269,0.0188 -0.047,0.0334 -0.0729,0.0517 h 32.62487 V 99.900362 Z m 0,23.325188 v 2.09083 c 0.0986,-0.15042 0.21089,-0.27747 0.33176,-0.38602 -0.0774,-0.36616 -0.16055,-0.73134 -0.22892,-1.09916 -0.0374,-0.2013 -0.0702,-0.40352 -0.10284,-0.60565 z m 3.94808,21.72787 c -0.18229,-0.003 -0.40885,0.004 -0.68885,0.0367 -0.008,0.0131 -0.014,0.0247 -0.0217,0.0377 h 1.15238 c -0.006,-0.0186 -0.0125,-0.0372 -0.0191,-0.0558 -0.10238,-0.003 -0.24041,-0.0157 -0.42271,-0.0186 z"
         style="fill:#ff0000;fill-opacity:1;fill-rule:nonzero;stroke:none;stroke-width:0.264583"
         id="path3394" />
    </clipPath>
    <clipPath
       id="clipPath4115"
       clipPathUnits="userSpaceOnUse">
      <path
         d="m 388.24617,226.99195 v 262.69382 c 0.34097,-0.27474 0.68152,-0.53509 1.02251,-0.76587 2.76165,-3.05866 5.39636,-6.22466 7.89132,-9.50431 -0.005,-1.32657 0.002,-2.6525 0.0102,-3.98247 -0.20673,-0.99852 0.12068,-2.00888 0.0564,-3.00984 -0.005,-0.0896 -0.0641,-0.16665 -0.0962,-0.2489 -0.0552,-0.44335 -0.14873,-0.88119 -0.16607,-1.32878 -0.0433,-1.12535 0.0954,-2.45189 0.18591,-3.5689 0.17997,-1.29108 0.33922,-2.12353 0.80341,-3.15151 0.092,-0.23169 0.20178,-0.48888 0.24235,-0.64333 0.19843,-0.32356 0.22233,-0.37062 0.29214,-0.49016 -0.0251,-0.15586 -0.0508,-0.31144 -0.0763,-0.46717 -1.39564,-8.47976 3.40979,-13.3286 8.01747,-13.23404 3.58375,0.0735 7.04723,3.13851 7.37673,9.81448 0.22858,4.63114 2.03236,9.02169 2.5231,13.6055 0.1161,1.08095 0.3164,2.18789 0.12952,3.25873 -0.52244,2.98869 -1.17907,4.18585 -2.25418,6.4294 -0.33767,0.54046 -0.69395,1.06789 -1.04245,1.60066 0.75624,9.43955 1.29266,18.87569 0.82002,28.34066 -0.0932,7.05934 0.43861,14.12682 -1.67986,20.98073 -0.37494,1.21308 -0.91457,2.3705 -1.40762,3.5421 0.26937,0.52078 0.54367,1.05627 0.82001,1.61212 3.85704,-0.62221 3.6743,1.60268 2.25086,4.62199 0.0587,0.119 0.2915,0.60231 0.32536,0.66629 0.11507,0.21755 0.25032,0.42396 0.38841,0.628 7.3e-4,-0.01 -7.8e-4,-0.0202 0,-0.0306 0.0909,-1.20042 2.61409,2.53555 1.62673,3.22427 -0.0153,0.0118 -0.0243,0.0198 -0.0398,0.0306 0.005,0.22298 -0.14058,0.31197 -0.45816,0.3255 -0.1059,0.0741 -0.18473,0.12979 -0.28882,0.20294 0.26618,0.76171 0.51373,1.52917 0.5677,2.31672 0.0994,1.45244 -1.15598,2.45862 -2.0052,3.34299 -0.47252,0.19017 -0.94504,0.38041 -1.41759,0.57057 -3.99898,1.60911 -4.7559,0.74973 -4.1133,-1.21773 -5.32487,3.88203 -5.67354,3.84762 -6.75259,0.59738 -0.27409,-0.13548 -0.90006,-1.19252 -0.96277,-1.86869 -0.0795,-0.13293 -0.15026,-0.27098 -0.22574,-0.40591 -0.26513,0.0251 -0.52481,-0.0157 -0.77022,-0.12253 -0.15706,0.17174 -0.31677,0.34287 -0.47141,0.51695 -0.22021,0.43088 -0.46759,0.82872 -0.64073,1.04921 -0.72106,1.90928 -1.56024,2.81851 -3.90748,4.27351 -12.65971,7.84746 4.31571,-20.89872 -6.57333,-14.45177 v 134.69181 c 0.0821,-0.0343 0.16743,-0.0674 0.29878,-0.0957 0.0136,-0.002 0.0644,0.0812 0.093,0.11097 0.0245,0.0137 0.0473,0.029 0.0631,0.0767 0.14567,0.18959 0.33282,0.47427 0.37846,0.55909 -0.0197,0.0233 -0.0377,0.0514 -0.0564,0.0767 0.2797,0.14724 0.55938,0.2955 0.83993,0.44037 0.32011,0.16547 0.9809,0.34338 0.16929,0.99946 0.0102,0.0137 0.0201,0.028 0.0299,0.0421 0.007,0.01 0.0136,0.0202 0.0199,0.0306 0.0136,0.01 0.0226,0.0216 0.0365,0.0306 0.0202,-0.0137 0.0396,-0.0286 0.0598,-0.0421 0.27334,-0.18156 0.84154,-0.86549 0.84324,-0.50162 7.3e-4,0.1539 -0.0262,0.29703 -0.0498,0.44037 0.14975,0.0157 0.25598,0.15822 0.31871,0.4059 0.0384,-0.002 0.0598,-0.0137 0.0996,-0.0157 0.11151,-0.004 0.0405,0.0459 -0.0763,0.10724 0.0119,0.0725 0.0403,0.10038 0.0432,0.19528 0.005,0.16802 -0.19631,0.33583 -0.4183,0.45568 0.20117,0.0708 0.4084,0.13861 0.57765,0.27954 0.16913,0.14077 0.26114,0.37158 0.39175,0.55909 -0.008,0.20451 -4.1e-4,0.41196 -0.0102,0.61651 0.40742,0.068 0.76513,0.15704 1.05239,0.47099 0.0751,-0.0433 0.17924,-0.10332 0.13938,-0.0651 -0.0535,0.0494 -0.0736,0.058 -0.11949,0.0996 0.12663,0.14489 0.25002,0.3156 0.36518,0.5744 0.0454,0.10156 -0.18381,0.0857 -0.27555,0.13018 -0.53876,0.19116 -0.86282,0.33156 -1.45077,0.39824 -0.12731,0.0137 -0.32488,-0.13469 -0.44155,-0.15704 -0.0257,-0.006 -0.0354,-0.002 -0.0598,-0.008 -0.13751,0.12529 -0.27659,0.23279 -0.42494,0.31784 0.0605,0.27266 0.11167,0.54651 0.14601,0.81947 0.0192,0.15253 0.025,0.3146 0.0331,0.47482 0.28862,-0.008 0.57514,0.001 0.86649,-0.0269 0.57781,-0.0555 1.15556,-0.1245 1.73297,-0.18371 0.61147,-0.0639 0.69102,0.65706 0.0797,0.72374 -0.58447,0.0608 -1.16803,0.12489 -1.75287,0.1837 -0.32258,0.0308 -0.64003,0.0233 -0.95945,0.0306 -0.0153,0.15783 -0.0213,0.31838 -0.053,0.47099 0.026,0.0365 0.0389,0.10078 0.0564,0.15705 0.22374,0.0574 0.41459,0.16822 0.39837,0.37528 -0.0255,0.32116 -0.22235,0.55769 -0.44818,0.78116 0.0714,0.0508 0.13751,0.0825 0.21247,0.14548 0.13972,0.11744 -0.10096,0.22268 -0.34194,0.3255 0.0228,0.0602 0.0306,0.1343 0.0398,0.2106 0.17222,-0.0353 0.32283,-0.0176 0.36519,0.15313 0.0325,0.13057 -0.19624,0.43911 -0.47143,0.77353 -0.002,0.006 -0.001,0.0137 -0.003,0.0196 -0.11065,0.27729 -0.26846,0.52019 -0.43822,0.75438 0.0485,-0.0337 0.027,-0.0157 0.0797,-0.0535 0.24643,-0.1741 0.60281,-0.82335 0.73702,-0.52844 0.0641,0.14077 0.0583,0.298 0.0332,0.45953 0.14312,0.0547 0.27752,0.14685 0.39174,0.32932 0.17092,0.27268 -0.49458,0.35665 -0.74365,0.53227 -0.0153,0.0118 -0.0178,0.0118 -0.0331,0.0229 -0.003,0.004 -0.003,0.0118 -0.007,0.0157 -0.0761,0.10979 -0.17152,0.16332 -0.25563,0.2489 -0.008,0.079 -0.008,0.14018 -0.0365,0.25274 0.0699,0.0624 0.15672,0.10783 0.19588,0.19528 0.0663,0.14782 -0.0863,0.21441 -0.31206,0.25656 -0.005,0.0118 -0.002,0.0137 -0.007,0.0269 -0.0338,0.0941 -1.02532,0.77738 -1.21175,0.89223 -0.39115,0.24182 -0.65317,0.0733 -0.69718,-0.18763 -0.0119,0.0137 -0.0216,0.0318 -0.0331,0.0459 v 86.05971 H 611.7525 v -551.7334 z m 12.58891,324.89315 c 0.22235,0.37137 0.22907,0.38786 0.76026,1.28664 0.0756,0.23141 0.13428,0.37669 0.20251,0.58205 0.076,0.0374 0.13139,0.0284 0.12952,-0.11097 -0.0119,-0.84669 -0.17485,-1.68775 -0.36186,-2.52734 -0.0512,0.0251 -0.10029,0.0465 -0.14941,0.069 -0.14176,0.0935 -0.2857,0.16429 -0.43159,0.21443 -0.13683,0.0837 -0.16981,0.2654 -0.14941,0.48632 z m 7.71536,1.27131 c 1.71323,-1.24892 4.03085,-2.94761 6.96839,-5.01255 -0.0255,-0.0729 -0.0473,-0.14548 -0.0731,-0.21826 -0.77391,-0.0263 -2.08643,-0.18057 -4.20294,0.0688 -1.15776,1.95194 -2.25343,3.81798 -2.69241,5.16189 z m -10.19528,-50.84162 c -0.58608,0.6211 -1.17077,1.24259 -1.76285,1.85722 -0.41218,0.34775 -0.7394,0.63053 -1.07232,0.91137 0.45265,0.95538 0.85189,2.00132 1.17522,3.15917 0.4579,1.6395 0.9652,3.26666 1.49726,4.88619 0.0102,-0.52403 0.0119,-1.05098 0.0398,-1.57767 0.15433,-3.08205 0.17465,-6.16049 0.12289,-9.23628 z m -10.10899,28.5666 v 9.96766 c 0.0816,-0.0649 0.16777,-0.12509 0.23239,-0.20679 0.47387,-0.60004 0.54835,-1.60373 1.24163,-1.92613 0.22871,-0.10646 0.46333,-0.20416 0.7005,-0.29486 0.1545,-0.45009 0.30313,-0.89433 0.36849,-1.19857 0.12272,-0.15234 0.15995,-0.21039 0.26892,-0.34846 -0.95612,-1.95241 -1.90594,-3.9762 -2.81193,-5.99285 z m 0.62745,147.81098 c -0.0187,-0.008 -0.0326,0.008 -0.0498,0.008 0.007,0.0512 0.0119,0.11019 0.0199,0.15313 0.042,-0.006 0.0481,-0.0118 0.093,-0.0196 0.019,-0.002 0.0405,-0.0118 0.0598,-0.0157 -0.0394,-0.0361 -0.0877,-0.11117 -0.1229,-0.12646 z m 2.12472,2.49671 c -0.0219,0.0177 -0.0415,0.0357 -0.0631,0.0535 -0.001,0.004 10e-4,0.008 0,0.0118 0.002,-0.004 0.0862,-0.0837 0.0631,-0.0651 z m 0.66729,1.78062 c -0.0207,0.0357 -0.0474,0.0651 -0.0697,0.0996 0.0549,0.0204 0.10929,0.0504 0.16607,0.0382 0.0136,-0.002 0.12578,-0.0445 0.17596,-0.0612 -0.0629,-0.0177 -0.20557,-0.0547 -0.27224,-0.0767 z m -2.40691,1.49343 c -0.0977,0.0537 -0.19182,0.0869 -0.32202,0.1341 -3.9e-4,6.7e-4 -0.003,-6.6e-4 -0.003,0 -8.6e-4,0.002 -0.002,0.006 -0.003,0.008 -0.003,0.0118 -0.007,0.0253 -0.0136,0.0382 0.10079,0.0318 0.20762,0.0425 0.30211,0.0957 0.043,0.0241 0.0177,0.0627 -0.0265,0.10332 0.21004,-0.14175 0.40486,-0.24639 0.54113,-0.21061 -0.13445,-0.0823 -0.31117,-0.11607 -0.47474,-0.16841 z m 0.58098,0.25656 c 0.0102,0.0177 0.0255,0.0233 0.0332,0.0459 0.0634,0.18489 0.0316,0.35785 -0.0366,0.52078 0.0376,9e-4 0.0753,0.004 0.11287,0.004 0.0396,-0.0461 0.0772,-0.0925 0.12612,-0.13783 -5.8e-4,-0.008 6.5e-4,-0.0177 0,-0.0269 -0.007,-0.0916 -0.0306,-0.16058 -0.0398,-0.2489 h -0.003 c -0.0525,-0.0606 -0.12527,-0.10627 -0.19255,-0.15705 z"
         style="fill:#ff0000;fill-opacity:1;fill-rule:nonzero;stroke:none;stroke-width:0.999999"
         id="path4117" />
    </clipPath>
    <clipPath
       id="clipPath4451"
       clipPathUnits="userSpaceOnUse">
      <path
         d="M 13.306681,76.784459 V 152.26667 H 47.371786 V 76.784459 Z m 14.002764,25.819611 c 0.04951,0.005 0.09947,0.008 0.149344,0.008 0.0033,-0.004 0.0054,-0.004 0.02376,-0.005 0.0364,0.005 0.03458,0.0104 0.01913,0.0801 7.94e-4,1e-4 0.0062,-0.005 0.0052,-0.003 -7.93e-4,0.002 -0.004,0.003 -0.0052,0.004 -0.0016,0.007 -7.94e-4,0.006 -0.0026,0.0139 -0.0013,0.006 -0.01016,0.003 -0.01757,0.002 -0.0019,0.001 -0.0033,0.002 -0.0052,0.004 0.0068,0.002 0.01368,0.003 0.02016,0.006 0.06506,0.026 0.08699,0.0417 0.150378,0.078 0.0016,0.007 0.003,0.0148 0.0047,0.0222 0.006,0.001 0.01206,0.003 0.01807,0.004 0.0026,5.3e-4 0.0052,0.001 0.0078,0.002 8e-5,-5.3e-4 -7.6e-5,-10e-4 0,-0.002 1.03e-4,-5.3e-4 0.0028,0.002 0.0036,0.003 0.0021,5.3e-4 0.0045,0.001 0.0067,0.002 v -5.3e-4 c 7.93e-4,-0.002 0.0068,2.6e-4 0.0052,0.001 -2.65e-4,1.9e-4 -7.94e-4,-1e-5 -0.0011,5.3e-4 7.93e-4,2.1e-4 0.0019,-2e-5 0.0026,5.3e-4 -5.29e-4,-8e-4 2.65e-4,-5.3e-4 -5.29e-4,-0.002 0.01376,0.003 0.02141,0.005 0.02635,0.007 5.29e-4,1.2e-4 0.0011,-1e-5 0.0016,5.3e-4 0.003,10e-4 0.01027,-0.001 0.0093,0.002 -0.0039,0.0119 -0.0032,0.0111 -0.0057,0.0202 0.0089,0.002 0.01799,0.004 0.02687,0.006 0.0016,2.4e-4 0.003,7.9e-4 0.0047,0.001 0.0043,-2.1e-4 0.0086,10e-4 0.01241,0.004 0.0038,0.001 0.0079,0.001 0.01138,0.003 0.0104,0.006 0.03176,0.0111 0.02791,0.0222 -0.0055,0.0156 -0.0086,0.0162 -0.01291,0.0258 2.56e-4,8e-4 0.0013,0.004 0.0016,0.004 0.0013,0.005 5.29e-4,0.005 0.0011,0.009 0.0093,1.2e-4 0.0168,0.005 0.01963,0.0212 0.0024,0.0128 -0.0032,0.0203 -0.0067,0.0294 0.03363,0.0321 0.06728,0.0641 0.107487,0.1018 0.0043,10e-4 0.0089,0.002 0.01241,0.005 0.0331,0.0258 0.06411,0.053 0.09612,0.0801 0.0046,-2.4e-4 0.0098,-0.004 0.01394,-0.001 0.02929,0.0158 0.05582,0.0359 0.08423,0.0532 0.0049,0.003 0.10663,0.0593 0.121441,0.0744 0.0895,0.0915 0.03271,0.0968 0.08682,0.0863 0.07263,0.0605 0.04009,0.0336 0.09767,0.077 0.20602,0.15538 0.160673,0.34612 0.0181,0.38499 0.01191,0.041 -0.02669,0.0786 -0.09043,0.046 -0.02846,-0.0145 -0.08536,-0.0416 -0.116271,-0.0615 -0.0073,-0.005 -0.01598,-0.008 -0.02066,-0.0155 -0.01371,-0.0213 -0.01429,-0.0223 -0.01963,-0.031 -0.0037,-0.003 -0.0071,-0.003 -0.01085,-0.006 -0.067,-0.0515 -0.0629,-0.0495 -0.11162,-0.0915 -0.0069,-0.004 -0.01617,-0.009 -0.01707,-0.0104 -0.0034,-0.002 -0.007,-0.004 -0.01035,-0.006 -0.0047,-0.003 -0.0088,-0.008 -0.01344,-0.0108 -0.0016,-0.001 -0.0035,-0.002 -0.0052,-0.003 -0.0052,-0.004 -0.01029,-0.007 -0.01551,-0.0104 -0.01786,-0.0116 -0.01151,-0.005 -0.0279,-0.0186 -0.0081,-0.006 -0.01632,-0.0125 -0.02532,-0.0176 -0.0011,-2.3e-4 -0.0021,-5.3e-4 -0.0031,-0.001 -0.0021,-0.001 -0.02408,-0.0135 -0.02739,-0.0155 -0.0047,-0.003 -0.01524,-0.009 -0.01963,-0.0119 -0.0043,-0.004 -0.0081,-0.007 -0.01241,-0.0108 -0.0011,-0.001 0.0032,0.004 0.0021,0.003 -0.0032,-0.001 -0.0059,-0.003 -0.0088,-0.005 -0.0042,-0.003 -0.0082,-0.005 -0.01241,-0.008 -0.01042,-0.008 -0.01714,-0.0103 -0.03049,-0.0171 -0.0067,-0.004 -0.01304,-0.007 -0.01963,-0.0108 -0.01736,-0.0109 -0.03576,-0.0204 -0.05478,-0.0284 -7.93e-4,0 -0.01349,-0.004 -0.01497,-0.004 0.0016,0.001 0.0062,0.002 0.0047,0.002 -0.0036,0 -0.0078,-7.9e-4 -0.01138,-0.001 -0.0031,-2.4e-4 -0.0062,7e-5 -0.0093,-5.2e-4 -0.0063,-8e-4 -0.01307,-0.003 -0.01963,-0.004 -0.0044,2.6e-4 -0.008,5.3e-4 -0.01241,5.3e-4 -0.01434,-0.001 -0.02866,-0.004 -0.04289,-0.005 -0.03376,0 -0.06714,0.003 -0.100769,0.006 -0.01709,0.002 -0.04527,0.005 -0.06304,0.008 -2.62e-4,2.6e-4 -0.0016,6e-5 -0.0021,5.3e-4 -0.0074,0.005 -0.02093,0.0105 -0.02376,0.0114 -0.0071,0.002 -0.02777,0.007 -0.03617,0.009 -0.0028,10e-4 -0.01712,0.003 -0.02222,0.004 -0.0013,0 -0.0021,5.3e-4 -0.0031,0.001 -0.0061,0.001 -0.01251,0.002 -0.0186,0.003 -0.01299,0.002 -0.02564,0.005 -0.03876,0.007 -0.0031,2.6e-4 -0.0062,1.3e-4 -0.0093,5.3e-4 -0.0041,10e-4 -0.0082,-0.001 -0.01241,0.002 -0.0043,2.6e-4 -0.0086,5.3e-4 -0.01291,0.001 l -5.29e-4,5.3e-4 c -0.0021,0.001 -0.004,8e-4 -0.0062,0.002 -0.0021,0.001 -0.0042,0.002 -0.0062,0.003 -0.0141,0.006 -0.01508,0.005 -0.03049,0.0108 -0.01408,0.007 -0.03045,0.009 -0.04393,0.017 -0.0021,0.002 -0.0041,0.004 -0.0062,0.005 -0.0046,0.003 -0.0088,0.005 -0.01344,0.008 -0.0091,0.007 -0.01939,0.012 -0.02739,0.0202 -0.0046,0.005 -0.005,0.006 -0.0093,0.0119 -0.0035,0.005 -0.0072,0.008 -0.01085,0.0134 -0.02574,0.0343 0.0091,-0.012 -0.01757,0.0222 -0.0081,0.01 0.0059,-0.005 -0.0093,0.0119 -0.0068,0.008 -0.0085,0.009 -0.0155,0.016 -0.01368,0.0131 -0.02988,0.0225 -0.04651,0.0315 7.94e-4,-1.6e-4 0.0019,-5.3e-4 0.0026,-5.3e-4 2.43e-4,3e-5 1.46e-4,8e-4 0,10e-4 -0.0011,0.001 -0.0019,0.003 -0.0031,0.004 -0.0065,0.007 -0.01315,0.0142 -0.02016,0.0212 -0.0066,0.007 -0.01413,0.0121 -0.01963,0.0202 -0.0011,8e-4 -0.0024,0.003 -0.0026,0.003 v 5.3e-4 l 0.0026,5.3e-4 c 0.0049,0.005 -0.006,0.0126 -0.0093,0.0186 -0.0047,0.009 -0.0094,0.0184 -0.01394,0.0274 -0.0032,0.006 -0.0059,0.0126 -0.0088,0.0186 -0.0028,0.006 -0.0013,0.006 -0.0031,0.0124 -0.004,0.0128 -0.0073,0.0239 -0.0093,0.0372 0.006,-0.0269 -0.0036,-0.0412 -0.01757,-0.0486 0.0028,0.003 0.0061,0.004 0.0093,0.0114 0.01741,0.032 0.02673,0.0763 -0.05116,0.0863 -0.03097,0.004 -0.03751,-0.0124 -0.03979,-0.031 0.03353,0.0666 0.04004,-0.0398 0.05995,-0.0682 -0.02866,-7.9e-4 -0.06114,0.0147 -0.0646,0.0434 3.7e-5,-0.004 -7.94e-4,-0.008 -5.29e-4,-0.0108 0.0013,-0.006 0.0016,-0.0126 0.0031,-0.0186 0.0035,-0.0151 0.0051,-0.0179 0.0093,-0.031 0.0055,-0.0172 0.01077,-0.034 0.02016,-0.0496 2.4e-5,-4e-5 0.0024,-0.006 0.0031,-0.007 -0.0085,5.3e-4 -0.0177,0.003 -0.02585,0.002 -0.153527,0.14278 -0.362347,0.005 -0.272333,-0.28991 0.02516,-0.0823 0.06234,-0.15704 0.117822,-0.22324 0.03667,-0.0437 0.04437,-0.0416 0.08268,-0.0765 0.0011,-0.001 -0.004,7.9e-4 -0.0057,10e-4 0.05482,-0.0424 0.101986,-0.0924 0.168465,-0.11783 0.01468,-0.006 0.02688,-0.005 0.03979,-0.008 0.03146,-0.0322 0.06914,-0.0547 0.110072,-0.0739 -0.0191,-0.005 -0.04067,-0.011 -0.04341,-0.0155 -0.0019,-5.3e-4 -0.0013,2.6e-4 -0.0031,-5.3e-4 -0.0055,-0.002 0.0037,-0.0105 0.0057,-0.0155 0.01585,-0.0429 0.014,-0.0336 0.03256,-0.0775 0.0062,-0.0146 0.01249,-0.0283 0.0186,-0.0429 0.03088,-0.0341 0.0021,-0.004 0.05116,-0.0434 0.02986,-0.0242 0.05949,-0.0508 0.09147,-0.0734 -0.08864,-0.0107 -0.07551,-0.10106 0.01291,-0.0899 z m -0.0088,0.091 v 0.002 c 0.0011,-7.9e-4 0.0021,-10e-4 0.0031,-0.002 -0.0013,-1.3e-4 -0.0019,1.4e-4 -0.0031,0 z m 0.375171,0.13591 c -0.0049,0.003 -0.0096,0.006 -0.01447,0.008 0.0045,5.3e-4 0.0089,-0.001 0.01344,0.002 5.29e-4,-0.003 5.29e-4,-0.007 0.0011,-0.01 z m -0.632518,0.93225 c -5.29e-4,5.2e-4 -0.0011,7.9e-4 -0.0016,0.002 h 5.3e-4 c 1.85e-4,-5.3e-4 5.29e-4,-5.3e-4 0.0011,-0.001 z m -8.560202,1.61126 v 5.3e-4 c 0.03323,5.3e-4 0.03285,0.0787 0.120406,0.2558 0.02301,0.0278 0.03879,0.0456 0.05788,0.0662 0.01802,-0.0649 0.0251,-0.0403 0.01705,0.017 0.09769,0.0996 0.126777,0.12222 0.06976,0.16329 7.94e-4,0.001 0.0013,0.002 0.0021,0.003 0,0 -0.01892,0.0127 -0.03462,0.0227 h -5.3e-4 l -5.29e-4,5.3e-4 c -0.0063,0.004 -0.0077,0.005 -0.01395,0.009 -0.01809,0.0117 -0.03617,0.0234 -0.05426,0.0351 7.15e-4,-0.005 6.09e-4,-0.002 0.001,-0.007 -0.02205,0.0112 -0.0435,0.0201 -0.0646,0.0279 -0.0056,0.0188 -0.0037,0.0141 -0.0098,0.0341 -6.09e-4,0.002 -0.0043,-0.001 -0.0062,0 -0.02379,0.012 -0.04777,0.0229 -0.07028,0.0372 -0.375734,0.23848 0.02698,-0.007 -0.165881,0.11007 -0.346927,0.23904 0.186457,-0.12657 -0.168465,0.11162 -0.0033,0.002 -0.0061,0.006 -0.0093,0.009 -0.0143,0.0987 -0.08366,0.20333 -0.229443,0.27906 0.02421,0.0214 0.04049,0.0483 0.05168,0.078 0.04367,0.0206 0.09088,0.052 0.14211,0.0961 0.186587,0.16079 -0.04228,0.41509 -0.14056,0.51986 -0.08452,0.0857 -0.172267,0.16482 -0.263033,0.24133 -0.02975,0.0584 -0.0729,0.11812 -0.14056,0.17622 -0.149955,0.12877 -0.307433,0.25074 -0.47904,0.34985 -0.134486,0.0777 -0.286204,0.12447 -0.429948,0.18086 -0.120449,0.0408 -0.238986,0.087 -0.359668,0.12713 -0.120981,0.0402 -0.299397,0.11207 -0.434599,0.0729 -0.0061,0.005 -0.01012,0.0121 -0.01654,0.0171 -0.04862,0.0354 -0.116307,0.0332 -0.176217,0.0362 -0.162759,0.008 -0.373576,-0.0922 -0.518315,-0.15658 -0.367642,-0.16368 -0.352149,-0.48228 -0.125057,-0.56482 -0.0329,-0.0556 -0.04362,-0.11155 -0.03927,-0.16433 -0.07974,-0.0134 -0.159001,-0.0295 -0.238745,-0.0429 -0.0052,-8e-4 -0.01016,-0.002 -0.0155,-0.002 5.56e-4,-5.3e-4 4.76e-4,-5.3e-4 0.0016,-0.002 v -5.3e-4 c -0.0026,0.002 -0.0081,0.001 -0.01395,5.3e-4 -0.006,-7.9e-4 -0.01097,10e-4 -0.01654,-0.002 -0.0031,-10e-4 -0.0035,-10e-4 -0.0057,-0.002 -0.02012,-0.005 -0.03907,-0.0108 -0.09043,-0.0305 0.0061,-0.0297 0.01701,-0.0597 0.02532,-0.0894 -0.03852,0.0107 -0.08197,0.0153 -0.130224,0.0124 -0.0083,0.005 -0.01515,0.0135 -0.02377,0.0186 -0.04476,0.0266 -0.09436,-0.0239 -0.143144,-0.0553 -0.0077,-0.003 -0.01487,-0.004 -0.02274,-0.007 -0.01129,-0.004 -0.0223,-0.009 -0.03359,-0.0134 -0.185002,-0.0796 -0.156118,-0.0747 -0.02894,-0.37413 -0.05189,-0.0313 -0.0922,-0.0606 -0.19327,-0.13643 -0.447627,-0.33601 -0.112,-0.80591 0.335897,-0.47026 0.148213,0.11108 0.1221,0.10472 0.241846,0.16072 0.04404,0.01 0.08754,0.0223 0.131258,0.0336 0.177997,0.0701 0.363835,0.11705 0.54622,0.17415 0.09954,0.0313 0.109933,0.0355 0.129708,0.0393 0.05663,-0.0139 0.07721,-0.009 0.186035,-0.0238 0.0073,-5.3e-4 0.01254,-0.009 0.01964,-0.0109 0.02482,-0.007 0.05025,-0.0116 0.07545,-0.0176 0.255038,-0.0389 -0.125758,0.0158 0.179834,-0.0134 0.0027,0 -0.0011,-0.007 0.0016,-0.008 0.01542,-0.007 0.03228,-0.008 0.04858,-0.0124 0.08214,-0.0179 0.06991,-0.0127 0.167948,-0.0165 0.0026,-0.003 0.0039,-0.008 0.0078,-0.009 0.02978,-0.007 0.06126,-0.0105 0.09095,-0.0181 0.0048,-0.002 0.006,-0.009 0.01033,-0.0114 0.02957,-0.0163 0.06187,-0.027 0.09147,-0.0439 0.305004,-0.0927 -0.0436,0.01 0.23306,-0.062 0.0084,-0.002 0.01474,-0.009 0.02274,-0.0124 0.01729,-0.007 0.03604,-0.0116 0.05323,-0.0186 0.01007,-0.004 -0.02103,0.007 -0.03152,0.0103 0.18193,-0.13234 0.400699,-0.21016 0.617533,-0.26406 -0.0676,-0.008 0.128536,-0.12645 0.157096,-0.14315 0.03731,-0.0132 0.07483,-0.0248 0.111621,-0.0393 0.0039,-0.002 -0.0156,0.003 -0.0124,0 0.01144,-0.01 0.02637,-0.0132 0.03876,-0.0222 0.08585,-0.0591 -0.02334,0.0107 0.04858,-0.046 0.02657,-0.021 0.05511,-0.0393 0.08268,-0.0589 0.01163,-0.007 0.04006,-0.0291 0.03462,-0.0217 0.02109,-0.0202 0.04149,-0.0413 0.06356,-0.0605 0.0762,-0.0661 0.169968,-0.11345 0.252698,-0.17105 0.09453,-0.0573 0.181429,-0.12399 0.279569,-0.1757 0.01201,-0.006 0.03208,-0.0212 0.04806,-0.031 6.08e-4,-0.002 0.0025,-0.005 0.0031,-0.007 0.01806,-0.0118 0.03567,-0.0237 0.05374,-0.0351 0.0046,-0.003 0.0094,-0.006 0.01395,-0.009 l 5.3e-4,-5.3e-4 h 5.29e-4 c 0.0079,-0.005 0.0159,-0.0106 0.02377,-0.0155 0.0037,-0.002 0.0086,-0.0106 0.01085,-0.007 7.41e-4,10e-4 0.0013,0.002 0.0021,0.003 0.01529,-0.009 0.03703,-0.0239 0.04547,-0.0238 z m -3.84266,2.01435 c 0.0039,-0.001 0.0066,-0.003 0.01033,-0.005 -0.0031,-2.5e-4 -0.0057,2.7e-4 -0.0088,-0.002 -5.82e-4,0.002 -3.44e-4,0.004 -0.0016,0.006 z m 4.037997,-1.67483 c -0.0062,-0.006 -0.01037,-0.0102 -0.01705,-0.017 -0.0018,0.006 -0.0062,0.0213 -0.0083,0.0289 0.0054,0.009 0.01382,0.0212 0.01964,0.031 0.002,-0.0137 0.0043,-0.0331 0.0057,-0.0429 z m -3.212724,1.05833 c -0.0022,1e-4 -0.0049,8e-4 -0.0072,0.001 0.0094,0.002 0.01006,0.002 0.03514,0.006 -0.0038,-0.006 -0.01434,-0.008 -0.02791,-0.007 z m 2.64635,0.0568 c -0.0041,-10e-4 -0.01,0.001 -0.01809,0.006 -0.17955,0.1255 -0.246855,0.20908 -0.271818,0.26975 -0.01051,-0.0185 -0.02397,-0.0426 -0.03824,-0.0708 -0.003,0.002 -0.0047,0.005 -0.0078,0.007 -0.02429,0.0189 -0.0485,0.038 -0.07286,0.0568 0.03667,0.029 0.07213,0.0528 0.104904,0.0651 -7.68e-4,-0.0158 0.0048,-0.0352 0.01395,-0.0574 0.01627,0.0287 0.02836,0.0556 0.02791,0.0692 v 5.3e-4 c 0.0896,0.0169 0.164644,-0.0234 0.225309,-0.10232 0.0054,-0.0691 0.06532,-0.23378 0.03669,-0.2434 z m -0.261999,0.34571 c -0.0136,-0.003 -0.02756,-0.007 -0.04186,-0.0119 9.26e-4,0.017 0.0034,0.0314 0.0088,0.0424 0.01556,-0.009 0.03257,-0.0197 0.03307,-0.0305 z m -3.121257,0.21756 v 5.3e-4 c 0.0086,0.0473 0.01875,0.0978 0.0186,0.11265 0.0073,-0.0358 0.0092,-0.0726 0.01292,-0.10903 -0.01052,-10e-4 -0.021,-0.002 -0.03152,-0.004 z m 0.01809,0.11627 c -6.61e-4,0.003 -0.0032,0.002 -0.0047,0.004 v 5.3e-4 c 7.14e-4,-8e-4 0.0039,0.001 0.0041,0 1.73e-4,-0.002 3.97e-4,-0.003 5.29e-4,-0.005 z m 0.727088,0.51108 v 10e-4 c -0.02418,0.0281 -0.03774,0.0474 -0.0098,0.0336 0.01323,-0.007 0.02341,-0.0177 0.03566,-0.0258 -0.0062,-0.002 -0.01998,-0.006 -0.02584,-0.009 z m 4.402315,4.25194 v 5.3e-4 5.2e-4 5.3e-4 0.001 10e-4 5.3e-4 5.3e-4 c 0.139217,-0.0196 0.310278,0.0968 0.381372,0.36742 0.02266,0.0863 0.01979,0.1173 0.06356,0.1819 0.0052,0.008 0.01435,0.0256 0.02015,0.0186 0.0062,-0.008 -0.02285,-0.0302 -0.01395,-0.0259 0.01864,0.01 0.03383,0.0257 0.04599,0.0429 0.02845,0.0402 0.04953,0.0846 0.07441,0.12713 -0.009,-0.0213 -0.0465,-0.0759 -0.02687,-0.0636 0.02921,0.0182 0.03777,0.0574 0.05995,0.0837 0.03852,0.003 0.0727,0.006 0.135909,0.0119 0.02395,0.002 0.07076,0.0333 0.09922,0.0217 -0.0027,-0.001 -0.0097,-5.3e-4 -0.0078,-0.003 0.0149,-0.0161 0.147833,-0.0104 0.213941,-0.009 0.103285,-0.0446 0.259292,-0.0474 0.361218,-0.0486 0.0057,5.3e-4 0.0113,2.6e-4 0.01705,0.002 0.02947,-0.0165 0.06745,-0.0123 0.100253,-0.0217 0.01174,-0.003 0.02099,-0.012 0.03256,-0.016 0.117861,-0.0396 0.07099,-0.006 0.113171,-0.0398 0.01476,-0.005 0.02982,-0.008 0.04444,-0.0124 0.0063,-0.005 0.0086,-0.008 0.01395,-0.0114 0.09886,-0.034 0.206165,-0.0604 0.306958,-0.0925 0.299473,-0.11935 0.177848,-0.21377 0.167948,0.39946 -0.009,0.55965 0.264145,-1.05771 0.291455,-0.49868 0.0082,0.16775 0.03725,0.33534 0.02481,0.50281 -0.0019,0.0252 -0.04278,0.0284 -0.06511,0.0403 -0.110885,0.0588 -0.12974,0.0616 -0.250114,0.10904 -0.04411,0.0131 -0.08763,0.0292 -0.132292,0.0403 -0.02959,0.007 -0.0746,0.0377 -0.09767,0.031 -0.02089,0.0166 -0.02888,0.0218 -0.06511,0.0181 -0.142091,0.0588 -0.349733,0.13661 -0.502295,0.1266 -0.03836,-0.001 -0.0764,0.004 -0.114722,0.002 -0.0046,0 -0.0075,-0.008 -0.01188,-0.007 -0.107828,0.027 -0.142057,0.0622 -0.232027,0.0522 -0.08344,-0.008 -0.164827,0.009 -0.248047,0.0103 -0.09616,-0.01 -0.08978,-0.005 -0.182934,-0.031 -0.01232,-0.003 -0.03626,-0.007 -0.05323,-0.0119 -0.0636,-0.004 -0.127308,-0.008 -0.189653,-0.0207 -0.02212,-0.004 -0.03748,-0.0255 -0.05529,-0.0393 -0.09129,-0.0709 -0.167094,-0.15258 -0.230994,-0.24547 v -5.3e-4 c 0.0018,0.002 0.0099,0.006 0.0078,0.004 -0.0043,-0.004 -0.0085,-0.008 -0.01292,-0.0124 v 5.3e-4 c 0.0011,0.002 0.0021,0.003 0.0031,0.005 -0.0051,-0.007 -0.01105,-0.0123 -0.0155,-0.0191 -0.02607,-0.0226 -0.05325,-0.044 -0.07545,-0.0703 -0.108171,-0.12804 -0.153323,-0.2947 -0.186035,-0.45475 -0.05599,-0.2742 0.05147,-0.42952 0.190686,-0.44907 z m 0.750341,1.24902 c -0.01454,0.007 -0.0283,0.0165 -0.04237,0.0248 0.0036,-5.3e-4 0.0073,2.6e-4 0.01085,-5.3e-4 0.01281,-0.003 0.0432,-0.0304 0.03152,-0.0243 z m 7.151502,14.67765 v 5.3e-4 0.001 5.3e-4 5.3e-4 5.3e-4 0.002 c 0.08401,0.001 0.169556,0.006 0.253214,0.01 0.04029,0.002 0.08562,-0.0121 0.120923,0.004 0.0032,-0.002 0.0063,-0.004 0.0098,-0.005 0.03289,-0.011 0.066,-0.005 0.09974,-0.007 0.03751,-0.001 0.07667,-0.005 0.114205,-0.002 0.02389,0.002 0.01818,0.004 0.04186,0.007 0.01302,0.002 0.02572,0.003 0.03876,0.005 0.07927,0.001 0.158843,0.008 0.237712,-0.004 0.01908,-0.001 0.03819,-0.004 0.05736,-0.005 0.07392,-0.003 0.148249,0.003 0.222208,5.3e-4 0.09572,-0.003 0.192391,-0.008 0.287321,0.008 0.05771,0.003 0.06319,0.003 0.125058,0.008 0.01445,0.001 0.02841,0.004 0.04289,0.004 0.02037,10e-4 0.0406,-0.003 0.06098,-0.003 0.01236,0 0.02487,4e-5 0.03721,5.3e-4 0.04789,0.004 0.09572,0.008 0.143661,0.0124 0.0319,0.002 0.06368,0.003 0.0956,0.005 0.05112,0.003 0.101782,0.007 0.152961,0.002 0.03344,-0.001 0.0536,-0.003 0.08682,-0.001 0.0448,0.002 0.07968,0.008 0.125056,0.0119 0.106653,0.0102 0.0426,0.002 0.130741,0.015 0.08701,0.01 -0.03541,-0.003 0.07855,0.005 0.02355,0.002 0.04678,0.008 0.07028,0.01 0.0554,0.005 0.111149,0.005 0.166399,0.0124 0.02125,0.001 0.04236,0.003 0.06356,0.005 0.007,0.001 0.0141,0.004 0.02119,0.004 0.01683,0.001 0.03378,1.1e-4 0.05064,5.3e-4 0.06072,0.001 0.121161,0.004 0.181901,0.003 0.03002,0 0.05991,0.001 0.08992,-0.002 0.02643,-0.001 0.05938,-0.0201 0.07958,-0.003 h 5.3e-4 c -1.22e-4,-0.001 1.27e-4,-2.7e-4 0,-0.002 0.0054,-0.001 0.01061,-0.003 0.01601,-0.004 h 5.29e-4 c 0.01289,-0.008 0.02506,-0.0129 0.03049,-0.002 0.0011,0.002 0.0011,0.003 0.0021,0.005 0.0016,3e-5 0.0035,-6e-5 0.0052,0 0.02122,0.001 0.04777,-0.01 0.06356,0.004 0.01291,0.0116 0.02096,0.0266 0.02842,0.0413 0.01498,-0.0358 0.0114,-0.0186 0.0036,0.006 -7.94e-4,-0.002 -0.0026,-0.004 -0.0036,-0.006 -0.0097,0.0234 -0.01971,0.0504 -0.02635,0.0558 -0.01648,0.0135 -0.0413,10e-4 -0.06356,-0.002 0.0055,-0.004 0.01061,-0.008 0.01394,-0.0155 -0.0057,0.005 -0.01,0.0104 -0.02429,0.0134 -0.0024,5.3e-4 -0.0048,-0.002 -0.0072,-0.002 -0.0027,7.9e-4 -0.0056,0.001 -0.0083,0.002 0.0011,5.3e-4 0.0019,2.2e-4 0.0026,5.3e-4 -0.004,-3e-5 -0.0081,-2e-4 -0.01085,0 -0.0056,2.5e-4 -0.01042,8e-5 -0.01291,-5.3e-4 -0.02998,0.005 -0.06478,0.005 -0.0832,0.006 -0.031,0.001 -0.06199,5.3e-4 -0.09302,0.002 -0.06232,0 -0.124773,-0.002 -0.187069,-0.003 -0.01659,-2.5e-4 -0.03307,5.3e-4 -0.04961,-5.3e-4 -0.01238,-0.001 -0.02487,-0.005 -0.03721,-0.006 -0.01812,-0.002 -0.03608,-0.003 -0.05426,-0.004 -0.05475,-0.007 -0.109937,-0.007 -0.164846,-0.0124 -0.02593,-0.002 -0.05161,-0.008 -0.07751,-0.0104 -0.1309,-0.008 0.07547,0.0105 -0.07545,-0.004 -0.09398,-0.014 -0.02479,-0.005 -0.129191,-0.015 -0.04457,-0.004 -0.08016,-0.009 -0.124023,-0.0119 -0.02627,-0.002 -0.04855,2.6e-4 -0.07493,0.001 -0.05473,0.006 -0.109127,0.001 -0.163814,-0.002 -0.03159,-0.001 -0.06301,-0.003 -0.09457,-0.005 -0.04891,-0.003 -0.0979,-0.009 -0.146759,-0.0129 -0.01069,-2.3e-4 -0.02135,-5.3e-4 -0.03204,-5.3e-4 -0.03011,0 -0.01215,0.004 -0.05064,0.003 -0.01905,-10e-4 -0.03835,-0.003 -0.05736,-0.004 -0.09271,-0.007 -0.04131,-0.004 -0.122473,-0.008 -0.09216,-0.016 -0.186135,-0.01 -0.279054,-0.008 -0.07507,0.002 -0.15027,-0.004 -0.225308,-0.001 -0.01588,0.001 -0.03173,0.003 -0.04754,0.005 -0.08254,0.013 -0.165613,0.006 -0.248563,0.005 -0.01643,-0.001 -0.03273,-0.003 -0.04909,-0.005 -0.01508,-0.002 -0.02797,-0.006 -0.04289,-0.007 -0.01651,-0.001 -0.03308,0.002 -0.04961,0.002 -0.01651,2.5e-4 -0.03309,5.3e-4 -0.04961,0.001 -0.02302,0.005 -0.04768,-0.003 -0.0708,0 -7.94e-4,0.001 -0.0024,0.003 -0.0031,0.004 -7.93e-4,-1.8e-4 -0.01029,-0.002 0.0021,-0.004 2.65e-4,-4e-5 7.94e-4,4e-5 0.0011,0 0.01079,-0.0144 0.03689,-0.0413 0.02273,-0.0367 -0.02347,0.007 -0.03134,0.0446 -0.05529,0.0496 -0.04383,0.0101 -0.0895,-0.004 -0.13436,-0.006 -0.08163,-0.003 -0.166402,-0.009 -0.248563,-0.009 -0.07505,0.005 -0.15022,0.004 -0.225309,0.003 -0.03052,8e-5 -0.06094,8e-5 -0.09147,0 -0.05209,0.015 -0.106262,0.0131 -0.159681,0.0103 -0.06329,-0.003 -0.125238,0.0184 -0.188619,0.0114 -0.01294,-10e-4 -0.03591,-0.003 -0.04703,-0.002 -0.01516,0.001 -0.03037,0.004 -0.04548,0.005 -0.04572,0.005 -0.09154,0.009 -0.137459,0.009 v -0.0434 c -0.0013,0.0161 -0.0035,0.0317 -0.01241,0.045 -0.01098,0.0159 -0.03896,0.004 -0.05839,0.005 -0.04366,0.003 -0.04425,0.003 -0.08062,0.003 -0.0735,-0.005 -0.147068,-0.004 -0.220657,-0.003 -0.01233,0.002 -0.02495,0.003 -0.03721,0.005 -0.04601,0.008 -0.04393,0.0121 -0.08992,0.0181 -0.01278,0.002 -0.02594,0.002 -0.03876,0.003 -0.008,0 -0.01577,0.002 -0.02377,0.003 -0.01106,10e-4 -0.02201,0.002 -0.03307,0.003 -0.01515,2.6e-4 -0.03036,5.3e-4 -0.04547,5.3e-4 -0.0145,5e-5 -0.02892,-0.002 -0.04341,-5.3e-4 -0.06466,0.002 -0.128963,0.0109 -0.192753,0.0212 -0.01046,0.001 -0.02108,-1.1e-4 -0.03152,0.002 -0.04289,0.004 -0.0361,0.007 -0.08837,0.0124 -0.06966,0.008 -0.139816,0.0141 -0.209806,0.0181 -0.04106,0.006 -0.08202,0.01 -0.123507,0.01 -0.01309,0 -0.02619,-5.3e-4 -0.03927,-5.3e-4 -0.03325,10e-4 -0.06657,0.006 -0.09974,0.008 -0.06266,-0.002 -0.122645,0.0171 -0.184485,0.0233 -0.13297,0.013 0.01928,-0.006 -0.07131,0.006 -0.09447,0.0254 -0.190878,0.0411 -0.286288,0.0625 -0.03619,0.008 -0.07399,0.009 -0.110071,0.0171 -0.02088,0.005 -0.03653,0.0111 -0.05684,0.0181 -0.0079,0.002 -0.04437,0.0103 -0.06046,0.0103 -0.02135,0.007 -0.04661,0.006 -0.0677,0.006 -0.0028,0.001 -0.03234,0.007 -0.03514,0.008 -0.0011,2.2e-4 0.0031,-2.4e-4 0.0031,5.2e-4 0,0.002 -0.0018,0.002 -0.0031,0.003 -0.02988,0.015 -0.02205,0.0106 -0.05271,0.0186 -0.03623,0.009 -0.0715,0.0198 -0.105937,0.0341 -0.0047,0.002 -0.0095,0.004 -0.01395,0.007 -0.0025,0.002 -0.0047,0.004 -0.0067,0.006 -0.08727,-0.007 -0.05964,0.0105 -0.09664,-0.0181 -0.0178,-0.0138 -0.02643,-0.0284 -0.03101,-0.0424 -0.0052,7.9e-4 -0.01038,0.002 -0.0155,0.003 -0.0272,0.008 -0.05314,0.0222 -0.0801,0.03 -0.01192,0.003 -0.02404,0.005 -0.03617,0.008 -0.05248,0.015 0.02872,-0.008 -0.03617,0.008 -0.001,2.3e-4 0.0035,6e-5 0.0026,5.3e-4 -0.0067,0.002 -0.01387,0.003 -0.02067,0.006 -0.0064,0.003 -0.01167,0.008 -0.01757,0.0108 -0.03721,0.0181 -0.07646,0.0321 -0.116272,0.0434 -0.01575,0.004 -0.03169,0.007 -0.04754,0.0114 -0.04674,0.012 0.0029,0.002 -0.03927,0.0103 l -5.29e-4,-5.3e-4 c -0.0046,0.001 -0.0063,0.003 -0.0093,0.004 -0.0176,0.008 -0.03591,0.0144 -0.05426,0.0207 -2.47e-4,2.4e-4 -0.0011,0.003 -0.0016,0.003 -0.01365,0.0134 -0.05233,0.022 -0.07183,0.0289 -6.35e-4,0 -10e-5,0.002 -5.29e-4,0.002 0.0014,-2.4e-4 0.0051,-0.002 0.0041,-5.3e-4 -0.03776,0.032 -0.0815,0.0553 -0.125574,0.0775 -0.007,0.004 -0.01689,0.0168 -0.02119,0.0103 -0.0088,-0.0132 -0.01211,-0.0292 -0.01705,-0.0444 -0.01515,0.0106 -0.02961,0.0226 -0.04444,0.0336 -0.02711,0.0205 0.02802,-0.0164 -0.02325,0.0186 l -0.0093,0.006 c 0.001,0.0254 -0.0035,0.0414 -0.0186,0.0114 -0.0035,0.002 -0.0072,0.004 -0.01085,0.006 -0.0061,0.002 -0.0152,0.0105 -0.0186,0.005 -0.01455,-0.0243 -0.0181,-0.0307 -0.02532,-0.0424 -0.0058,0.004 -0.01135,0.008 -0.01705,0.0119 -0.01545,0.008 -0.03058,0.0168 -0.04651,0.0238 -0.01457,0.006 -0.0301,0.0105 -0.04496,0.0155 -0.01709,0.006 -0.04827,0.0209 -0.06305,0.0269 -0.05619,0.0231 -0.02313,0.008 -0.06821,0.031 -0.03591,0.0185 -0.06966,0.0406 -0.10387,0.062 -0.03139,0.0212 -0.06162,0.0432 -0.09457,0.062 -0.0052,0.003 -0.01028,0.006 -0.0155,0.009 -0.04885,0.0289 -0.08926,0.0701 -0.137977,0.0992 -0.01382,0.008 -0.02902,0.0147 -0.04341,0.0217 -0.01627,0.007 -0.03218,0.0152 -0.04858,0.0222 -0.0027,10e-4 -0.0017,10e-4 -0.0041,0.002 -0.02435,0.0148 -0.04869,0.0297 -0.07338,0.0439 -0.03982,0.0239 -0.08175,0.044 -0.121956,0.0672 -0.01748,0.0101 -0.03446,0.021 -0.05168,0.0315 -0.08195,0.051 -0.170535,0.0895 -0.255799,0.13436 -0.0019,0.001 -0.0052,0.004 -0.0057,0.005 -3.17e-4,-2.6e-4 -7.94e-4,-7.9e-4 -0.001,-0.001 -8.73e-4,5.3e-4 -0.0017,0.001 -0.0026,0.002 -0.0081,0.008 -0.0171,0.0144 -0.02584,0.0217 -0.02297,0.0186 -0.04609,0.0369 -0.06925,0.0553 -0.0068,0.006 -0.01516,0.0127 -0.02326,0.0191 -0.02085,0.0365 -0.04998,0.0685 -0.07855,0.0987 -0.05579,0.059 -0.112484,0.11685 -0.170015,0.17415 -0.0088,0.007 -0.02009,0.0148 -0.03204,0.0217 -0.0019,0.004 -0.06399,0.0624 -0.06976,0.0682 -0.01776,0.0184 -0.0355,0.0352 -0.05633,0.0501 -0.0051,0.003 -0.0103,0.007 -0.0155,0.0103 -0.0013,0.001 -0.0028,0.001 -0.0041,0.002 -0.0053,0.007 -0.01435,0.01 -0.02119,0.015 0.01099,0.007 0.01669,0.0266 0.02429,0.0672 0.0046,-0.003 0.009,-0.006 0.01343,-0.009 0.0031,-0.002 0.01022,-0.011 0.0088,-0.007 0.0034,-0.003 0.007,-0.006 0.01033,-0.0103 0.0035,-0.003 0.0065,-0.006 0.01034,-0.008 0.0047,-0.003 0.0096,-0.005 0.01447,-0.007 -0.0058,0.007 -0.01578,0.0135 -0.01344,0.0222 0.0063,0.0224 0.02479,0.0393 0.03721,0.0589 0.005,0.007 0.0078,0.0104 0.01034,0.0124 -0.0026,0.004 -0.0051,0.007 -0.0083,0.0103 -0.004,0.004 -0.0093,0.007 -0.01395,0.0103 -0.02671,0.0186 -0.05556,0.0326 -0.08113,0.0527 -0.02639,0.027 -0.03313,0.0369 -0.06408,0.061 -0.01295,0.0101 -0.02072,0.0166 -0.02946,0.0227 0.0033,0.0321 -0.0194,0.0351 -0.04547,0.0522 -0.02199,0.0322 -0.04732,0.0711 -0.06046,0.092 -0.0029,0.005 -0.04523,0.0709 -0.0708,0.11162 -0.0012,0.003 -0.0019,0.005 -0.0031,0.008 5.82e-4,5.3e-4 0.0015,8e-5 0.0021,0.002 0.0013,0.001 -9.52e-4,0.003 -0.001,0.005 0.02622,0.0105 0.03227,0.0246 0.01137,0.047 -0.0075,0.008 -0.0151,0.0159 -0.02274,0.0238 -0.0043,0.005 -0.0079,0.0111 -0.01499,0.0155 -0.0035,0.004 -0.0068,0.007 -0.01033,0.0108 -8.2e-4,0.002 -0.0017,0.005 -0.0026,0.007 -0.002,0.006 -0.0044,0.0116 -0.0062,0.0176 -3.17e-4,0.006 0.0027,0.0128 -0.0021,0.0191 -0.0064,0.0242 -0.0096,0.0487 -0.01912,0.0718 -0.0072,0.0175 -0.01858,0.0354 -0.02842,0.0532 0.0042,-0.003 0.0071,-0.006 0.0124,-0.009 0.006,-0.003 0.0085,-7.9e-4 0.01292,-0.006 0.0058,-0.008 0.0097,-0.0168 0.0155,-0.0248 0.0043,-0.006 0.01,-0.011 0.01499,-0.016 0.02087,-0.0185 0.02181,-0.0206 0.04599,-0.0367 0.0032,-0.002 0.007,-0.004 0.01034,-0.006 0.0012,-0.0134 9.26e-4,-0.0239 0.0098,-0.0377 0.01568,-0.024 0.01715,-0.0223 0.03669,-0.0367 0.05528,-0.0406 0.01045,-0.01 0.07906,-0.0553 v 0.002 c 0.08125,-0.0541 0.134963,0.0316 0.05374,0.0858 -0.06755,0.0455 -0.02122,0.0124 -0.07235,0.0501 -0.0027,0.002 -0.0055,0.004 -0.0083,0.006 -0.0039,0.0389 -3.97e-4,0.0354 -0.03721,0.0682 -0.0062,0.006 -0.01429,0.007 -0.02119,0.0124 -0.01277,0.008 -0.01796,0.0141 -0.02894,0.0243 -0.0027,0.003 -0.0061,0.006 -0.0083,0.009 -9.26e-4,0.001 -8.47e-4,0.003 -10e-4,0.005 -0.0065,0.008 -0.01214,0.0167 -0.01964,0.0238 -0.01412,0.0127 -0.03511,0.0226 -0.05064,0.0341 -0.0066,0.005 -0.0124,0.011 -0.0186,0.016 -0.03677,0.0344 -0.07293,0.0713 -0.114205,0.10026 -0.02049,0.0129 -0.04136,0.0245 -0.0615,0.0382 -0.0041,0.003 -0.0071,0.007 -0.01137,0.009 -0.0097,0.004 -0.01995,0.008 -0.02997,0.0124 -0.0037,0 -0.0076,2.2e-4 -0.01137,5.3e-4 0.0027,10e-4 -0.0051,0.002 -0.0078,0.003 -0.02011,0.004 -0.03865,0.005 -0.05891,0.004 -0.01575,-0.0159 -0.03243,-0.0301 -0.04703,-0.047 -0.003,-0.004 -0.0032,-0.009 -0.0047,-0.0129 -0.0038,-0.0106 -0.0082,-0.0207 -0.01137,-0.0315 -0.01105,-0.0378 -0.01285,-0.0567 -0.01085,-0.0951 0.0011,-0.007 0.0022,-0.0142 0.0031,-0.0222 0.0032,-0.0111 6.09e-4,-0.0224 0.0021,-0.0336 0.0042,-0.0358 0.0079,-0.0369 0.0155,-0.0754 0.0026,-0.0132 0.0041,-0.0265 0.0062,-0.0398 0.0091,-0.043 0.01947,-0.0872 0.03307,-0.12971 -3.18e-4,-7.9e-4 -8.2e-4,-0.002 -10e-4,-0.003 6.88e-4,2.6e-4 0.0014,7.9e-4 0.0021,0.001 0.006,-0.0184 0.01549,-0.035 0.02325,-0.0527 -0.0095,-0.005 -0.01893,-0.0107 -0.02842,-0.016 -0.02426,0.0232 -0.01545,0.0188 0.0026,0.0672 -0.01051,-0.005 -0.0218,-0.009 -0.03152,-0.016 -0.0089,-0.006 0.0038,-0.0212 0.0072,-0.0315 0.01998,-0.0599 0.05587,-0.11155 0.08837,-0.16485 0.01467,-0.0272 0.02708,-0.0525 0.04703,-0.077 0.006,-0.007 0.01375,-0.013 0.02015,-0.0202 0.02551,-0.0275 0.03372,-0.0393 0.05788,-0.0703 0.01539,-0.0193 0.05034,-0.0631 0.06511,-0.0827 0.01291,-0.0171 0.02425,-0.035 0.03772,-0.0517 0.04242,-0.0525 0.09274,-0.0974 0.145727,-0.13901 0.01434,-0.0142 0.02924,-0.0281 0.04289,-0.0429 0.0262,-0.0284 0.05481,-0.0692 0.0832,-0.0956 0.01341,-0.0125 0.02883,-0.0221 0.04393,-0.0325 0.0039,-0.003 0.0087,-0.004 0.01292,-0.006 0.0071,-0.004 0.01377,-0.008 0.02067,-0.0124 0.01559,-0.0103 0.04819,-0.0313 0.06098,-0.0424 0.01544,-0.0134 0.02933,-0.0285 0.04393,-0.0429 0.03274,-0.0322 0.06629,-0.0641 0.09715,-0.0982 0.0059,-0.007 0.01147,-0.0142 0.01757,-0.0212 0.004,-0.005 0.0087,-0.008 0.0124,-0.0129 0.0086,-0.0111 0.01559,-0.0235 0.02429,-0.0346 0.0298,-0.0382 0.07038,-0.0662 0.10697,-0.0972 0.02189,-0.0173 0.06196,-0.048 0.09612,-0.0739 0.0033,-0.004 0.0074,-0.008 0.01137,-0.0124 0.0075,-0.007 0.01517,-0.0147 0.02326,-0.0217 0.01322,-0.0111 0.02863,-0.0194 0.04237,-0.03 -0.0038,-0.0168 -0.0015,-0.0368 0.01912,-0.0589 0.0261,-0.028 0.05542,-0.0519 0.08372,-0.0775 0.006,-0.005 0.01137,-0.0115 0.01757,-0.0165 0.01789,-0.0148 0.03528,-0.0255 0.05478,-0.0382 0.08288,-0.0527 0.174274,-0.0898 0.264584,-0.12764 0.10993,-0.0576 -0.03236,0.0167 0.07183,-0.0367 0.01054,-0.005 0.02087,-0.0115 0.03152,-0.0165 0.02272,-0.0111 0.05749,-0.0255 0.0801,-0.0362 0.01165,-0.006 0.02311,-0.0116 0.03462,-0.0176 0.01559,-0.007 0.03115,-0.0142 0.04703,-0.0202 0.04529,-0.0175 0.08357,-0.0279 0.129191,-0.0444 0.04,-0.0146 0.04691,-0.0196 0.08475,-0.0362 0.01585,-0.007 0.03213,-0.0136 0.04806,-0.0207 0.01329,-0.006 0.02782,-0.009 0.04134,-0.0134 0.01974,-0.009 0.03813,-0.0172 0.05994,-0.0248 0.0075,-0.002 0.01575,-0.003 0.02325,-0.006 0.0083,-0.003 0.01577,-0.007 0.02377,-0.0103 0.05344,-0.0351 0.100805,-0.0818 0.162264,-0.10335 0.02577,-0.009 0.05102,-0.0205 0.077,-0.0295 0.0091,-0.003 0.01871,-0.004 0.02791,-0.007 0.01671,-0.005 0.03166,-0.0147 0.04806,-0.0207 0.0086,-0.003 0.01797,-0.004 0.02687,-0.006 0.05701,-0.01 0.03966,-0.008 0.09715,-0.0119 0.0118,0 0.06263,-0.002 0.07752,-0.006 0.0067,-0.002 0.05908,-0.0283 0.05943,-0.0284 v -0.002 c 0.01859,-0.009 0.03601,-0.0152 0.05168,-0.0181 h 5.29e-4 c 0.0046,-0.003 0.0055,-0.007 0.01137,-0.009 0.03017,-0.0125 0.06212,-0.0237 0.09353,-0.0362 0.01439,-0.0101 0.029,-0.0198 0.04858,-0.0274 0.012,-0.005 0.03115,-0.006 0.05013,-0.01 0.04084,-0.0122 0.08208,-0.0231 0.123506,-0.0331 0.106444,-0.0258 0.162315,-0.037 0.271818,-0.046 0.01119,-7.9e-4 0.0224,-2.4e-4 0.03359,-5.3e-4 0.0106,-0.002 0.02696,-0.007 0.03514,-0.008 0.02949,-0.006 0.05966,-0.007 0.0894,-0.0109 0.02406,-7.9e-4 0.04824,-0.003 0.07235,-0.004 0.0261,-0.004 0.05236,-0.008 0.07855,-0.0103 0.02523,-0.003 0.05019,-0.005 0.07545,-0.008 0.05047,-0.003 0.101876,-0.008 0.152446,-0.009 0.01757,-5.3e-4 0.03513,0 0.05271,0 h 0.160713 v -0.002 c 0.04744,0 0.06641,0.0263 0.06201,0.0506 0.03303,-0.006 0.06588,-0.0103 0.09974,-0.009 0.0073,-0.001 0.10187,-0.008 0.11007,-0.008 0.01149,0 0.02313,0.001 0.03462,0.001 0.04005,0 0.07971,-0.005 0.119372,-0.0108 0.06732,-0.004 0.134528,-0.009 0.201538,-0.0176 0.06072,-0.008 0.04638,-0.008 0.09715,-0.0124 0.007,-5.3e-4 0.01419,-2.7e-4 0.02119,-5.3e-4 0.09573,-0.0156 0.192366,-0.0237 0.289388,-0.0217 0.09824,-0.008 -0.04806,0.004 0.05788,-0.006 0.0095,-0.001 0.01892,-2.6e-4 0.02842,-0.002 0.0438,-0.006 0.04872,-0.0101 0.0956,-0.0181 0.01609,-0.003 0.03239,-0.004 0.04858,-0.006 0.07338,0 0.146852,-0.002 0.220141,0.003 0.03296,0 0.03161,-2.6e-4 0.07286,-0.003 0.01802,-0.002 0.04009,-0.017 0.05374,-0.005 0.01151,0.01 0.0186,0.0233 0.02532,0.0372 v -0.0362 c -1.7e-4,-0.001 -1.56e-4,-0.002 -5.29e-4,-0.003 h 5.29e-4 c 0.0013,-2.5e-4 0.0038,-0.002 0.0036,-10e-4 0.08032,-0.001 0.16001,-0.0175 0.240295,-0.0109 0.0093,0.004 0.04666,-0.002 0.04806,-0.002 0.04416,-0.004 0.08824,-0.0147 0.132808,-0.0108 0.01992,0.002 0.03995,0.004 0.05995,0.003 0.0278,-0.001 0.03127,-0.002 0.05891,-0.007 0.01188,-0.002 0.02379,-0.004 0.03566,-0.006 0.03073,7e-5 0.06127,-5.3e-4 0.09198,-5.3e-4 0.07484,0 0.149476,7.9e-4 0.224277,-0.003 z m -0.892969,0.061 c -1.82e-4,0.007 -1.32e-4,0.0144 -5.29e-4,0.0217 0.0024,0.005 0.0047,0.009 0.0067,0.015 -0.0019,-0.0121 -0.0045,-0.0245 -0.0062,-0.0367 z m 4.595069,0.0465 c 0.0038,-0.004 0.0077,-5.3e-4 0.01138,0.0119 0.04359,0.009 0.08769,0.0158 0.131773,0.0222 0.04222,0.006 0.08426,0.012 0.126609,0.0171 0.120779,0.0141 0.242112,0.0224 0.362767,0.0377 v -0.002 c 0.09684,0.0122 0.09199,0.11245 -0.0052,0.10025 -0.122282,-0.0154 -0.245539,-0.0234 -0.367935,-0.0377 -0.04353,-0.005 -0.08683,-0.0121 -0.130225,-0.0181 -0.03893,-0.005 -0.0772,-0.0124 -0.115755,-0.0196 -0.02635,0.0151 -0.06722,7e-5 -0.09974,5.3e-4 -0.02574,1.8e-4 -0.11375,-0.005 -0.159681,-0.009 0.0013,-8e-5 -0.0013,-0.0242 -0.0026,-0.0992 -0.02262,0.004 -0.01188,0.002 0.05684,0.006 0.03454,0.002 0.0693,0.003 0.10387,0.005 0.02283,10e-4 0.05319,-0.0126 0.06873,0.003 0.0048,0.005 0.0054,0.0135 0.0073,0.0227 0.0039,-0.0226 0.008,-0.0362 0.01188,-0.0408 z m -0.364318,0.004 c 0.0046,0.0101 0.0089,0.0203 0.01085,0.0284 0.0052,0.006 0.0105,0.0116 0.01394,0.0176 5.29e-4,-0.006 0.0042,-0.0154 0.0036,-0.0176 -0.0029,-0.0108 -0.01355,-0.0189 -0.02016,-0.0279 -0.0028,-5.3e-4 -0.0055,2.6e-4 -0.0083,-5.3e-4 z m 0.0987,0.046 c 0.01297,0.0279 0.0177,0.0518 0.01913,0.0532 -0.004,-5.3e-4 -0.01074,4e-5 -0.01394,-5.3e-4 -0.0072,-10e-4 -0.01368,-0.004 -0.02066,-0.006 0.01945,-0.0585 0.01185,-0.0359 0.01551,-0.0465 z m 0.265102,0.061 c 0.0011,-1.5e-4 0.0011,0.002 0.0026,0.001 l 5.29e-4,-5.3e-4 c -0.0011,-2e-4 -0.0021,-1.6e-4 -0.0031,-5.3e-4 z m -7.373711,0.11059 c -0.01323,0.005 -0.02676,0.01 -0.04031,0.0155 0.0025,0.002 0.0047,0.003 0.0072,0.005 0.0047,-5.3e-4 0.0131,-10e-4 0.01499,-0.002 v 5.2e-4 c 0.005,-7.9e-4 0.01011,-0.002 0.01499,-0.003 0.0025,-7.9e-4 0.0048,-0.002 0.0072,-0.003 -0.0012,-0.005 -0.0029,-0.009 -0.0041,-0.0129 z m -1.625224,0.65319 c -0.0038,0.002 -0.0076,0.004 -0.01137,0.007 0.0038,-0.002 0.0075,-0.004 0.01137,-0.006 z m -0.01137,0.007 c -0.01369,0.007 -0.02721,0.0144 -0.04083,0.0217 0.0035,-0.001 0.0068,-0.003 0.01034,-0.004 0.01041,-0.006 0.02044,-0.0121 0.03049,-0.0181 z m -0.745691,0.88935 c 0.0031,5.3e-4 0.0079,0.006 0.01499,0.0155 0.01422,0.0199 0.03589,0.0364 0.04289,0.0599 0.0074,0.0248 -0.02971,0.04 -0.04651,0.0517 -7.14e-4,10e-4 -0.0015,0.003 -0.0031,0.002 v -5.3e-4 -5.2e-4 c 6.88e-4,-5.3e-4 0.0023,-0.001 0.0031,-0.002 3.97e-4,-7.9e-4 1.58e-4,-0.002 5.29e-4,-0.003 3.18e-4,-2.6e-4 8.47e-4,-7.9e-4 0.001,-0.001 v -5.2e-4 h -5.29e-4 v -0.001 c -0.0018,-0.0316 -0.02731,-0.12195 -0.0124,-0.11886 z m -0.256832,0.73897 c -0.0023,0.002 -0.0046,0.003 -0.0067,0.005 -0.0013,0.001 0.0035,-0.002 0.0052,-0.002 0.0018,-2.6e-4 0.0015,-0.003 0.0016,-0.003 z m -0.426847,0.20981 c -0.0049,0.007 -0.0096,0.0137 -0.0155,0.0248 0.0014,0.004 0.0022,0.008 0.0036,0.0124 0.0093,-0.002 0.0186,-0.003 0.02791,-0.005 0.0063,-0.004 0.01274,-0.008 0.01912,-0.0119 -0.01131,-0.007 -0.02336,-0.014 -0.03514,-0.0207 z m -0.02481,0.0388 c -2.55e-4,5.3e-4 -1.87e-4,5.3e-4 -5.29e-4,0.001 6.88e-4,-1e-4 0.0014,-1.6e-4 0.0021,-5.2e-4 -5.03e-4,-2.2e-4 -0.0011,-1.6e-4 -0.0016,-5.3e-4 z"
         style="fill:#ff0000;fill-opacity:1;fill-rule:nonzero;stroke:none;stroke-width:0.264583"
         id="path4453" />
    </clipPath>
  </defs>
  <sodipodi:namedview
     inkscape:window-maximized="0"
     inkscape:window-y="26"
     inkscape:window-x="1440"
     inkscape:window-height="1054"
     inkscape:window-width="1920"
     showgrid="false"
     inkscape:document-rotation="0"
     inkscape:current-layer="layer1"
     inkscape:document-units="mm"
     inkscape:cy="367.18144"
     inkscape:cx="351.61204"
     inkscape:zoom="7.1368053"
     inkscape:pageshadow="2"
     inkscape:pageopacity="0.0"
     borderopacity="1.0"
     bordercolor="#666666"
     pagecolor="#ffffff"
     id="base" />
  <metadata
     id="metadata3308">
    <rdf:RDF>
      <cc:Work
         rdf:about="">
        <dc:format>image/svg+xml</dc:format>
        <dc:type
           rdf:resource="http://purl.org/dc/dcmitype/StillImage" />
        <dc:title></dc:title>
      </cc:Work>
    </rdf:RDF>
  </metadata>
  <g
     id="layer1"
     inkscape:groupmode="layer"
     inkscape:label="Layer 1">
    <path
       sodipodi:nodetypes="cccccccccsscscscccccsccccccsscssccccccscccscscccccscsccccccccccssscssscccscc"
       style="fill:#ff0000;fill-opacity:1;fill-rule:nonzero;stroke-width:0.0352777"
       id="path78-4"
       d="m 73.029406,77.524105 c -1.72861,0.599722 -5.08,3.527777 -5.67972,4.938888 -0.28222,0.705556 -0.91722,1.199445 -2.2225,1.693334 -1.16417,0.458611 -2.18722,1.199444 -2.89278,2.046111 l -1.09361,1.375833 v 4.974166 4.938889 l 7.69056,0.03528 c 7.19666,0.03528 7.76111,0.07055 8.21972,0.705555 0.38805,0.564445 0.51012,2.328359 0.49389,8.572499 -0.0223,8.56619 0.19742,8.63378 -0.59423,8.61703 -1.53724,-0.0325 0.69027,-0.0223 -2.61404,-0.0148 -0.0708,-0.68127 -0.31951,-1.54672 -0.31951,-7.47338 v -7.02028 h -7.72583 c -9.2075,0 -8.85473,0.17639 -8.85473,-4.233333 l -0.0353,-2.645833 -1.05834,1.234722 c -2.46944,2.822222 -3.56305,6.808614 -2.82222,10.230554 0.38806,1.79917 0.38806,1.83444 -0.81139,3.21028 -2.54,2.96333 -3.10444,8.74889 -1.23472,12.48833 l 0.88194,1.76389 3.81,0.10583 3.77473,0.10584 -0.10584,-2.75167 -0.10583,-2.75167 -2.46945,-0.10583 c -3.31759,-0.13942 -3.38497,0.0452 -3.35138,-1.62278 0.031,-1.54008 0.0321,-1.62278 3.42194,-1.62278 h 2.57528 v -3.98638 c 0,-2.64584 -0.0765,-4.48213 0.32257,-4.4769 0.62993,0.008 8.6196,-0.0959 9.94326,-0.003 0.13456,3.84764 -0.1257,1.48673 0.0488,2.60379 0.0554,0.5241 0.68488,0.49558 -3.50601,0.4301 l -3.45723,0.0353 -0.10583,8.39611 c -0.0353,5.46805 -0.21167,8.5725 -0.45861,8.89 -0.28222,0.3175 -1.48167,0.45861 -4.26861,0.45861 h -3.88053 l 0.21166,0.9525 c 0.3175,1.19944 2.08139,3.73944 3.24556,4.65667 0.84666,0.635 1.41111,0.74083 4.93889,0.74083 h 4.02166 v -2.39889 c 0,-1.30528 0.17639,-2.61056 0.35278,-2.89278 0.28222,-0.42333 1.55222,-0.56444 7.05556,-0.635 l 6.70277,-0.10583 v -1.94028 -1.905 h -6.70277 c -6.24417,0 -6.70278,-0.0353 -7.05556,-0.67028 -0.49389,-0.98777 -0.45861,-8.60777 0.0705,-9.13694 0.56445,-0.56445 1.86972,-0.52917 2.32833,0.0353 0.21167,0.21167 0.42334,1.76389 0.49389,3.42194 l 0.10584,2.99862 5.3975,0.10583 5.36222,0.10583 V 104.79382 89.624382 h -5.60917 -5.57389 l 0.069,1.342136 c -0.21166,1.869722 0.20534,2.032426 -2.64109,1.909744 -1.12784,-0.04861 -1.06149,-0.0063 -1.06149,-2.722714 0,-3.386666 0.24694,-3.704166 2.99861,-3.704166 h 2.29305 v -2.257778 c 0,-2.398888 -0.36488,-2.895942 0.86984,-2.895942 2.68848,0 2.30516,0.285387 2.30516,2.754831 v 2.398889 h 3.175 3.175 V 82.99216 c 0,-3.774722 -0.3175,-4.621389 -2.11666,-5.538611 -1.27,-0.670278 -3.95111,-0.635 -5.92667,0.07056 z" />
    <path
       style="fill:#ff0000;fill-opacity:0.905882;stroke-width:0.0352777"
       id="path82-0"
       d="m 70.207186,132.62799 c 0,3.31611 -0.10583,3.45722 -2.68111,3.73945 -1.19945,0.14111 -3.21028,0.17638 -4.40972,0.10583 l -2.2225,-0.14111 0.21166,1.23472 c 0.10584,0.67028 0.635,1.79917 1.19945,2.46944 l 1.02305,1.27 4.58611,0.10584 4.62139,0.10583 0.14111,-2.50472 c 0.14111,-2.96333 0.77611,-3.88056 2.29306,-3.31611 l 0.98778,0.3175 0.10583,3.88055 c 0.14111,4.93889 -0.0353,5.11528 -4.37444,5.11528 -1.62278,0 -2.96334,0.14111 -2.96334,0.28222 0,0.635 2.39889,2.54 3.84528,3.06917 1.72861,0.59972 4.83305,0.70556 6.17361,0.17639 0.49389,-0.17639 1.23472,-0.84667 1.62278,-1.48167 0.635,-1.05833 0.70555,-1.79916 0.70555,-8.85472 v -7.65528 h -5.43277 -5.3975 z" />
    <path
       transform="matrix(1.1089338,0,0,1.0403994,68.698033,-8.4426106)"
       sodipodi:nodetypes="ccssssssssscssscsscsssssssssssscsscccscsssssccscscccssssccccscccccccssscsssssssscccssscssssssssscssssssssscsssssssssssccsssscccsccccssssssssssssssssssssssssssccc"
       clip-path="url(#clipPath4451)"
       id="path3468"
       d="m 13.902021,143.0654 c -0.185459,-2.19069 0.393393,-2.42347 1.082694,-2.55553 0.162581,-0.0311 0.694669,-0.13009 1.182417,-0.21986 1.138145,-0.20947 1.487805,-0.47878 2.244643,-1.72879 0.466667,-0.77076 0.757391,-1.08469 1.182418,-1.27683 0.722664,-0.32668 1.756161,-0.34627 1.875398,-0.0355 0.133446,0.34775 -0.339711,1.42594 -1.586796,3.61587 -1.721712,3.02339 -1.931516,4.01661 -0.955124,4.52152 0.977521,0.5055 2.603836,-0.13645 4.282066,-1.69023 1.651728,-1.52925 1.768333,-1.81443 1.912276,-4.67692 0.133755,-2.65986 0.289351,-3.24932 0.989256,-3.7477 0.24438,-0.17401 1.434936,-0.74067 2.645678,-1.25922 3.630998,-1.55516 3.762366,-2.12704 3.762366,-2.73476 0,-0.43604 0.05992,-0.68139 -1.003475,-1.24145 -0.778515,-0.41003 -0.722804,-0.49555 -3.277854,-0.30678 l -1.769568,0.13073 -1.416718,0.47296 c -0.408228,0.13629 -0.839943,0.65907 -1.652857,1.28597 -1.469324,1.13311 -3.435586,1.11513 -3.647501,1.11618 -0.213726,0.001 -0.367911,-0.40824 0.137335,-1.46252 1.461278,-3.04917 2.678358,-3.46684 8.398247,-3.71999 4.246367,-0.18793 5.60138,-0.39845 6.571491,-1.02097 2.20894,-1.41747 3.222598,-5.12453 2.183423,-7.98499 -0.229235,-0.63099 -0.537588,-1.04635 -1.37791,-1.85607 -1.218443,-1.17407 -1.253395,-1.34605 -0.447201,-2.20052 0.387879,-0.4111 0.602715,-0.50438 1.365244,-0.5928 1.002538,-0.11625 1.747065,-0.48843 1.862855,-0.93122 0.115326,-0.441 -0.230309,-1.28236 -0.880671,-2.14376 -1.022207,-1.3539 -1.296771,-2.10754 -0.88945,-2.44144 0.101616,-0.0833 0.460587,-0.22519 0.797716,-0.31531 0.992312,-0.26526 1.043594,-0.78375 0.200303,-2.02518 -0.324972,-0.47839 -0.591016,-0.91388 -0.591209,-0.96774 -1.48e-4,-0.0539 0.322824,-0.48618 0.717815,-0.96071 0.760733,-0.91392 1.203264,-1.66215 1.203264,-2.03446 0,-0.1241 -0.167582,-0.33544 -0.372404,-0.46964 -1.147646,-0.75197 -4.189187,0.84828 -4.671401,2.45777 -1.945309,3.37422 1.293113,5.76728 0.690458,7.55065 -0.567868,1.45483 -5.028804,1.63008 -4.613204,3.12216 0.786673,2.82429 3.712291,5.86281 2.704782,7.53591 -0.878739,1.04432 -1.555183,2.70458 -5.866013,2.91092 -3.131947,0.14991 -4.734325,0.45422 -5.172617,0.98233 -0.10491,0.12641 -0.667679,0.55954 -1.250599,0.96251 -1.134541,0.7843 -1.861322,1.65685 -2.231731,2.67933 -0.12659,0.34945 -0.321604,1.61135 -0.433361,2.80423 -0.222223,2.37196 -0.524912,3.3061 -1.23027,3.79678 -3.661461,2.69886 -2.157138,-2.34412 -2.246231,-4.79041 -0.05861,-1.4886 -0.033,-1.70024 0.289626,-2.39346 v 0 l 0.04461,-2.79153 c 0.03239,-2.02704 -0.305628,-2.04193 -0.03079,-2.85351 0.318781,-1.36036 2.086626,2.93436 2.740924,1.69982 1.600504,-5.0104 -5.008175,-7.29519 -1.030001,-11.50734 0.540573,-0.54058 1.016839,-0.64216 1.633008,-0.34833 1.053685,0.50246 1.239679,1.27542 0.924338,3.84141 -0.145613,1.18488 -0.134212,1.47911 0.08701,2.24535 0.776647,2.69004 1.726173,3.11114 4.506325,3.73123 0.907073,0.20232 1.667382,0.27517 3.674202,-0.77517 0.790778,-2.15967 -0.07432,-2.58946 -0.828754,-2.54958 -1.375169,0.0677 -1.785191,0.0388 -2.190588,-0.15451 -2.600112,-1.57087 0.0884,-2.42648 0.886962,-2.60428 1.356344,-0.14176 1.756648,-0.44567 1.964852,-1.49168 0.367569,-1.84667 -0.475463,-2.75442 -1.771469,-3.24541 -0.749233,0.0105 -3.618797,-1.55849 -3.739108,-1.468 -2.134301,-0.44382 -2.027378,-1.6604 -0.284838,-2.39194 0.271476,-0.11343 0.869323,-0.21851 1.328544,-0.23352 0.771658,-0.0252 0.87643,0.0124 1.382083,0.49678 0.66358,0.63559 1.35499,1.00003 1.89725,1.00003 4.042565,1.03204 4.868556,-0.98493 3.669796,-2.51629 -0.362677,-0.24953 -0.76051,-0.64919 -0.884073,-0.88813 -0.123561,-0.23894 -0.430088,-0.66842 -0.681167,-0.95438 -0.367176,-0.41819 -0.436502,-0.59935 -0.354272,-0.92576 l 0.102235,-0.40583 0.252304,0.31086 c 0.564682,0.69572 1.239824,0.82031 1.848911,0.34121 0.548725,-0.43163 0.846362,-1.07562 0.884907,-1.91463 0.0389,-0.84676 0.311959,-1.20474 1.301869,-1.70673 0.851953,-0.43204 1.155755,-0.84571 1.155755,-1.573736 0,-0.473739 -0.07435,-0.605827 -0.480356,-0.853374 -0.621948,-0.379208 -1.300726,-0.373025 -1.795748,0.01635 -0.574702,0.452056 -1.037312,0.277323 -1.573689,-0.5944 -0.496435,-0.806807 -0.555168,-1.342171 -1.608345,-1.793614 -0.509455,-0.236131 -1.833,-0.248126 -1.833,-0.248126 -0.480948,1.369537 -0.553926,1.010491 -0.377362,2.465437 0.13266,1.09465 0.562739,1.668233 -1.002118,2.246443 -3.777278,1.3957 -4.614431,1.78293 -6.84475,4.62311 -0.478766,0.60969 -1.232079,1.05437 -1.363998,1.24522 l -0.239852,0.34699 -0.165929,-0.31004 c -0.09126,-0.17052 -0.296613,-0.31004 -0.456334,-0.31004 -0.767575,0 -0.06767,-1.80517 1.336619,-3.44738 0.948351,-1.10903 1.725327,-1.75229 2.82357,-2.33764 1.651725,-0.880362 2.643918,-1.976542 2.643918,-2.92102 0,-1.624734 -1.678718,-2.088962 -3.791958,-1.048617 -0.838439,0.412763 -1.684232,1.160772 -1.86362,1.648161 -0.05977,0.162398 -0.11594,0.158231 -0.304876,-0.02262 -0.148188,-0.141849 -0.243605,-0.529574 -0.264917,-1.076471 -0.03149,-0.807992 -0.0056,-0.878424 0.472538,-1.287012 0.497377,-0.425001 1.374256,-1.132504 3.205316,-1.62896 0.570801,-0.154763 1.080907,-0.04564 1.330219,-0.295 0.254767,-0.254821 0.705152,-0.473501 1.217298,-0.591051 1.501756,-0.344683 2.357032,-0.729337 2.450599,-1.102137 0.103492,-0.412351 -0.25396,-1.155682 -0.709014,-1.474415 -0.513559,-0.359709 -1.070576,-0.284837 -3.781795,0.508336 -2.42289,0.708824 -3.813768,0.912495 -4.26615,0.624711 -0.130035,-0.08272 -0.935956,-1.956192 -0.935956,-2.175756 0,-0.0208 0.199536,-0.07774 0.443408,-0.126511 0.606703,-0.12134 0.605107,-0.653378 -0.0032,-1.056785 -0.61154,-0.405575 -0.780545,-1.136817 -0.699855,-3.028101 0.06135,-1.437875 0.118277,-1.680554 0.763262,-3.253499 1.101521,-2.686317 2.006513,-4.323826 2.526297,-4.57114 0.695992,-0.33115 2.584347,-0.391494 3.146944,-0.100563 1.018484,0.526679 1.025467,1.323316 0.02806,3.201223 -1.665372,3.135532 -2.082265,4.076909 -2.166376,4.891862 -0.09716,0.94134 0.127053,1.49954 0.844939,2.103599 0.529949,0.445924 0.834329,0.47276 1.87086,0.164942 0.912548,-0.270997 1.026478,-0.400297 1.309233,-1.485863 0.320283,-1.229654 0.87907,-2.167745 1.833562,-3.078176 0.912384,-0.870265 1.795981,-1.37364 3.247893,-1.850276 1.767395,-0.580208 5.799936,-0.363178 7.880133,0.424103 1.51477,0.765732 4.80508,3.969665 4.150266,5.469705 -0.472983,0.441608 -1.897993,1.282099 -2.574611,0.999389 -0.41909,-0.175106 -0.97436,-1.01142 -1.222837,-1.49128 -0.834826,-1.612215 -1.603856,-1.673085 -2.593376,-2.08878 -1.179865,-0.495659 -3.153393,-0.400545 -4.894414,0.525676 -0.896019,0.476681 -1.331216,0.876242 -1.657721,1.465181 -0.463149,0.808333 -0.393473,1.215872 -0.115819,1.721188 1.024542,1.162495 2.884439,3.06236 3.910857,3.058662 0.452401,-0.02845 0.960319,-0.306231 1.598653,-0.629292 0.649536,-0.32873 1.758572,-0.721606 2.559341,-0.906648 1.001762,-0.312489 1.300298,-0.434764 2.012239,0.248192 0.716393,0.687226 1.299366,1.848162 1.301358,2.591533 l 0.0016,0.538774 -2.512854,0.848249 c -2.303934,0.777724 -2.538301,0.88942 -2.818916,1.343464 -0.563639,0.911987 -0.06697,1.321057 1.710613,1.408885 0.69981,0.03458 0.942113,-0.07481 4.567695,-2.062163 2.738388,-1.501055 3.967404,-2.098677 4.31591,-2.098677 1.008565,0 1.976245,0.312071 2.500326,0.806344 0.463994,0.4376 0.513927,0.562438 0.512104,1.28034 -0.0027,1.057492 -0.124529,1.460571 -0.441513,1.460571 -0.143688,0 -0.808488,0.273902 -1.477333,0.608666 -1.316501,0.658932 -2.860421,2.031728 -3.276047,2.912937 -0.221223,0.46904 -0.212646,0.54043 0.186486,1.55192 0.455531,1.15442 0.531366,1.83684 0.243801,2.19387 -0.101614,0.12616 -0.500682,0.44136 -0.886815,0.70046 -0.855096,0.57376 -0.889106,0.87912 -0.184753,1.65876 0.284519,0.31492 0.517308,0.70691 0.517308,0.87108 0,0.16416 -0.271942,0.5935 -0.604314,0.95408 -0.698288,0.75755 -0.701929,0.6452 0.104669,3.22966 0.497581,1.59431 0.604475,2.24675 0.383456,2.34046 -0.06391,0.0271 -0.267968,0.26543 -0.453472,0.52963 -0.185505,0.26419 -0.427485,0.48036 -0.537734,0.48036 -0.158509,0 -0.140941,0.16931 0.08397,0.80922 0.419754,1.19427 0.363133,2.35908 -0.2326,4.78526 -0.284361,1.15809 -0.6169,3.00647 -0.738976,4.10751 -0.448945,4.04924 -0.730393,4.68611 -4.177853,9.45384 -4.312129,5.96355 -5.190622,7.2686 -5.866582,8.71511 -1.528503,3.27091 -3.547065,5.19284 -7.370921,7.01809 -2.264842,1.08108 -4.788744,1.86433 -6.362015,1.97434 -3.564682,0.2969 -1.512353,-5.58083 -1.693079,-8.35393 z"
       style="opacity:1;fill:#ff0000;fill-opacity:1;stroke:#012d00;stroke-width:0;stroke-miterlimit:4;stroke-dasharray:none;stroke-dashoffset:0;stroke-opacity:1" />
    <path
       id="path4573"
       d="m 91.936679,127.93744 c -0.03064,-0.0573 -0.02951,-0.12657 0.004,-0.24787 0.02564,-0.0926 0.04646,-0.19516 0.0463,-0.22788 -5.3e-4,-0.0893 0.288327,-0.4513 0.513278,-0.64345 0.332568,-0.28407 0.678669,-0.59208 0.817316,-0.72737 0.07236,-0.0706 0.277604,-0.19158 0.456089,-0.26882 0.669819,-0.28987 1.098836,-0.46233 1.150096,-0.46233 0.02912,0 0.177366,-0.0435 0.329441,-0.0966 0.349615,-0.12214 0.884962,-0.19432 1.277472,-0.17223 0.167222,0.009 0.598511,-0.006 0.958424,-0.0346 0.773763,-0.0611 0.991494,-0.0654 0.991494,-0.0196 0,0.0186 -0.218625,0.0452 -0.485833,0.059 -0.862627,0.0446 -1.387975,0.10115 -1.861847,0.20032 -0.255111,0.0534 -0.499454,0.0877 -0.54298,0.0764 -0.07249,-0.0189 -0.565886,0.11909 -0.658892,0.18435 -0.0218,0.0153 -0.140232,0.0495 -0.263155,0.0759 -0.122922,0.0264 -0.328162,0.11113 -0.456088,0.18824 -0.127926,0.0771 -0.402138,0.22848 -0.60936,0.33637 -0.452482,0.23558 -1.016785,0.73196 -0.90924,0.79979 0.05253,0.0331 0.03407,0.0676 -0.119116,0.22237 -0.155183,0.1568 -0.366614,0.55993 -0.293671,0.55993 0.01243,0 0.08484,-0.0546 0.160906,-0.12143 0.07606,-0.0668 0.147423,-0.11229 0.158583,-0.10113 0.03758,0.0376 -0.506618,0.50018 -0.588409,0.50018 -0.01778,0 -0.05146,-0.0358 -0.07485,-0.0795 z m 0.158726,-0.0395 c 0,-0.0218 -0.0168,-0.0397 -0.03732,-0.0397 -0.02053,0 -0.04835,0.0179 -0.06183,0.0397 -0.01349,0.0218 0.0033,0.0397 0.03732,0.0397 0.03401,0 0.06183,-0.0179 0.06183,-0.0397 z"
       style="opacity:1;fill:#ff0000;fill-opacity:1;stroke:#012d00;stroke-width:0.0106426;stroke-miterlimit:4;stroke-dasharray:none;stroke-dashoffset:0;stroke-opacity:1" />
    <path
       id="path4575"
       d="m 98.946636,125.05583 c 0.0273,-0.011 0.0719,-0.011 0.0991,0 0.0273,0.011 0.005,0.02 -0.0496,0.02 -0.0545,0 -0.07684,-0.009 -0.0496,-0.02 z"
       style="opacity:1;fill:#ff0000;fill-opacity:1;stroke:#012d00;stroke-width:0.0106426;stroke-miterlimit:4;stroke-dasharray:none;stroke-dashoffset:0;stroke-opacity:1" />
    <path
       transform="scale(0.26458333)"
       id="path4577"
       d=""
       style="opacity:1;fill:#ff0000;fill-opacity:1;stroke:#012d00;stroke-width:0.0402239;stroke-miterlimit:4;stroke-dasharray:none;stroke-dashoffset:0;stroke-opacity:1" />
    <path
       id="path4579"
       d="m 102.62844,125.13745 c -0.0364,-0.004 -0.1341,-0.0128 -0.21719,-0.0191 -0.0831,-0.006 -0.17871,-0.0155 -0.21247,-0.0204 -0.0338,-0.005 -0.17824,-0.0127 -0.32106,-0.0175 -0.34485,-0.0115 -0.67224,-0.0269 -0.78849,-0.0372 -0.0519,-0.005 -0.20492,-0.006 -0.33995,-0.002 -0.34725,0.008 -0.769607,0.005 -0.769607,-0.006 0,-0.004 0.005,-0.0122 0.0113,-0.0184 0.0238,-0.0238 -0.015,-0.0114 -0.0404,0.013 l -0.0254,0.0243 -0.21595,-0.009 c -0.11878,-0.005 -0.21849,-0.008 -0.22157,-0.006 -0.003,0.002 -0.122067,0.004 -0.264407,0.004 -0.14233,5.3e-4 -0.282159,0.005 -0.310723,0.009 -0.02857,0.004 -0.128757,0.0106 -0.22265,0.0139 l -0.170712,0.006 -0.0011,-0.0478 c -7.94e-4,-0.0312 0.0028,-0.0478 0.01019,-0.048 0.0062,-1.1e-4 0.100505,-0.005 0.209571,-0.0102 0.109067,-0.005 0.245044,-0.0122 0.302174,-0.0151 0.22744,-0.0113 2.083784,8e-4 2.332414,0.0151 0.10387,0.006 0.30784,0.0147 0.45326,0.0194 0.14543,0.005 0.33027,0.0154 0.41077,0.0238 0.0805,0.008 0.19311,0.0198 0.25025,0.0252 0.14216,0.0135 0.6501,0.0194 0.68046,0.008 0.0219,-0.008 0.0253,-0.006 0.0378,0.0239 0.008,0.0182 0.018,0.033 0.0231,0.033 0.013,0 0.0116,-0.0317 -0.002,-0.0453 -0.009,-0.009 -0.006,-0.0113 0.0125,-0.0113 0.0131,0 0.0334,0.0102 0.0451,0.0226 0.0203,0.0216 0.0206,0.024 0.006,0.0519 -0.0119,0.023 -0.0213,0.0293 -0.0438,0.0293 -0.0195,0 -0.0265,-0.004 -0.0218,-0.0111 0.005,-0.008 0.002,-0.009 -0.0113,-0.003 -0.0241,0.0105 -0.50066,0.0148 -0.58465,0.005 z"
       style="opacity:1;fill:#ff0000;fill-opacity:1;stroke:#012d00;stroke-width:0.00253399;stroke-miterlimit:4;stroke-dasharray:none;stroke-dashoffset:0;stroke-opacity:1" />
    <path
       id="path4581"
       d="m 104.2904,125.23632 c -0.005,-0.002 -0.0881,-0.0108 -0.18413,-0.0192 -0.0961,-0.008 -0.23632,-0.0238 -0.31163,-0.0339 -0.0753,-0.0102 -0.19853,-0.0206 -0.27384,-0.0231 -0.18474,-0.006 -0.17942,-0.005 -0.17942,-0.0563 v -0.0424 l 0.11834,0.001 c 0.0975,10e-4 0.11993,0.004 0.12733,0.0166 0.008,0.0131 0.01,0.0123 0.0149,-0.006 0.004,-0.0159 0.01,-0.019 0.0214,-0.0129 0.019,0.01 0.26706,0.0438 0.42153,0.0574 0.2923,0.0259 0.33523,0.0354 0.33523,0.0747 0,0.01 -0.006,0.0222 -0.0127,0.0281 -0.0141,0.0117 -0.0623,0.0214 -0.077,0.0155 z"
       style="opacity:1;fill:#ff0000;fill-opacity:1;stroke:#012d00;stroke-width:0.00253399;stroke-miterlimit:4;stroke-dasharray:none;stroke-dashoffset:0;stroke-opacity:1" />
    <path
       d="m 94.574631,125.60658 c 0.02508,-0.009 0.05038,-0.0173 0.07526,-0.0268 0.02384,-0.009 0.204814,-0.0825 0.2228,-0.0895 0.09453,-0.0369 0.187217,-0.0699 0.284319,-0.0989 0.04592,-0.0107 0.05664,-0.008 0.0312,-0.0113 0.0047,0.002 0.03381,-0.0638 0.02916,-0.0659 v 0 c -0.06508,-0.012 -0.03144,-0.01 -0.101,-0.005 -0.02736,0.006 -0.05503,0.0102 -0.08208,0.0172 -0.178544,0.0467 -0.349049,0.12441 -0.506338,0.22014 -0.0043,0.003 0.04242,0.0634 0.04667,0.0601 z"
       id="path4609"
       style="opacity:1;fill:#ff0000;fill-opacity:1;stroke:#012d00;stroke-width:0.0709999;stroke-miterlimit:4;stroke-dasharray:none;stroke-dashoffset:0;stroke-opacity:1" />
    <path
       d="m 95.181087,125.40078 c -0.01847,0.002 -0.03714,0.003 -0.0554,0.007 -0.07399,0.0145 -0.177212,0.0453 -0.243144,0.0684 -0.120176,0.0421 -0.246515,0.0956 -0.361315,0.15043 -0.05041,0.0241 -0.09936,0.0511 -0.14904,0.0766 -0.0069,0.005 0.06325,0.10186 0.0701,0.0969 v 0 c 0.210968,-0.0936 0.103106,-0.0451 0.329843,-0.14857 0.06323,-0.0288 0.23282,-0.10713 0.305258,-0.13724 0.05022,-0.0209 0.08339,-0.0312 0.131863,-0.0473 0.0047,-0.002 -0.02349,-0.0682 -0.02816,-0.0662 z"
       id="path4611"
       style="opacity:1;fill:#ff0000;fill-opacity:1;stroke:#012d00;stroke-width:0;stroke-miterlimit:4;stroke-dasharray:none;stroke-dashoffset:0;stroke-opacity:1" />
    <path
       d="m 95.2265,125.31104 c -0.287149,0.0622 -0.134437,0.0245 -0.457133,0.11694 -0.0093,0.005 0.06503,0.1362 0.07429,0.13095 v 0 c 0.306425,-0.11268 0.163653,-0.0586 0.428707,-0.16128 0.0061,-0.003 -0.03974,-0.0898 -0.04586,-0.0866 z"
       id="path4613"
       style="opacity:1;fill:#ff0000;fill-opacity:1;stroke:#012d00;stroke-width:0;stroke-miterlimit:4;stroke-dasharray:none;stroke-dashoffset:0;stroke-opacity:1" />
    <path
       d="m 94.720694,125.54658 c 0.06046,-0.0131 0.121065,-0.0256 0.181374,-0.0394 0.163418,-0.0374 0.385385,-0.0914 0.545502,-0.13382 0.08669,-0.023 0.173112,-0.047 0.259202,-0.0721 0.05981,-0.0175 0.125275,-0.0232 0.17844,-0.0557 0.01535,-0.009 -0.03229,-0.0159 -0.04844,-0.0238 -0.309012,0.0122 -0.111929,-0.0111 -0.49521,0.0958 -0.08085,0.0225 -0.161719,0.0453 -0.243499,0.0641 -0.0263,0.006 -0.05328,0.01 -0.08024,0.0106 -0.0053,2.1e-4 0.0095,-0.005 0.01386,-0.008 0.01587,-0.0114 0.03115,-0.0236 0.04672,-0.0354 -0.0041,-0.0228 0.008,-0.0574 -0.01243,-0.0683 -0.100949,-0.0541 -0.21549,-0.0202 -0.317254,-0.004 -0.0062,10e-4 -0.02259,-0.002 -0.01855,0.003 0.02482,0.0294 0.03342,0.0188 0.05525,0.008 -0.04739,-1e-4 -0.09707,-0.0149 -0.142165,-2.7e-4 -0.04878,0.0158 -0.0859,0.0561 -0.126715,0.0871 -0.03827,0.0291 -0.07311,0.0624 -0.110267,0.0929 -0.03868,0.0317 -0.07905,0.0614 -0.1172,0.0937 -0.03028,0.0257 -0.09199,0.0408 -0.08799,0.0803 0.0041,0.0402 0.06842,0.0428 0.102634,0.0643 0.07763,-0.0213 0.15416,-0.0469 0.229516,-0.0752 0.04775,-0.018 0.103235,-0.0354 0.145213,-0.0673 0.0058,-0.004 0.0077,-0.0124 0.01159,-0.0185 0.03454,-0.0178 0.07033,-0.0335 0.103627,-0.0535 0.03874,-0.0233 0.07973,-0.0449 0.112077,-0.0765 0.02674,-0.0261 0.01545,-0.0863 -0.01667,-0.10281 -0.02037,-0.0105 -0.04602,9e-5 -0.06857,0.004 -0.03722,0.007 -0.07334,0.0184 -0.110014,0.0275 -0.01236,0.007 -0.02357,0.016 -0.0371,0.0196 -0.02635,0.007 -0.05404,0.007 -0.08095,0.0115 -0.05889,0.01 -0.112813,0.0191 -0.170188,0.0338 -0.02633,0.007 -0.06438,-0.001 -0.07847,0.0223 -0.01434,0.0237 0.01035,0.0544 0.01553,0.0816 0.103867,0.0224 0.209682,0.0483 0.317143,0.0449 0.02162,-8e-4 0.05993,0.007 0.06332,-0.0141 0.0043,-0.0271 -0.0703,-0.0454 -0.05081,-0.0647 0.02074,-0.0206 0.05326,0.0239 0.07989,0.0359 -0.192718,-0.14068 -0.0019,0.0111 0.07568,-0.007 0.03762,-0.009 -0.06098,-0.0478 -0.09467,-0.0667 -0.0058,-0.003 -0.01312,0.002 -0.01968,0.003 -0.01714,0.003 -0.0348,0.003 -0.05141,0.008 -0.0569,0.0173 -0.112348,0.039 -0.168521,0.0585 -0.08958,0.13643 -0.05121,0.046 -0.0728,0.19405 -0.0046,0.0318 -0.03913,0.0704 -0.01807,0.0947 0.04211,0.0485 0.11556,0.0562 0.173339,0.0842 0.0074,0.003 0.05137,-0.10185 0.04395,-0.10496 v 0 c -0.04008,0.011 -0.08506,0.0551 -0.120229,0.0329 -0.0288,-0.0181 0.0087,-0.0675 0.0113,-0.10144 0.0013,-0.0177 -0.0073,-0.0374 7.94e-4,-0.0533 0.01056,-0.021 0.03383,-0.0326 0.05076,-0.0489 0.04428,-0.0272 0.08694,-0.0572 0.13285,-0.0816 0.0127,-0.007 0.02753,-0.009 0.04173,-0.011 0.01222,-0.002 0.0322,0.01 0.03706,-0.002 0.01307,-0.0306 0.0389,-0.10621 0.0063,-0.0996 -0.09856,0.02 -0.07541,0.21939 -0.08307,0.0432 0.0039,0.0277 0.02889,0.0611 0.01177,0.0832 -0.01603,0.0208 0.0019,-0.0583 -0.01662,-0.0769 -0.01423,-0.0143 -0.09955,0.0157 -0.112988,0.0128 -0.189177,-0.0414 0.09601,-0.0658 -0.184996,-0.0165 -0.0085,0.0174 -0.04121,0.041 -0.02537,0.0521 0.02032,0.0142 0.04737,-0.0148 0.07165,-0.0198 0.02545,-0.005 0.05168,-0.006 0.07717,-0.0105 0.03245,-0.006 0.06453,-0.0143 0.09648,-0.0228 0.115718,-0.0306 0.0396,-0.0198 0.130693,-0.0287 0.12047,-0.0578 0.09132,-0.009 0.09117,-0.0561 -5e-5,-0.0148 0.0086,-0.032 5.29e-4,-0.0445 -0.0046,-0.007 -0.01728,0.003 -0.02432,0.007 -0.09351,0.0628 -0.11076,0.0844 -0.189317,0.15782 -0.0041,-2.7e-4 -0.0084,-0.002 -0.01238,-0.001 -0.06823,0.021 -0.06517,0.0311 -0.13803,0.0628 -0.01786,0.008 -0.03641,0.0143 -0.05541,0.0186 -0.137436,0.0312 0.0029,-0.0256 -0.162005,0.0553 0.0021,0.027 -0.02074,0.0787 0.0062,0.081 0.03956,0.003 0.06344,-0.0477 0.09444,-0.0726 0.03912,-0.0313 0.07703,-0.0641 0.115861,-0.0957 0.03658,-0.0298 0.07413,-0.0584 0.110374,-0.0887 0.03864,-0.0322 0.08865,-0.0554 0.114223,-0.0987 0.02058,-0.0349 0.01011,-0.0803 0.01516,-0.12052 -0.02967,0.0292 -0.0841,0.0649 -0.03099,0.12281 0.02225,0.0243 0.06316,0.024 0.09604,0.0228 0.162531,-0.006 0.104264,-0.0161 0.196485,-0.0813 0.0026,-0.002 0.0057,0.003 0.0085,0.004 -0.02172,0.0435 -0.101285,0.14263 -0.01109,0.19224 0.05155,0.0283 0.116501,0.0262 0.175157,0.0217 0.168341,-0.0131 0.412951,-0.0961 0.554598,-0.17802 0.06855,-0.0397 0.121933,-0.10111 0.182901,-0.15167 -0.02341,-0.0186 -0.04045,-0.0533 -0.07024,-0.0558 -0.06042,-0.005 -0.436271,0.0943 -0.455387,0.0994 -0.238665,0.0642 -0.478695,0.13317 -0.701024,0.24313 -0.0052,0.003 0.04207,0.0762 0.04722,0.0729 z"
       id="path4615"
       style="opacity:1;fill:#ff0000;fill-opacity:1;stroke:#012d00;stroke-width:0;stroke-miterlimit:4;stroke-dasharray:none;stroke-dashoffset:0;stroke-opacity:1" />
    <path
       d="m 99.143336,124.89552 c -0.0333,-0.001 -0.0666,-0.004 -0.1,-0.004 -0.0481,5.3e-4 -0.096,0.004 -0.144019,0.007 -0.294288,0.013 -0.0811,0.002 -0.391078,0.0209 -0.258185,0.0158 -0.183771,0.0114 -0.446638,0.0241 -0.203403,0.005 -0.268036,0.003 -0.467293,0.0203 -0.06327,0.005 -0.126273,0.0136 -0.18935,0.0209 -0.112543,0.0131 -0.194111,0.0224 -0.304106,0.0425 -0.03814,0.007 -0.07588,0.016 -0.113816,0.0239 -0.01304,0.002 -0.164648,0.028 -0.185219,0.0303 -0.04221,0.005 -0.139843,0.008 -0.180991,0.01 -0.03439,0.001 -0.06879,0.003 -0.103203,0.002 -0.04475,-2.6e-4 -0.08946,-0.003 -0.134192,-0.004 -0.176929,-0.005 -0.354174,0.0131 -0.526018,0.0564 -0.06189,0.0156 -0.122806,0.0351 -0.182983,0.0563 -0.135572,0.0479 -0.248216,0.1018 -0.379426,0.16069 -0.06338,0.0305 -0.127055,0.0605 -0.190137,0.0916 -0.0581,0.0287 -0.11547,0.0588 -0.173368,0.0879 -0.05348,0.0269 -0.107509,0.0526 -0.160772,0.0799 -0.0733,0.0376 -0.192468,0.10028 -0.263377,0.14682 -0.03045,0.02 -0.05834,0.0436 -0.0875,0.0655 -0.01241,0.0103 0.13286,0.18581 0.145272,0.17553 v 0 c 0.13634,-0.0572 0.06295,-0.0261 0.220038,-0.0936 0.230629,-0.0974 0.463037,-0.19169 0.684197,-0.30973 0.117268,-0.0579 0.217503,-0.11185 0.340428,-0.15611 0.09613,-0.0346 0.224224,-0.066 0.325067,-0.0826 0.10591,-0.0174 0.213948,-0.0199 0.319358,-0.0413 0.04322,-0.005 0.08634,-0.0117 0.129654,-0.0164 0.03418,-0.004 0.0685,-0.006 0.102756,-0.009 0.127278,-0.0107 0.2545,-0.0209 0.381913,-0.0298 0.139853,-0.005 0.279458,-0.009 0.419436,-0.007 0.06509,8e-4 0.130148,0.004 0.195241,0.004 0.244626,2.6e-4 0.225226,-0.003 0.474755,-0.0208 0.18556,-0.0155 0.267078,-0.0203 0.450374,-0.0434 0.168486,-0.0213 0.226271,-0.0297 0.387057,-0.0701 0.0455,-0.0114 0.0908,-0.0236 0.13509,-0.0389 0.0304,-0.0105 0.059,-0.0257 0.0885,-0.0386 0.0114,-0.005 -0.0642,-0.16636 -0.0756,-0.16101 z"
       id="path4617"
       style="opacity:1;fill:#ff0000;fill-opacity:1;stroke:#012d00;stroke-width:0;stroke-miterlimit:4;stroke-dasharray:none;stroke-dashoffset:0;stroke-opacity:1" />
    <path
       d="m 97.149688,124.94335 c -0.06603,-0.015 -0.131313,-0.0338 -0.198099,-0.0449 -0.195979,-0.0327 -0.416732,-0.0496 -0.614238,-0.0538 -0.247621,-0.005 -0.486201,-0.005 -0.731205,0.0275 -0.08863,0.0117 -0.175781,0.0326 -0.263671,0.049 -0.06819,0.0231 -0.138181,0.0414 -0.204578,0.0692 -0.104167,0.0436 -0.18125,0.0991 -0.273646,0.16095 -0.03727,0.0249 -0.07485,0.0494 -0.111408,0.0754 -0.03449,0.0245 -0.06753,0.051 -0.101663,0.076 -0.03776,0.0276 -0.07602,0.0546 -0.114025,0.0819 -0.150511,0.10183 -0.302757,0.2016 -0.44954,0.30884 -0.03899,0.0285 -0.07661,0.0588 -0.114919,0.0882 -0.01376,0.0123 0.16062,0.20686 0.174376,0.19453 v 0 c 0.04618,-0.0248 0.0939,-0.047 0.138546,-0.0746 0.15707,-0.0968 0.296995,-0.21714 0.431623,-0.34246 0.106863,-0.0878 0.08916,-0.0783 0.200245,-0.15115 0.06634,-0.0435 0.133522,-0.0885 0.209854,-0.11357 0.109598,-0.0359 0.219033,-0.0407 0.333182,-0.0534 0.08377,-0.005 0.167452,-0.0117 0.251322,-0.0141 0.09844,-0.003 0.196964,-10e-4 0.295447,-0.002 0.361186,-0.002 0.725363,0.002 1.081313,-0.069 0.01503,0.004 0.07612,-0.20828 0.06108,-0.2126 z"
       id="path4619"
       style="opacity:1;fill:#ff0000;fill-opacity:1;stroke:#012d00;stroke-width:0;stroke-miterlimit:4;stroke-dasharray:none;stroke-dashoffset:0;stroke-opacity:1" />
    <path
       d="m 94.064279,125.45088 c -0.07092,0.0258 -0.144439,0.0452 -0.21276,0.0773 -0.631423,0.29595 -1.166479,0.78603 -1.575657,1.34569 -0.09739,0.13321 -0.174654,0.28002 -0.26198,0.42003 -0.05679,0.13709 -0.180388,0.34669 -0.151614,0.51966 0.008,0.048 0.02746,0.10934 0.07305,0.12623 0.232545,0.0862 0.378595,-0.11329 0.510148,-0.254 0.03151,-0.0443 0.06574,-0.0868 0.09453,-0.13289 0.03205,-0.0514 0.06836,-0.1207 0.0771,-0.18389 0.0024,-0.0163 0.01103,-0.0419 -0.0037,-0.0493 -0.04868,-0.0243 -0.126029,-0.0751 -0.159983,-0.0325 -0.03283,0.0411 0.0501,0.0925 0.07515,0.13878 0.09458,0.0638 0.198758,0.12169 0.315135,0.13159 0.01656,0.001 0.04844,0.007 0.04893,-0.01 0.0049,-0.16864 -0.02529,-0.14405 -0.12709,-0.14878 -0.01384,0.006 0.07371,0.20196 0.08755,0.19576 v 0 c 0.02904,-0.0128 0.07189,-0.0107 0.08711,-0.0385 0.0096,-0.0176 0.07066,-0.16236 0.0029,-0.19615 -0.02458,-0.0122 -0.05235,-0.0166 -0.07832,-0.0256 -0.182567,-0.0628 -0.03044,-0.0152 -0.210722,-0.0693 -0.0173,0.0237 -0.02281,0.0675 -0.05191,0.0709 -0.05338,0.006 -0.102838,-0.0313 -0.154384,-0.0465 -0.0045,-0.001 -0.0098,-0.006 -0.01365,-0.003 -0.02178,0.0151 -0.119401,0.12612 -0.119644,0.12639 -0.03289,0.0376 -0.06481,0.0759 -0.09721,0.1139 -0.03472,0.0419 -0.06997,0.0834 -0.104151,0.12571 -0.02848,0.0353 -0.08061,0.0619 -0.08379,0.10714 -0.0028,0.0389 0.04845,0.0612 0.06963,0.094 0.0098,0.0151 0.0066,0.0566 0.02283,0.0489 0.144989,-0.0685 0.160838,-0.32046 0.326099,-0.3537 0.487694,-0.56564 0.137457,-0.15742 0.672241,-0.78685 0.120859,-0.14225 0.237386,-0.28832 0.363029,-0.42636 0.404598,-0.44453 0.223531,-0.20472 0.581943,-0.58313 0.05106,-0.0539 0.096,-0.11329 0.143997,-0.16993 0.0093,-0.0102 -0.135432,-0.14207 -0.144754,-0.13184 z"
       id="path4621"
       style="opacity:1;fill:#ff0000;fill-opacity:1;stroke:#012d00;stroke-width:0;stroke-miterlimit:4;stroke-dasharray:none;stroke-dashoffset:0;stroke-opacity:1" />
    <path
       d="m 91.903805,128.1689 c 0.02413,-0.002 0.04865,-0.002 0.07237,-0.007 0.132181,-0.0281 0.278747,-0.10443 0.381156,-0.19064 0.04148,-0.0349 0.08927,-0.0686 0.112218,-0.11775 0.02032,-0.0435 0.0066,-0.0958 0.0099,-0.1437 0.04465,-0.0592 -0.199694,-0.20174 -0.23999,-0.12162 -0.02728,0.0542 -0.0031,0.13637 0.04174,0.17731 0.02791,0.0255 0.280223,0.0232 0.318633,-0.002 0.04841,-0.0317 0.06671,-0.0945 0.100071,-0.14183 -2.65e-4,-0.0574 0.01413,-0.11678 -0.0011,-0.17204 -0.02524,-0.091 -0.10859,-0.16195 -0.192984,-0.19406 -0.02543,-0.01 -0.05708,-0.0171 -0.08149,-0.005 -0.04579,0.0225 -0.09697,0.0537 -0.114519,0.10165 -0.01185,0.0324 0.02853,0.0628 0.0428,0.0942 -0.0024,0.038 -0.02043,0.075 -0.03369,0.10985 -0.01333,0.0351 -0.03486,0.0979 -0.058,0.13003 -0.0097,0.0135 -0.02413,0.0227 -0.0362,0.0341 -0.01135,0.006 -0.03039,0.0307 -0.03402,0.0184 -0.0042,-0.0144 0.02922,-0.0191 0.02939,-0.0341 1.93e-4,-0.0168 -0.02141,-0.0263 -0.02853,-0.0416 -0.01233,-0.0264 -0.02111,-0.0543 -0.02938,-0.0822 -0.02577,-0.0869 -0.02685,-0.11117 -0.0407,-0.19831 -0.0026,-0.024 0.0021,-0.05 -0.0076,-0.0721 -0.05134,-0.11578 -0.113961,-0.1238 -0.249751,-0.059 -0.03906,0.0187 -0.05751,0.0654 -0.07946,0.10271 -0.06448,0.10964 -0.06076,0.15512 -0.08401,0.28101 0.0044,0.1262 -0.0046,0.16315 0.03622,0.27969 0.01757,0.0502 0.05216,0.11435 0.09793,0.14723 0.02143,0.0154 0.04567,0.0354 0.07196,0.033 0.04381,-0.004 0.0813,-0.0336 0.121941,-0.0504 0.0086,-0.0217 0.02016,-0.0424 0.02574,-0.0651 0.0066,-0.0267 0.0049,-0.0743 -0.0066,-0.10034 -0.0076,-0.0172 -0.03389,-0.0652 -0.03153,-0.0466 0.01656,0.13052 0.106675,0.005 0.15421,-0.029 0.06819,-0.0617 0.138253,-0.12147 0.204555,-0.18523 0.08449,-0.0813 0.163256,-0.16834 0.247676,-0.24968 0.463312,-0.44638 0.154842,-0.12353 0.609058,-0.57579 0.213484,-0.21257 0.216823,-0.22228 0.391623,-0.42251 0.02249,-0.0328 0.05012,-0.0626 0.06747,-0.0984 0.0045,-0.009 0.003,-0.0239 -0.0049,-0.0307 -0.04383,-0.0378 -0.0898,-0.0764 -0.143708,-0.0975 -0.01299,-0.005 -0.03068,0.0159 -0.02937,0.0298 0.0042,0.044 0.0047,0.10482 0.04398,0.12516 0.05181,0.0268 0.116425,-0.008 0.174636,-0.0119 0.05497,-0.0175 0.110492,-0.0334 0.164917,-0.0525 0.07499,-0.0264 0.14778,-0.0589 0.223197,-0.0841 0.223576,-0.0746 0.412412,-0.11987 0.641916,-0.18021 0.02564,-0.0145 -0.179988,-0.37725 -0.205636,-0.36271 v 0 c -0.115883,0.0449 -0.234516,0.0833 -0.34765,0.13476 -0.165944,0.0755 -0.325593,0.17348 -0.474072,0.27933 -0.04096,0.0292 -0.07895,0.0624 -0.118433,0.0935 0.113871,0.16573 -0.08077,-0.13395 0.04602,0.16006 0.005,0.0115 0.02761,-0.0188 0.02244,-0.0303 -0.02424,-0.0536 -0.05759,-0.10507 -0.101394,-0.14426 -0.05132,-0.0459 -0.184557,0.0874 -0.20111,0.0473 -0.07443,0.0439 -0.152365,0.0824 -0.223279,0.13178 -0.222628,0.15509 -0.416647,0.32895 -0.600411,0.52938 -0.09767,0.10653 -0.187222,0.22041 -0.274958,0.33526 -0.07106,0.093 -0.138305,0.18912 -0.201078,0.28793 -0.04785,0.0753 -0.08692,0.15588 -0.130381,0.23382 -0.103185,0.24302 -0.03794,0.0438 -0.06737,0.26424 -0.0011,0.007 -0.0038,-0.0142 -0.007,-0.0207 -0.0019,-0.004 0.0021,0.008 0.0026,0.0118 0.0026,0.0247 -0.0054,0.0155 0.0079,0.026 0.02855,-0.003 0.0571,-0.006 0.08566,-0.009 0.0066,0.008 0.0096,0.0216 0.01969,0.0235 0.0077,0.002 -0.0073,-0.014 -0.0095,-0.0216 -0.0061,-0.021 -0.01148,-0.0422 -0.01535,-0.0637 -0.01675,-0.0932 -0.01439,-0.11354 -0.01937,-0.21184 0.0031,-0.0379 0.0029,-0.0763 0.0094,-0.11381 0.006,-0.0343 0.01836,-0.0671 0.02795,-0.10057 0.0065,-0.0227 0.03355,-0.0483 0.02037,-0.068 -0.0204,-0.0304 -0.06876,-0.0272 -0.09851,-0.0485 -0.0077,-0.006 -0.0051,-0.0366 -0.0075,-0.0275 -0.0086,0.0317 -0.0077,0.0652 -0.01154,0.0978 0.0085,0.11276 0.0031,0.16188 0.0521,0.27027 0.0334,0.0739 0.109275,0.19675 0.199443,0.2207 0.136416,0.0362 0.162007,0.002 0.249499,-0.0546 0.02106,-0.0243 0.04512,-0.0464 0.0632,-0.073 0.03416,-0.0503 0.05445,-0.1101 0.06843,-0.16858 0.01405,-0.0588 0.02577,-0.1258 0.01164,-0.18631 -0.0067,-0.0287 -0.02413,-0.0539 -0.03618,-0.0808 -0.05302,0.0722 0.0068,-5.3e-4 -0.134014,0.0932 -0.0033,0.002 0.0072,0.003 0.0109,0.004 0.01709,0.005 0.03569,0.007 0.05155,0.0151 0.03469,0.0181 0.05474,0.0457 0.07958,0.074 -0.0013,0.006 0.0016,0.0146 -0.0038,0.0166 -0.03704,0.0143 -0.07832,0.0153 -0.115458,0.0294 -0.01553,0.006 -0.03344,0.0143 -0.04008,0.0296 -0.02291,0.0525 -0.01643,0.1163 -0.04513,0.16591 -0.01275,0.0221 -0.130659,-0.0406 -0.02625,-0.0718 -0.04773,0.0298 0.01378,-0.009 -0.106341,0.0949 -0.06615,0.0574 -0.137062,0.11444 -0.209574,0.16401 -0.02331,0.0159 -0.04821,0.0295 -0.07213,0.0445 -0.01222,0.008 -0.02421,0.0158 -0.03631,0.0237 -0.0109,0.004 0.04272,0.15775 0.0536,0.15396 z"
       id="path4623"
       style="opacity:1;fill:#ff0000;fill-opacity:1;stroke:#012d00;stroke-width:0;stroke-miterlimit:4;stroke-dasharray:none;stroke-dashoffset:0;stroke-opacity:1" />
    <path
       d="m 95.348918,125.23625 c -0.08898,-0.0114 -0.179583,-0.0112 -0.268938,-0.004 -0.02447,0.002 -0.05007,5.3e-4 -0.07312,0.009 -0.0082,0.003 0.02048,0.001 0.02482,0.009 0.02172,0.038 0.03308,0.0811 0.04962,0.12165 0.09922,0.0142 0.03985,0.009 0.178681,0.005 0.01561,-0.007 -0.08313,-0.22786 -0.09874,-0.22088 v 0 c -0.156726,0.058 -0.08846,0.0208 -0.208475,0.10476 0.0037,0.0518 -0.01675,0.11172 0.01119,0.15555 0.01857,0.0291 0.06721,0.0165 0.101436,0.0211 0.0241,0.003 0.04862,0.002 0.07295,0.002 0.08786,8e-4 0.176469,-7.9e-4 0.262766,-0.0192 0.01302,-0.004 -0.03916,-0.18793 -0.05219,-0.18424 z"
       id="path4625"
       style="opacity:1;fill:#ff0000;fill-opacity:1;stroke:#012d00;stroke-width:0;stroke-miterlimit:4;stroke-dasharray:none;stroke-dashoffset:0;stroke-opacity:1" />
    <path
       d="m 99.210046,125.11989 c 0.0801,0.0161 0.15948,0.0359 0.24021,0.0482 0.155147,0.0237 0.661254,0.0731 0.784604,0.0876 0.56448,0.0659 0.8547,0.11535 1.44719,0.167 0.3111,0.0271 0.6231,0.0426 0.93466,0.0639 0.68813,0.0144 0.99038,0.038 1.65437,-0.008 0.17046,-0.0118 0.34083,-0.0303 0.50907,-0.0602 0.0852,-0.0152 0.18817,-0.0127 0.2488,-0.0745 0.0791,-0.0806 -0.13066,-0.24931 -0.14938,-0.26827 -0.0573,-0.0116 -0.11386,-0.0285 -0.17202,-0.0347 -0.15735,-0.0168 -0.28001,-0.0245 -0.4292,0.0172 -0.0961,0.0269 -0.0859,0.10862 -0.0223,0.20289 0.0179,0.0265 0.0624,0.0138 0.0936,0.0207 0.015,-0.004 -0.0419,-0.2167 -0.057,-0.21267 v 0 c -0.0318,0.008 -0.0768,-0.004 -0.0952,0.023 -0.0392,0.0573 -0.0851,0.18182 0.003,0.22304 0.13945,0.0655 0.26539,0.055 0.42037,0.0487 0.11001,-0.005 0.21945,-0.0182 0.32917,-0.0274 0.0687,-0.0415 0.16443,-0.056 0.20625,-0.12456 0.0951,-0.15585 -0.16066,-0.25502 -0.22672,-0.27755 -0.14997,-0.0511 -0.3053,-0.087 -0.46131,-0.11473 -0.6345,-0.1127 -0.95429,-0.10793 -1.62093,-0.14529 -0.32006,0.003 -0.64029,-0.003 -0.96018,0.008 -0.59263,0.0197 -0.95191,0.0645 -1.52323,0.10617 -0.30288,0.0221 -0.528137,0.0262 -0.823637,0.0576 -0.0873,0.009 -0.173887,0.0243 -0.260837,0.0364 -0.0168,-0.005 -0.0857,0.23268 -0.0689,0.23756 z"
       id="path4627"
       style="opacity:1;fill:#ff0000;fill-opacity:1;stroke:#012d00;stroke-width:0;stroke-miterlimit:4;stroke-dasharray:none;stroke-dashoffset:0;stroke-opacity:1" />
    <circle
       r="0"
       cy="126.11293"
       cx="100.24552"
       style="fill:#ff0000;stroke:#012d00;stroke-width:0.264583"
       id="path4647" />
  </g>
</svg>
